<svg id="Layer_1" data-name="Layer 1" xmlns="http://www.w3.org/2000/svg" xmlns:xlink="http://www.w3.org/1999/xlink" viewBox="0 0 1300 550"><defs><style>.cls-1{fill:none;}.cls-2{clip-path:url(#clip-path);}.cls-3{fill:#eb0a1e;}.cls-4{fill:#fff;}</style><clipPath id="clip-path"><rect class="cls-1" width="1300" height="550"/></clipPath></defs><g class="cls-2"><path d="M979,281.246l11.8-30.95,11.786,30.95Zm24.058-48.525H978.541L944.283,316.64H965.52l7.8-20.479h34.949l7.806,20.479h21.227ZM830.149,302.05c-13.834,0-25.029-12.478-25.029-27.877s11.2-27.886,25.029-27.886c13.811,0,25.025,12.485,25.025,27.886S843.96,302.05,830.149,302.05m0-72.206a44.324,44.324,0,1,0,44.337,44.329,44.338,44.338,0,0,0-44.337-44.329M655.2,302.05c-13.812,0-25.015-12.478-25.015-27.877s11.2-27.886,25.015-27.886,25.032,12.485,25.032,27.886S669.029,302.05,655.2,302.05m0-72.206a44.324,44.324,0,1,0,44.336,44.329A44.32,44.32,0,0,0,655.2,229.844m109.582,2.877-21.723,33.953-21.74-33.953H700.076L733.7,285.347V316.64h18.7V285.355l33.625-52.634Zm183.969,0H876.994v16.092h26.578V316.64h18.72V248.813h26.461ZM535.206,248.813h26.586V316.64H580.5V248.813h26.47V232.721H535.206Z"/><rect class="cls-3" x="283.461" y="174.2" width="201.396" height="201.396"/><path class="cls-4" d="M417.746,231.135a120.373,120.373,0,0,0-67.169,0c-24.86,7.992-41.941,24.59-41.941,43.769,0,26.983,33.812,48.861,75.527,48.861s75.52-21.878,75.52-48.861c0-19.179-17.082-35.771-41.937-43.769m-33.583,71.622c-6.225,0-11.308-12.239-11.606-27.618,3.743.337,7.626.517,11.606.517s7.858-.18,11.6-.517c-.3,15.379-5.382,27.618-11.6,27.618M373.341,263.1c1.7-10.795,5.9-18.441,10.822-18.441s9.12,7.646,10.816,18.441c-3.458.312-7.081.485-10.816.485s-7.359-.173-10.822-.485m28.252-.815c-2.526-16.943-9.375-29.089-17.43-29.089s-14.909,12.146-17.435,29.089c-15.341-2.395-26.064-7.845-26.064-14.195,0-8.556,19.476-15.493,43.5-15.493s43.5,6.937,43.5,15.493c0,6.35-10.724,11.8-26.066,14.195m-81.935,10.831c0-8.271,3.183-16.023,8.738-22.692a10.374,10.374,0,0,0-.1,1.4c0,10.4,15.63,19.25,37.42,22.5-.017.786-.03,1.573-.03,2.369,0,19.347,5.367,35.734,12.786,41.384-32.963-2.016-58.817-21.371-58.817-44.961m70.192,44.961c7.415-5.65,12.78-22.036,12.78-41.384,0-.8-.008-1.583-.026-2.369,21.786-3.251,37.418-12.1,37.418-22.5a10.376,10.376,0,0,0-.1-1.4c5.553,6.669,8.738,14.421,8.738,22.692,0,23.59-25.854,42.945-58.81,44.961"/></g></svg>