<svg width="375" height="375" xmlns="http://www.w3.org/2000/svg" data-name="Layer 1">
 <defs>
  <clipPath id="clip-path">
   <rect id="svg_1" fill="none" height="550" width="1300" class="cls-1"/>
  </clipPath>
 </defs>
 <g>
  <title>Layer 1</title>
  <g id="svg_2" clip-path="url(#clip-path)" class="cls-2">
   <rect id="svg_3" fill="#eb0a1e" height="375.001" width="375" y="0" x="0" class="cls-3"/>
   <path id="svg_4" fill="#fff" d="m250.038,106.014c-17.4,-5.595 -39.063,-8.9 -62.53,-8.9s-45.134,3.306 -62.539,8.9c-46.289,14.881 -78.094,45.785 -78.094,81.5c0,50.241 62.959,90.979 140.633,90.979c77.655,0 140.617,-40.738 140.617,-90.979c0,-35.713 -31.806,-66.607 -78.087,-81.5m-62.53,133.359c-11.592,0 -21.057,-22.788 -21.612,-51.424c6.97,0.627 14.2,0.963 21.612,0.963s14.631,-0.336 21.609,-0.963c-0.56,28.636 -10.022,51.424 -21.609,51.424m-20.152,-73.843c3.16,-20.1 10.987,-34.338 20.152,-34.338s16.981,14.238 20.138,34.338c-6.439,0.582 -13.184,0.9 -20.138,0.9s-13.7,-0.322 -20.152,-0.9m52.606,-1.516c-4.7,-31.549 -17.456,-54.165 -32.454,-54.165s-27.762,22.616 -32.464,54.165c-28.566,-4.46 -48.533,-14.609 -48.533,-26.432c0,-15.932 36.265,-28.848 81,-28.848s80.989,12.916 80.989,28.848c0,11.823 -19.967,21.972 -48.535,26.432m-152.565,20.167c0,-15.4 5.927,-29.836 16.27,-42.253a19.366,19.366 0 0 0 -0.181,2.6c0,19.374 29.1,35.843 69.677,41.9c-0.032,1.463 -0.056,2.929 -0.056,4.411c0,36.024 9.992,66.537 23.807,77.057c-61.378,-3.751 -109.517,-39.791 -109.517,-83.715m130.7,83.719c13.808,-10.52 23.8,-41.031 23.8,-77.057c0,-1.482 -0.016,-2.948 -0.049,-4.411c40.566,-6.055 69.672,-22.524 69.672,-41.9a19.209,19.209 0 0 0 -0.187,-2.6c10.341,12.417 16.271,26.851 16.271,42.253c0,43.924 -48.141,79.964 -109.5,83.717" class="cls-4"/>
  </g>
 </g>
</svg>