<svg width="24" height="24" viewBox="0 0 24 24" fill="none" xmlns="http://www.w3.org/2000/svg">
<path fill-rule="evenodd" clip-rule="evenodd" d="M3.00977 10.4697C3.42398 10.4697 3.75977 10.8055 3.75977 11.2197V15.7097C3.75977 17.8803 4.19939 19.2062 5.00135 20.0081C5.8033 20.8101 7.12914 21.2497 9.29977 21.2497H14.6898C16.8604 21.2497 18.1862 20.8101 18.9882 20.0081C19.7901 19.2062 20.2298 17.8803 20.2298 15.7097V11.2197C20.2298 10.8055 20.5656 10.4697 20.9798 10.4697C21.394 10.4697 21.7298 10.8055 21.7298 11.2197V15.7097C21.7298 18.0291 21.2694 19.8483 20.0488 21.0688C18.8283 22.2894 17.0091 22.7497 14.6898 22.7497H9.29977C6.98039 22.7497 5.16123 22.2894 3.94069 21.0688C2.72014 19.8483 2.25977 18.0291 2.25977 15.7097V11.2197C2.25977 10.8055 2.59555 10.4697 3.00977 10.4697Z" fill="currentColor"/>
<path fill-rule="evenodd" clip-rule="evenodd" d="M8.9233 1.92515C8.96174 1.54185 9.28433 1.25 9.66955 1.25H14.3396C14.7252 1.25 15.048 1.54247 15.0859 1.92626L15.7459 8.60626C15.9691 10.8757 14.2745 12.75 11.9996 12.75C9.72461 12.75 8.02994 10.876 8.25316 8.60658L8.9233 1.92515ZM10.3481 2.75L9.74595 8.75342C9.74593 8.75364 9.74597 8.75319 9.74595 8.75342C9.60956 10.1437 10.6147 11.25 11.9996 11.25C13.3845 11.25 14.3898 10.1442 14.2532 8.75374C14.2532 8.75363 14.2532 8.75385 14.2532 8.75374L13.66 2.75H10.3481Z" fill="currentColor"/>
<path fill-rule="evenodd" clip-rule="evenodd" d="M13.7438 1.49671C13.8859 1.33962 14.0879 1.25 14.2998 1.25H17.3498C18.7366 1.25 19.8705 1.51137 20.6962 2.27407C21.512 3.02763 21.8851 4.14208 22.0727 5.49714C22.074 5.50608 22.075 5.51505 22.0759 5.52403L22.3561 8.27574C22.5999 10.7256 20.7749 12.75 18.3098 12.75C16.2755 12.75 14.4632 11.1194 14.2538 9.08687L14.2535 9.08452L13.5535 2.07452C13.5325 1.86369 13.6016 1.65379 13.7438 1.49671ZM15.1284 2.75L15.7459 8.93313C15.7459 8.9335 15.7459 8.93386 15.746 8.93422C15.8771 10.2012 17.0445 11.25 18.3098 11.25C19.8844 11.25 21.0193 9.99482 20.8636 8.4251C20.8635 8.42482 20.8636 8.42538 20.8636 8.4251L20.5851 5.68966C20.4123 4.45307 20.1061 3.77096 19.6784 3.37593C19.2591 2.98863 18.583 2.75 17.3498 2.75H15.1284Z" fill="currentColor"/>
<path fill-rule="evenodd" clip-rule="evenodd" d="M3.24403 2.27407C4.06973 1.51137 5.2036 1.25 6.59043 1.25H9.64043C9.85232 1.25 10.0543 1.33963 10.1965 1.49675C10.3387 1.65386 10.4078 1.86378 10.3867 2.07463L9.68692 9.08239C9.68689 9.08271 9.68695 9.08207 9.68692 9.08239C9.48891 11.1191 7.6735 12.75 5.64042 12.75C3.17552 12.75 1.3506 10.7259 1.59406 8.27627C1.59408 8.27609 1.59404 8.27644 1.59406 8.27627L1.86401 5.52672C1.86498 5.51683 1.86615 5.50697 1.86751 5.49714C2.05514 4.14208 2.42821 3.02763 3.24403 2.27407ZM3.35536 5.68835L3.08684 8.42328C2.93061 9.9934 4.0655 11.25 5.64042 11.25C6.90704 11.25 8.07147 10.2005 8.19393 8.93761L8.19411 8.93571L8.81168 2.75H6.59043C5.35725 2.75 4.68112 2.98863 4.26182 3.37593C3.83431 3.77082 3.52811 4.45258 3.35536 5.68835Z" fill="currentColor"/>
<path fill-rule="evenodd" clip-rule="evenodd" d="M9.59342 17.0934C10.2005 16.4863 11.0505 16.25 12 16.25C12.9495 16.25 13.7995 16.4863 14.4066 17.0934C15.0137 17.7005 15.25 18.5505 15.25 19.5V22C15.25 22.4142 14.9142 22.75 14.5 22.75H9.5C9.08579 22.75 8.75 22.4142 8.75 22V19.5C8.75 18.5505 8.98634 17.7005 9.59342 17.0934ZM10.6541 18.1541C10.4287 18.3795 10.25 18.7795 10.25 19.5V21.25H13.75V19.5C13.75 18.7795 13.5713 18.3795 13.3459 18.1541C13.1205 17.9287 12.7205 17.75 12 17.75C11.2795 17.75 10.8795 17.9287 10.6541 18.1541Z" fill="currentColor"/>
</svg>
