<svg width="24" height="24" viewBox="0 0 24 24" fill="none" xmlns="http://www.w3.org/2000/svg">
<path fill-rule="evenodd" clip-rule="evenodd" d="M2.84467 2.84467C4.17914 1.5102 6.17603 1 8.75 1H14.75C17.324 1 19.3209 1.5102 20.6553 2.84467C21.9898 4.17914 22.5 6.17603 22.5 8.75V14.75C22.5 17.324 21.9898 19.3209 20.6553 20.6553C19.3209 21.9898 17.324 22.5 14.75 22.5H8.75C6.17603 22.5 4.17914 21.9898 2.84467 20.6553C1.5102 19.3209 1 17.324 1 14.75V8.75C1 6.17603 1.5102 4.17914 2.84467 2.84467ZM3.90533 3.90533C2.9898 4.82086 2.5 6.32397 2.5 8.75V14.75C2.5 17.176 2.9898 18.6791 3.90533 19.5947C4.82086 20.5102 6.32397 21 8.75 21H14.75C17.176 21 18.6791 20.5102 19.5947 19.5947C20.5102 18.6791 21 17.176 21 14.75V8.75C21 6.32397 20.5102 4.82086 19.5947 3.90533C18.6791 2.9898 17.176 2.5 14.75 2.5H8.75C6.32397 2.5 4.82086 2.9898 3.90533 3.90533Z" fill="currentColor"/>
<path fill-rule="evenodd" clip-rule="evenodd" d="M12.1984 8.75458C11.1012 8.46293 10.1211 9.27521 10.1211 10.3098C10.1211 10.39 10.1279 10.4647 10.139 10.5256L10.1417 10.5403L10.1438 10.5552C10.2109 11.0315 10.4938 11.4425 10.8966 11.6925L11.2511 11.9125V14.3098C11.2511 14.5855 11.4753 14.8098 11.7511 14.8098C12.0269 14.8098 12.2511 14.5855 12.2511 14.3098V11.9125L12.6056 11.6925C13.0084 11.4425 13.2913 11.0315 13.3584 10.5552L13.3595 10.5477L13.3607 10.5403C13.3948 10.3287 13.3875 10.1071 13.3275 9.8871L13.3256 9.88019C13.1844 9.34199 12.7389 8.89645 12.2007 8.75518L12.1984 8.75458ZM12.5827 7.30463C10.5203 6.75714 8.62109 8.30466 8.62109 10.3098C8.62109 10.4645 8.63344 10.6244 8.66049 10.7788C8.77458 11.562 9.18104 12.2377 9.7511 12.7115V14.3098C9.7511 15.414 10.6469 16.3098 11.7511 16.3098C12.8553 16.3098 13.7511 15.414 13.7511 14.3098V12.7115C14.3229 12.2363 14.73 11.5579 14.8427 10.7718C14.9071 10.3666 14.894 9.93207 14.7756 9.4959C14.496 8.43608 13.6428 7.58337 12.5827 7.30463Z" fill="currentColor"/>
<path fill-rule="evenodd" clip-rule="evenodd" d="M14.1016 9.91016H21.7516V11.4102H14.1016V9.91016Z" fill="currentColor"/>
<path fill-rule="evenodd" clip-rule="evenodd" d="M1.75 9.91016H9.39999V11.4102H1.75V9.91016Z" fill="currentColor"/>
</svg>
