<svg width="24" height="24" viewBox="0 0 24 24" fill="none" xmlns="http://www.w3.org/2000/svg">
<path fill-rule="evenodd" clip-rule="evenodd" d="M4.46967 4.46967C4.76256 4.17678 5.23744 4.17678 5.53033 4.46967L19.5303 18.4697C19.8232 18.7626 19.8232 19.2374 19.5303 19.5303C19.2374 19.8232 18.7626 19.8232 18.4697 19.5303L4.46967 5.53033C4.17678 5.23744 4.17678 4.76256 4.46967 4.46967Z" fill="currentColor"/>
<path fill-rule="evenodd" clip-rule="evenodd" d="M4.25 5C4.25 4.58579 4.58579 4.25 5 4.25H15.27C15.6842 4.25 16.02 4.58579 16.02 5C16.02 5.41421 15.6842 5.75 15.27 5.75H5.75V15.27C5.75 15.6842 5.41421 16.02 5 16.02C4.58579 16.02 4.25 15.6842 4.25 15.27V5Z" fill="currentColor"/>
</svg>
