<svg width="24" height="24" viewBox="0 0 24 24" fill="none" xmlns="http://www.w3.org/2000/svg">
<path fill-rule="evenodd" clip-rule="evenodd" d="M19.5303 4.46967C19.8232 4.76256 19.8232 5.23744 19.5303 5.53033L5.53033 19.5303C5.23744 19.8232 4.76256 19.8232 4.46967 19.5303C4.17678 19.2374 4.17678 18.7626 4.46967 18.4697L18.4697 4.46967C18.7626 4.17678 19.2374 4.17678 19.5303 4.46967Z" fill="currentColor"/>
<path fill-rule="evenodd" clip-rule="evenodd" d="M5 7.98047C5.41421 7.98047 5.75 8.31626 5.75 8.73047V18.2505H15.27C15.6842 18.2505 16.02 18.5863 16.02 19.0005C16.02 19.4147 15.6842 19.7505 15.27 19.7505H5C4.58579 19.7505 4.25 19.4147 4.25 19.0005V8.73047C4.25 8.31626 4.58579 7.98047 5 7.98047Z" fill="currentColor"/>
</svg>
