<svg width="24" height="24" viewBox="0 0 24 24" fill="none" xmlns="http://www.w3.org/2000/svg">
<path fill-rule="evenodd" clip-rule="evenodd" d="M3.45938 14.9604C3.75198 14.6672 4.22685 14.6668 4.52004 14.9594L9.54004 19.9694C9.83322 20.262 9.83369 20.7369 9.54109 21.03C9.24849 21.3232 8.77362 21.3237 8.48043 21.0311L3.46043 16.0211C3.16725 15.7285 3.16677 15.2536 3.45938 14.9604Z" fill="currentColor"/>
<path fill-rule="evenodd" clip-rule="evenodd" d="M9.00977 2.75C9.42398 2.75 9.75977 3.08579 9.75977 3.5V20.5C9.75977 20.9142 9.42398 21.25 9.00977 21.25C8.59555 21.25 8.25977 20.9142 8.25977 20.5V3.5C8.25977 3.08579 8.59555 2.75 9.00977 2.75Z" fill="currentColor"/>
<path fill-rule="evenodd" clip-rule="evenodd" d="M14.4594 2.9702C14.752 2.67701 15.2269 2.67654 15.52 2.96914L20.54 7.97914C20.8332 8.27174 20.8337 8.74662 20.5411 9.0398C20.2485 9.33299 19.7736 9.33346 19.4804 9.04086L14.4604 4.03086C14.1672 3.73826 14.1668 3.26338 14.4594 2.9702Z" fill="currentColor"/>
<path fill-rule="evenodd" clip-rule="evenodd" d="M14.9902 2.75C15.4044 2.75 15.7402 3.08579 15.7402 3.5V20.5C15.7402 20.9142 15.4044 21.25 14.9902 21.25C14.576 21.25 14.2402 20.9142 14.2402 20.5V3.5C14.2402 3.08579 14.576 2.75 14.9902 2.75Z" fill="currentColor"/>
</svg>
