<svg width="24" height="24" viewBox="0 0 24 24" fill="none" xmlns="http://www.w3.org/2000/svg">
<path fill-rule="evenodd" clip-rule="evenodd" d="M13.8995 5.39936C13.6066 5.69225 13.6066 6.16712 13.8995 6.46002L19.4392 11.9997L13.8995 17.5394C13.6066 17.8322 13.6066 18.3071 13.8995 18.6C14.1924 18.8929 14.6673 18.8929 14.9602 18.6L21.0302 12.53C21.1708 12.3894 21.2498 12.1986 21.2498 11.9997C21.2498 11.8008 21.1708 11.61 21.0302 11.4694L14.9602 5.39936C14.6673 5.10646 14.1924 5.10646 13.8995 5.39936Z" fill="currentColor"/>
<path fill-rule="evenodd" clip-rule="evenodd" d="M21.08 11.9997C21.08 11.5855 20.7442 11.2497 20.33 11.2497H3.5C3.08579 11.2497 2.75 11.5855 2.75 11.9997C2.75 12.4139 3.08579 12.7497 3.5 12.7497H20.33C20.7442 12.7497 21.08 12.4139 21.08 11.9997Z" fill="currentColor"/>
</svg>
