<svg width="24" height="24" viewBox="0 0 24 24" fill="none" xmlns="http://www.w3.org/2000/svg">
<path fill-rule="evenodd" clip-rule="evenodd" d="M8 1.25C8.41421 1.25 8.75 1.58579 8.75 2V5C8.75 5.41421 8.41421 5.75 8 5.75C7.58579 5.75 7.25 5.41421 7.25 5V2C7.25 1.58579 7.58579 1.25 8 1.25Z" fill="currentColor"/>
<path fill-rule="evenodd" clip-rule="evenodd" d="M16 1.25C16.4142 1.25 16.75 1.58579 16.75 2V5C16.75 5.41421 16.4142 5.75 16 5.75C15.5858 5.75 15.25 5.41421 15.25 5V2C15.25 1.58579 15.5858 1.25 16 1.25Z" fill="currentColor"/>
<path fill-rule="evenodd" clip-rule="evenodd" d="M2.75 9.08984C2.75 8.67563 3.08579 8.33984 3.5 8.33984H20.5C20.9142 8.33984 21.25 8.67563 21.25 9.08984C21.25 9.50406 20.9142 9.83984 20.5 9.83984H3.5C3.08579 9.83984 2.75 9.50406 2.75 9.08984Z" fill="currentColor"/>
<path fill-rule="evenodd" clip-rule="evenodd" d="M4.7371 5.38534C4.09637 6.07535 3.75 7.11497 3.75 8.5V17C3.75 18.385 4.09637 19.4246 4.7371 20.1147C5.36848 20.7946 6.39295 21.25 8 21.25H16C17.607 21.25 18.6315 20.7946 19.2629 20.1147C19.9036 19.4246 20.25 18.385 20.25 17V8.5C20.25 7.11497 19.9036 6.07535 19.2629 5.38534C18.6315 4.70538 17.607 4.25 16 4.25H8C6.39295 4.25 5.36848 4.70538 4.7371 5.38534ZM3.6379 4.36466C4.63152 3.29462 6.10705 2.75 8 2.75H16C17.893 2.75 19.3685 3.29462 20.3621 4.36466C21.3464 5.42465 21.75 6.88503 21.75 8.5V17C21.75 18.615 21.3464 20.0754 20.3621 21.1353C19.3685 22.2054 17.893 22.75 16 22.75H8C6.10705 22.75 4.63152 22.2054 3.6379 21.1353C2.65363 20.0754 2.25 18.615 2.25 17V8.5C2.25 6.88503 2.65363 5.42465 3.6379 4.36466Z" fill="currentColor"/>
<path fill-rule="evenodd" clip-rule="evenodd" d="M14.6943 13.7002C14.6943 13.1479 15.1421 12.7002 15.6943 12.7002H15.7033C16.2556 12.7002 16.7033 13.1479 16.7033 13.7002C16.7033 14.2525 16.2556 14.7002 15.7033 14.7002H15.6943C15.1421 14.7002 14.6943 14.2525 14.6943 13.7002Z" fill="currentColor"/>
<path fill-rule="evenodd" clip-rule="evenodd" d="M14.6943 16.7002C14.6943 16.1479 15.1421 15.7002 15.6943 15.7002H15.7033C16.2556 15.7002 16.7033 16.1479 16.7033 16.7002C16.7033 17.2525 16.2556 17.7002 15.7033 17.7002H15.6943C15.1421 17.7002 14.6943 17.2525 14.6943 16.7002Z" fill="currentColor"/>
<path fill-rule="evenodd" clip-rule="evenodd" d="M10.9951 13.7002C10.9951 13.1479 11.4428 12.7002 11.9951 12.7002H12.0041C12.5564 12.7002 13.0041 13.1479 13.0041 13.7002C13.0041 14.2525 12.5564 14.7002 12.0041 14.7002H11.9951C11.4428 14.7002 10.9951 14.2525 10.9951 13.7002Z" fill="currentColor"/>
<path fill-rule="evenodd" clip-rule="evenodd" d="M10.9951 16.7002C10.9951 16.1479 11.4428 15.7002 11.9951 15.7002H12.0041C12.5564 15.7002 13.0041 16.1479 13.0041 16.7002C13.0041 17.2525 12.5564 17.7002 12.0041 17.7002H11.9951C11.4428 17.7002 10.9951 17.2525 10.9951 16.7002Z" fill="currentColor"/>
<path fill-rule="evenodd" clip-rule="evenodd" d="M7.29395 13.7002C7.29395 13.1479 7.74166 12.7002 8.29395 12.7002H8.30293C8.85521 12.7002 9.30293 13.1479 9.30293 13.7002C9.30293 14.2525 8.85521 14.7002 8.30293 14.7002H8.29395C7.74166 14.7002 7.29395 14.2525 7.29395 13.7002Z" fill="currentColor"/>
<path fill-rule="evenodd" clip-rule="evenodd" d="M7.29395 16.7002C7.29395 16.1479 7.74166 15.7002 8.29395 15.7002H8.30293C8.85521 15.7002 9.30293 16.1479 9.30293 16.7002C9.30293 17.2525 8.85521 17.7002 8.30293 17.7002H8.29395C7.74166 17.7002 7.29395 17.2525 7.29395 16.7002Z" fill="currentColor"/>
</svg>
