<svg width="24" height="24" viewBox="0 0 24 24" fill="none" xmlns="http://www.w3.org/2000/svg">
<path fill-rule="evenodd" clip-rule="evenodd" d="M20 10.75C19.3096 10.75 18.75 11.3096 18.75 12C18.75 12.6904 19.3096 13.25 20 13.25C20.6904 13.25 21.25 12.6904 21.25 12C21.25 11.3096 20.6904 10.75 20 10.75ZM17.25 12C17.25 10.4812 18.4812 9.25 20 9.25C21.5188 9.25 22.75 10.4812 22.75 12C22.75 13.5188 21.5188 14.75 20 14.75C18.4812 14.75 17.25 13.5188 17.25 12Z" fill="currentColor"/>
<path fill-rule="evenodd" clip-rule="evenodd" d="M20 2.75C19.3096 2.75 18.75 3.30964 18.75 4C18.75 4.69036 19.3096 5.25 20 5.25C20.6904 5.25 21.25 4.69036 21.25 4C21.25 3.30964 20.6904 2.75 20 2.75ZM17.25 4C17.25 2.48122 18.4812 1.25 20 1.25C21.5188 1.25 22.75 2.48122 22.75 4C22.75 5.51878 21.5188 6.75 20 6.75C18.4812 6.75 17.25 5.51878 17.25 4Z" fill="currentColor"/>
<path fill-rule="evenodd" clip-rule="evenodd" d="M20 18.75C19.3096 18.75 18.75 19.3096 18.75 20C18.75 20.6904 19.3096 21.25 20 21.25C20.6904 21.25 21.25 20.6904 21.25 20C21.25 19.3096 20.6904 18.75 20 18.75ZM17.25 20C17.25 18.4812 18.4812 17.25 20 17.25C21.5188 17.25 22.75 18.4812 22.75 20C22.75 21.5188 21.5188 22.75 20 22.75C18.4812 22.75 17.25 21.5188 17.25 20Z" fill="currentColor"/>
<path fill-rule="evenodd" clip-rule="evenodd" d="M4 10.75C3.30964 10.75 2.75 11.3096 2.75 12C2.75 12.6904 3.30964 13.25 4 13.25C4.69036 13.25 5.25 12.6904 5.25 12C5.25 11.3096 4.69036 10.75 4 10.75ZM1.25 12C1.25 10.4812 2.48122 9.25 4 9.25C5.51878 9.25 6.75 10.4812 6.75 12C6.75 13.5188 5.51878 14.75 4 14.75C2.48122 14.75 1.25 13.5188 1.25 12Z" fill="currentColor"/>
<path fill-rule="evenodd" clip-rule="evenodd" d="M5.25 12C5.25 11.5858 5.58579 11.25 6 11.25H18C18.4142 11.25 18.75 11.5858 18.75 12C18.75 12.4142 18.4142 12.75 18 12.75H6C5.58579 12.75 5.25 12.4142 5.25 12Z" fill="currentColor"/>
<path fill-rule="evenodd" clip-rule="evenodd" d="M11.2197 4.21967C11.9099 3.52941 12.8844 3.25 14 3.25H18C18.4142 3.25 18.75 3.58579 18.75 4C18.75 4.41421 18.4142 4.75 18 4.75H14C13.1156 4.75 12.5901 4.97059 12.2803 5.28033C11.9706 5.59007 11.75 6.11561 11.75 7V17C11.75 17.8844 11.9706 18.4099 12.2803 18.7197C12.5901 19.0294 13.1156 19.25 14 19.25H18C18.4142 19.25 18.75 19.5858 18.75 20C18.75 20.4142 18.4142 20.75 18 20.75H14C12.8844 20.75 11.9099 20.4706 11.2197 19.7803C10.5294 19.0901 10.25 18.1156 10.25 17V7C10.25 5.88439 10.5294 4.90993 11.2197 4.21967Z" fill="currentColor"/>
</svg>
