<svg width="24" height="24" viewBox="0 0 24 24" fill="none" xmlns="http://www.w3.org/2000/svg">
<path fill-rule="evenodd" clip-rule="evenodd" d="M4.03033 4.03033C3.22059 4.84007 2.75 6.11561 2.75 8V13C2.75 15.4353 3.24367 16.6541 3.99388 17.3106C4.76886 17.9887 6.01326 18.25 8 18.25H8.5C8.78282 18.25 9.05796 18.3383 9.27436 18.4455C9.48803 18.5515 9.7297 18.7182 9.90264 18.9535L11.4 20.95C11.6092 21.2289 11.8337 21.31 12 21.31C12.1663 21.31 12.3908 21.2289 12.6 20.95L14.1 18.95L14.1029 18.9462C14.4325 18.5124 14.9521 18.25 15.5 18.25H16C17.8844 18.25 19.1599 17.7794 19.9697 16.9697C20.7794 16.1599 21.25 14.8844 21.25 13V8C21.25 6.11561 20.7794 4.84007 19.9697 4.03033C19.1599 3.22059 17.8844 2.75 16 2.75H8C6.11561 2.75 4.84007 3.22059 4.03033 4.03033ZM2.96967 2.96967C4.15993 1.77941 5.88439 1.25 8 1.25H16C18.1156 1.25 19.8401 1.77941 21.0303 2.96967C22.2206 4.15993 22.75 5.88439 22.75 8V13C22.75 15.1156 22.2206 16.8401 21.0303 18.0303C19.8401 19.2206 18.1156 19.75 16 19.75H15.5C15.4284 19.75 15.3486 19.7871 15.2982 19.8524C15.2978 19.8529 15.2975 19.8534 15.2971 19.8538L13.8 21.85C13.3492 22.4511 12.7037 22.81 12 22.81C11.2963 22.81 10.6508 22.4511 10.2 21.85L8.69876 19.8484C8.69654 19.8462 8.69203 19.8422 8.6847 19.8365C8.66662 19.8224 8.64037 19.8054 8.60814 19.7895C8.57598 19.7735 8.54532 19.7622 8.52072 19.7556C8.50625 19.7517 8.49766 19.7504 8.49494 19.75H8C5.98674 19.75 4.23114 19.5113 3.00612 18.4394C1.75633 17.3459 1.25 15.5647 1.25 13V8C1.25 5.88439 1.77941 4.15993 2.96967 2.96967Z" fill="currentColor"/>
</svg>
