<svg width="24" height="24" viewBox="0 0 24 24" fill="none" xmlns="http://www.w3.org/2000/svg">
<path fill-rule="evenodd" clip-rule="evenodd" d="M20.5284 4.53131C20.8212 4.23841 20.8212 3.76354 20.5284 3.47065C20.2355 3.17775 19.7606 3.17775 19.4677 3.47065L12 10.9384L4.53226 3.47065C4.23937 3.17775 3.7645 3.17775 3.4716 3.47065C3.17871 3.76354 3.17871 4.23841 3.4716 4.53131L10.9393 11.999L3.46967 19.4687C3.17678 19.7616 3.17678 20.2364 3.46967 20.5293C3.76256 20.8222 4.23744 20.8222 4.53033 20.5293L12 13.0597L19.4696 20.5293C19.7625 20.8222 20.2374 20.8222 20.5303 20.5293C20.8232 20.2364 20.8232 19.7616 20.5303 19.4687L13.0606 11.999L20.5284 4.53131Z" fill="currentColor"/>
</svg>
