<svg width="24" height="24" viewBox="0 0 24 24" fill="none" xmlns="http://www.w3.org/2000/svg">
<path fill-rule="evenodd" clip-rule="evenodd" d="M12 21.5C17.2467 21.5 21.5 17.2467 21.5 12C21.5 6.75329 17.2467 2.5 12 2.5C6.75329 2.5 2.5 6.75329 2.5 12C2.5 17.2467 6.75329 21.5 12 21.5ZM12 23C18.0751 23 23 18.0751 23 12C23 5.92487 18.0751 1 12 1C5.92487 1 1 5.92487 1 12C1 18.0751 5.92487 23 12 23Z" fill="currentColor"/>
<path fill-rule="evenodd" clip-rule="evenodd" d="M14.9171 5.35146C15.2986 5.51285 15.477 5.95294 15.3156 6.33442L10.2739 18.2511C10.1125 18.6326 9.67245 18.811 9.29097 18.6496C8.90949 18.4882 8.73108 18.0481 8.89248 17.6666L13.9341 5.74996C14.0955 5.36848 14.5356 5.19007 14.9171 5.35146Z" fill="currentColor"/>
<path fill-rule="evenodd" clip-rule="evenodd" d="M8.28033 8.71967C8.57322 9.01256 8.57322 9.48744 8.28033 9.78033L6.06066 12L8.28033 14.2197C8.57322 14.5126 8.57322 14.9874 8.28033 15.2803C7.98744 15.5732 7.51256 15.5732 7.21967 15.2803L4.46967 12.5303C4.17678 12.2374 4.17678 11.7626 4.46967 11.4697L7.21967 8.71967C7.51256 8.42678 7.98744 8.42678 8.28033 8.71967Z" fill="currentColor"/>
<path fill-rule="evenodd" clip-rule="evenodd" d="M15.4697 8.71967C15.1768 9.01256 15.1768 9.48744 15.4697 9.78033L17.6893 12L15.4697 14.2197C15.1768 14.5126 15.1768 14.9874 15.4697 15.2803C15.7626 15.5732 16.2374 15.5732 16.5303 15.2803L19.2803 12.5303C19.5732 12.2374 19.5732 11.7626 19.2803 11.4697L16.5303 8.71967C16.2374 8.42678 15.7626 8.42678 15.4697 8.71967Z" fill="currentColor"/>
</svg>
