<svg width="24" height="24" viewBox="0 0 24 24" fill="none" xmlns="http://www.w3.org/2000/svg">
<path fill-rule="evenodd" clip-rule="evenodd" d="M7.25 8C7.25 7.58579 7.58579 7.25 8 7.25H16C16.4142 7.25 16.75 7.58579 16.75 8V16C16.75 16.4142 16.4142 16.75 16 16.75H8C7.58579 16.75 7.25 16.4142 7.25 16V8ZM8.75 8.75V15.25H15.25V8.75H8.75Z" fill="currentColor"/>
<path fill-rule="evenodd" clip-rule="evenodd" d="M1.25 19C1.25 16.9358 2.93579 15.25 5 15.25H8C8.41421 15.25 8.75 15.5858 8.75 16V19C8.75 21.0642 7.06421 22.75 5 22.75C2.93579 22.75 1.25 21.0642 1.25 19ZM5 16.75C3.76421 16.75 2.75 17.7642 2.75 19C2.75 20.2358 3.76421 21.25 5 21.25C6.23579 21.25 7.25 20.2358 7.25 19V16.75H5Z" fill="currentColor"/>
<path fill-rule="evenodd" clip-rule="evenodd" d="M1.25 5C1.25 2.93579 2.93579 1.25 5 1.25C7.06421 1.25 8.75 2.93579 8.75 5V8C8.75 8.41421 8.41421 8.75 8 8.75H5C2.93579 8.75 1.25 7.06421 1.25 5ZM5 2.75C3.76421 2.75 2.75 3.76421 2.75 5C2.75 6.23579 3.76421 7.25 5 7.25H7.25V5C7.25 3.76421 6.23579 2.75 5 2.75Z" fill="currentColor"/>
<path fill-rule="evenodd" clip-rule="evenodd" d="M15.25 5C15.25 2.93579 16.9358 1.25 19 1.25C21.0642 1.25 22.75 2.93579 22.75 5C22.75 7.06421 21.0642 8.75 19 8.75H16C15.5858 8.75 15.25 8.41421 15.25 8V5ZM19 2.75C17.7642 2.75 16.75 3.76421 16.75 5V7.25H19C20.2358 7.25 21.25 6.23579 21.25 5C21.25 3.76421 20.2358 2.75 19 2.75Z" fill="currentColor"/>
<path fill-rule="evenodd" clip-rule="evenodd" d="M15.25 16C15.25 15.5858 15.5858 15.25 16 15.25H19C21.0642 15.25 22.75 16.9358 22.75 19C22.75 21.0642 21.0642 22.75 19 22.75C16.9358 22.75 15.25 21.0642 15.25 19V16ZM16.75 16.75V19C16.75 20.2358 17.7642 21.25 19 21.25C20.2358 21.25 21.25 20.2358 21.25 19C21.25 17.7642 20.2358 16.75 19 16.75H16.75Z" fill="currentColor"/>
</svg>
