<svg width="24" height="24" viewBox="0 0 24 24" fill="none" xmlns="http://www.w3.org/2000/svg">
<path fill-rule="evenodd" clip-rule="evenodd" d="M13.5048 1.94124C14.0731 1.40666 14.8697 1.25 15.73 1.25H19.77C20.6303 1.25 21.4269 1.40666 21.9952 1.94124C22.5749 2.48664 22.75 3.26514 22.75 4.1V10.9C22.75 11.7349 22.5749 12.5134 21.9952 13.0588C21.4269 13.5933 20.6303 13.75 19.77 13.75H15.73C14.8697 13.75 14.0731 13.5933 13.5048 13.0588C12.9251 12.5134 12.75 11.7349 12.75 10.9V4.1C12.75 3.26514 12.9251 2.48664 13.5048 1.94124ZM14.5327 3.03376C14.3949 3.16336 14.25 3.43486 14.25 4.1V10.9C14.25 11.5651 14.3949 11.8366 14.5327 11.9662C14.6819 12.1067 15.0003 12.25 15.73 12.25H19.77C20.4997 12.25 20.8181 12.1067 20.9673 11.9662C21.1051 11.8366 21.25 11.5651 21.25 10.9V4.1C21.25 3.43486 21.1051 3.16336 20.9673 3.03376C20.8181 2.89334 20.4997 2.75 19.77 2.75H15.73C15.0003 2.75 14.6819 2.89334 14.5327 3.03376Z" fill="currentColor"/>
<path fill-rule="evenodd" clip-rule="evenodd" d="M13.5048 15.9412C14.0731 15.4067 14.8697 15.25 15.73 15.25H19.77C20.6303 15.25 21.4269 15.4067 21.9952 15.9412C22.5749 16.4866 22.75 17.2651 22.75 18.1V19.9C22.75 20.7349 22.5749 21.5134 21.9952 22.0588C21.4269 22.5933 20.6303 22.75 19.77 22.75H15.73C14.8697 22.75 14.0731 22.5933 13.5048 22.0588C12.9251 21.5134 12.75 20.7349 12.75 19.9V18.1C12.75 17.2651 12.9251 16.4866 13.5048 15.9412ZM14.5327 17.0338C14.3949 17.1634 14.25 17.4349 14.25 18.1V19.9C14.25 20.5651 14.3949 20.8366 14.5327 20.9662C14.6819 21.1067 15.0003 21.25 15.73 21.25H19.77C20.4997 21.25 20.8181 21.1067 20.9673 20.9662C21.1051 20.8366 21.25 20.5651 21.25 19.9V18.1C21.25 17.4349 21.1051 17.1634 20.9673 17.0338C20.8181 16.8933 20.4997 16.75 19.77 16.75H15.73C15.0003 16.75 14.6819 16.8933 14.5327 17.0338Z" fill="currentColor"/>
<path fill-rule="evenodd" clip-rule="evenodd" d="M3.03265 12.0338C2.8949 12.1634 2.75 12.4349 2.75 13.1V19.9C2.75 20.5651 2.8949 20.8366 3.03265 20.9662C3.18191 21.1067 3.50032 21.25 4.23 21.25H8.27C8.99969 21.25 9.31809 21.1067 9.46735 20.9662C9.6051 20.8366 9.75 20.5651 9.75 19.9V13.1C9.75 12.4349 9.6051 12.1634 9.46735 12.0338C9.31809 11.8933 8.99969 11.75 8.27 11.75H4.23C3.50032 11.75 3.18191 11.8933 3.03265 12.0338ZM2.00485 10.9412C2.57309 10.4067 3.36968 10.25 4.23 10.25H8.27C9.13032 10.25 9.92691 10.4067 10.4952 10.9412C11.0749 11.4866 11.25 12.2651 11.25 13.1V19.9C11.25 20.7349 11.0749 21.5134 10.4952 22.0588C9.92691 22.5933 9.13032 22.75 8.27 22.75H4.23C3.36968 22.75 2.57309 22.5933 2.00485 22.0588C1.4251 21.5134 1.25 20.7349 1.25 19.9V13.1C1.25 12.2651 1.4251 11.4866 2.00485 10.9412Z" fill="currentColor"/>
<path fill-rule="evenodd" clip-rule="evenodd" d="M3.03265 3.03376C2.8949 3.16336 2.75 3.43486 2.75 4.1V5.9C2.75 6.56514 2.8949 6.83664 3.03265 6.96624C3.18191 7.10666 3.50032 7.25 4.23 7.25H8.27C8.99969 7.25 9.31809 7.10666 9.46735 6.96624C9.6051 6.83664 9.75 6.56514 9.75 5.9V4.1C9.75 3.43486 9.6051 3.16336 9.46735 3.03376C9.31809 2.89334 8.99969 2.75 8.27 2.75H4.23C3.50032 2.75 3.18191 2.89334 3.03265 3.03376ZM2.00485 1.94124C2.57309 1.40666 3.36968 1.25 4.23 1.25H8.27C9.13032 1.25 9.92691 1.40666 10.4952 1.94124C11.0749 2.48664 11.25 3.26514 11.25 4.1V5.9C11.25 6.73486 11.0749 7.51336 10.4952 8.05876C9.92691 8.59334 9.13032 8.75 8.27 8.75H4.23C3.36968 8.75 2.57309 8.59334 2.00485 8.05876C1.4251 7.51336 1.25 6.73486 1.25 5.9V4.1C1.25 3.26514 1.4251 2.48664 2.00485 1.94124Z" fill="currentColor"/>
</svg>
