<svg width="24" height="24" viewBox="0 0 24 24" fill="none" xmlns="http://www.w3.org/2000/svg">
<path fill-rule="evenodd" clip-rule="evenodd" d="M6.05133 8.88397C6.25895 8.52554 6.71782 8.40329 7.07624 8.6109L12.0001 11.463L16.8841 8.63107C17.2424 8.42329 17.7014 8.54534 17.9091 8.90367C18.1169 9.262 17.9949 9.72093 17.6365 9.9287L12.3765 12.9787C12.144 13.1136 11.857 13.1136 11.6244 12.9789L6.3244 9.90888C5.96597 9.70126 5.84372 9.24239 6.05133 8.88397Z" fill="currentColor"/>
<path fill-rule="evenodd" clip-rule="evenodd" d="M12 11.5703C12.4142 11.5703 12.75 11.9061 12.75 12.3203V17.7703C12.75 18.1845 12.4142 18.5203 12 18.5203C11.5858 18.5203 11.25 18.1845 11.25 17.7703V12.3203C11.25 11.9061 11.5858 11.5703 12 11.5703Z" fill="currentColor"/>
<path fill-rule="evenodd" clip-rule="evenodd" d="M11.9994 5.24611C12.5437 5.2446 13.129 5.35689 13.612 5.62289L13.6148 5.62442L16.8129 7.40335C17.3242 7.68419 17.7423 8.14811 18.0306 8.63861C18.3194 9.13001 18.5202 9.72024 18.5202 10.2999V13.6999C18.5202 14.282 18.3152 14.8729 18.026 15.3626C17.7367 15.8522 17.3192 16.3151 16.8145 16.5955L13.6148 18.3753L13.612 18.3768C13.1291 18.6428 12.5442 18.7549 12.0015 18.7549C11.4595 18.7549 10.875 18.643 10.3948 18.3748C10.3947 18.3747 10.3949 18.3749 10.3948 18.3748L7.19763 16.5964C6.68632 16.3155 6.26815 15.8516 5.97988 15.3611C5.69109 14.8697 5.49023 14.2795 5.49023 13.6999V10.3099C5.49023 9.72768 5.69523 9.13677 5.98451 8.64712C6.27369 8.15762 6.69108 7.69486 7.19566 7.41443L10.3918 5.6366C10.8727 5.36218 11.4576 5.24761 11.9994 5.24611ZM12.0036 6.7461C11.6446 6.7471 11.3316 6.82679 11.1334 6.94045L11.1249 6.94534L7.92482 8.72528C7.70956 8.84487 7.46672 9.0872 7.27597 9.41009C7.08524 9.73294 6.99023 10.062 6.99023 10.3099V13.6999C6.99023 13.9502 7.08438 14.28 7.27309 14.6011C7.46191 14.9224 7.70296 15.1628 7.92064 15.2821L7.92483 15.2844L11.1261 17.0651C11.3258 17.1767 11.6412 17.2549 12.0015 17.2549C12.3606 17.2549 12.6801 17.1772 12.8872 17.0636C12.8876 17.0633 12.888 17.0631 12.8884 17.0629L16.0857 15.2844C16.3009 15.1648 16.5438 14.9225 16.7345 14.5996C16.9252 14.2768 17.0202 13.9477 17.0202 13.6999V10.2999C17.0202 10.0495 16.9261 9.7197 16.7374 9.3986C16.5486 9.07731 16.3075 8.83686 16.0899 8.71759L16.0857 8.71529L12.8884 6.93682C12.888 6.9366 12.8876 6.93638 12.8872 6.93616C12.6802 6.82252 12.3611 6.74511 12.0036 6.7461Z" fill="currentColor"/>
<path fill-rule="evenodd" clip-rule="evenodd" d="M22 14.25C22.4142 14.25 22.75 14.5858 22.75 15C22.75 19.2842 19.2842 22.75 15 22.75C14.7298 22.75 14.4805 22.6047 14.3474 22.3695C14.2142 22.1344 14.2179 21.8458 14.3569 21.6141L15.4069 19.8641C15.62 19.5089 16.0807 19.3938 16.4359 19.6069C16.791 19.82 16.9062 20.2807 16.6931 20.6359L16.4218 21.0881C19.1909 20.4456 21.25 17.9666 21.25 15C21.25 14.5858 21.5858 14.25 22 14.25Z" fill="currentColor"/>
<path fill-rule="evenodd" clip-rule="evenodd" d="M7.57821 2.91194C4.8091 3.55436 2.75 6.03342 2.75 9C2.75 9.41421 2.41421 9.75 2 9.75C1.58579 9.75 1.25 9.41421 1.25 9C1.25 4.71579 4.71579 1.25 9 1.25C9.2702 1.25 9.51952 1.39534 9.65265 1.63047C9.78578 1.8656 9.78214 2.15417 9.64312 2.38587L8.59313 4.13587C8.38002 4.49105 7.91933 4.60623 7.56414 4.39312C7.20896 4.18001 7.09378 3.71932 7.30689 3.36413L7.57821 2.91194Z" fill="currentColor"/>
</svg>
