<svg width="24" height="24" viewBox="0 0 24 24" fill="none" xmlns="http://www.w3.org/2000/svg">
<path fill-rule="evenodd" clip-rule="evenodd" d="M15.5176 1.43775C16.6843 1.28855 17.8647 1.76567 19.0642 2.89422L19.0655 2.89552C20.269 4.03361 20.8168 5.1881 20.7346 6.36399C20.6552 7.50024 19.9965 8.46195 19.2454 9.2555M19.2454 9.2555L11.0395 17.9412C10.8081 18.1931 10.4966 18.4065 10.2013 18.5643C9.90225 18.7243 9.55628 18.8611 9.23149 18.9189L9.2265 18.9197L6.00765 19.4695C5.22708 19.6041 4.47858 19.409 3.94538 18.9034C3.41293 18.3984 3.17764 17.6621 3.2648 16.8776L3.26506 16.8753L3.63666 13.6213C3.67982 13.2976 3.80004 12.9473 3.94175 12.6435C4.08295 12.3407 4.2756 12.0196 4.50358 11.7769L4.50504 11.7754L12.715 3.08538C13.4666 2.2915 14.3901 1.58192 15.5176 1.43775M13.8049 4.11605C13.8047 4.11618 13.805 4.11591 13.8049 4.11605L5.59685 12.8039C5.59668 12.8041 5.59702 12.8038 5.59685 12.8039C5.51488 12.8914 5.40228 13.0607 5.30119 13.2774C5.20193 13.4903 5.14231 13.6872 5.12444 13.8138L4.75563 17.0433C4.75559 17.0436 4.75555 17.0439 4.75552 17.0443C4.71301 17.4292 4.83264 17.6776 4.97755 17.815C5.12185 17.9518 5.37335 18.0568 5.75279 17.9913L5.75394 17.9911L8.97105 17.4416C9.09632 17.419 9.28934 17.351 9.4941 17.2415C9.70168 17.1306 9.85783 17.0109 9.936 16.9251L9.94496 16.9153L18.155 8.22538C18.8237 7.51904 19.1952 6.87538 19.2383 6.25939C19.2786 5.68293 19.0416 4.93767 18.0357 3.98613C17.0354 3.04514 16.281 2.85234 15.7078 2.92563C15.0954 3.00394 14.4732 3.41017 13.8049 4.11605Z" fill="currentColor"/>
<path fill-rule="evenodd" clip-rule="evenodd" d="M11.7743 4.30885C12.1836 4.24509 12.5671 4.52518 12.6308 4.93446C13.0079 7.35508 14.9725 9.20768 17.4149 9.45369C17.827 9.4952 18.1275 9.86294 18.086 10.2751C18.0445 10.6872 17.6767 10.9876 17.2646 10.9461C14.147 10.6321 11.6316 8.26475 11.1487 5.16537C11.0849 4.75609 11.365 4.37262 11.7743 4.30885Z" fill="currentColor"/>
<path fill-rule="evenodd" clip-rule="evenodd" d="M2.25 22C2.25 21.5858 2.58579 21.25 3 21.25H21C21.4142 21.25 21.75 21.5858 21.75 22C21.75 22.4142 21.4142 22.75 21 22.75H3C2.58579 22.75 2.25 22.4142 2.25 22Z" fill="currentColor"/>
</svg>
