<svg width="24" height="24" viewBox="0 0 24 24" fill="none" xmlns="http://www.w3.org/2000/svg">
<path fill-rule="evenodd" clip-rule="evenodd" d="M0 12C0 5.39809 5.39809 0 12 0C18.6019 0 24 5.39809 24 12C24 18.6019 18.6019 24 12 24C5.39809 24 0 18.6019 0 12ZM12 1.67442C6.32284 1.67442 1.67442 6.32284 1.67442 12C1.67442 17.6772 6.32284 22.3256 12 22.3256C17.6772 22.3256 22.3256 17.6772 22.3256 12C22.3256 6.32284 17.6772 1.67442 12 1.67442Z" fill="currentColor"/>
<path fill-rule="evenodd" clip-rule="evenodd" d="M13.2002 6.68571C13.2002 6.307 13.5072 6 13.8859 6H17.3145C17.6932 6 18.0002 6.307 18.0002 6.68571V10.1143C18.0002 10.493 17.6932 10.8 17.3145 10.8C16.9358 10.8 16.6288 10.493 16.6288 10.1143V7.37143H13.8859C13.5072 7.37143 13.2002 7.06442 13.2002 6.68571Z" fill="currentColor"/>
<path fill-rule="evenodd" clip-rule="evenodd" d="M6.68571 13.2002C7.06442 13.2002 7.37143 13.5072 7.37143 13.8859V16.6288H10.1143C10.493 16.6288 10.8 16.9358 10.8 17.3145C10.8 17.6932 10.493 18.0002 10.1143 18.0002H6.68571C6.307 18.0002 6 17.6932 6 17.3145V13.8859C6 13.5072 6.307 13.2002 6.68571 13.2002Z" fill="currentColor"/>
<path fill-rule="evenodd" clip-rule="evenodd" d="M17.7874 6.21301C18.0714 6.49703 18.0714 6.95751 17.7874 7.24153L13.5004 11.4C13.2164 11.684 12.7559 11.684 12.4719 11.4C12.1879 11.116 12.1879 10.6555 12.4719 10.3715L16.7588 6.21301C17.0429 5.929 17.5033 5.929 17.7874 6.21301Z" fill="currentColor"/>
<path fill-rule="evenodd" clip-rule="evenodd" d="M11.5285 12.5997C11.8125 12.8837 11.8125 13.3442 11.5285 13.6282L7.24153 17.7867C6.95751 18.0707 6.49703 18.0707 6.21301 17.7867C5.929 17.5027 5.929 17.0422 6.21301 16.7582L10.5 12.5997C10.784 12.3157 11.2445 12.3157 11.5285 12.5997Z" fill="currentColor"/>
</svg>
