<svg width="24" height="24" viewBox="0 0 24 24" fill="none" xmlns="http://www.w3.org/2000/svg">
<path fill-rule="evenodd" clip-rule="evenodd" d="M4.55277 4.55277C5.68074 3.4248 7.36249 3 9.50769 3H11.1692C11.5516 3 11.8615 3.30996 11.8615 3.69231C11.8615 4.07466 11.5516 4.38462 11.1692 4.38462H9.50769C7.49905 4.38462 6.2731 4.79058 5.53184 5.53184C4.79058 6.2731 4.38462 7.49905 4.38462 9.50769V14.4923C4.38462 16.5009 4.79058 17.7269 5.53184 18.4682C6.2731 19.2094 7.49905 19.6154 9.50769 19.6154H14.4923C16.5009 19.6154 17.7269 19.2094 18.4682 18.4682C19.2094 17.7269 19.6154 16.5009 19.6154 14.4923V12.8308C19.6154 12.4484 19.9253 12.1385 20.3077 12.1385C20.69 12.1385 21 12.4484 21 12.8308V14.4923C21 16.6375 20.5752 18.3193 19.4472 19.4472C18.3193 20.5752 16.6375 21 14.4923 21H9.50769C7.36249 21 5.68074 20.5752 4.55277 19.4472C3.4248 18.3193 3 16.6375 3 14.4923V9.50769C3 7.36249 3.4248 5.68074 4.55277 4.55277ZM15.9231 3.69231C15.9231 3.30996 16.233 3 16.6154 3H20.3077C20.69 3 21 3.30996 21 3.69231V7.38462C21 7.76697 20.69 8.07692 20.3077 8.07692C19.9253 8.07692 19.6154 7.76697 19.6154 7.38462V5.36369L13.4126 11.5665C13.1423 11.8368 12.7039 11.8368 12.4335 11.5665C12.1632 11.2961 12.1632 10.8578 12.4335 10.5874L18.6363 4.38462H16.6154C16.233 4.38462 15.9231 4.07466 15.9231 3.69231Z" fill="currentColor"/>
</svg>
