<svg width="24" height="24" viewBox="0 0 24 24" fill="none" xmlns="http://www.w3.org/2000/svg">
<path fill-rule="evenodd" clip-rule="evenodd" d="M11.9995 9.31953C10.5166 9.31953 9.31953 10.5166 9.31953 11.9995C9.31953 12.4119 9.41175 12.8005 9.57788 13.1484L13.1484 9.57788C12.8005 9.41175 12.4119 9.31953 11.9995 9.31953ZM7.51953 11.9995C7.51953 9.52247 9.52247 7.51953 11.9995 7.51953C13.2389 7.51953 14.3548 8.02206 15.1659 8.83314C15.5174 9.18461 15.5174 9.75446 15.1659 10.1059L10.1059 15.1659C9.75446 15.5174 9.18461 15.5174 8.83314 15.1659C8.02206 14.3548 7.51953 13.2389 7.51953 11.9995Z" fill="currentColor"/>
<path fill-rule="evenodd" clip-rule="evenodd" d="M2.13045 8.92644C4.54155 5.1364 8.08788 2.83008 11.9995 2.83008C14.285 2.83008 16.472 3.62641 18.3614 5.05156C18.7583 5.35088 18.8373 5.91522 18.538 6.31205C18.2387 6.70887 17.6743 6.78792 17.2775 6.4886C15.6669 5.27375 13.8539 4.63008 11.9995 4.63008C8.85123 4.63008 5.81773 6.48352 3.64884 9.89313L3.64808 9.89431C3.31258 10.4199 3.11445 11.1852 3.11445 12.0051C3.11445 12.825 3.31258 13.5902 3.64808 14.1158L3.6485 14.1165C4.39502 15.2883 5.25838 16.2897 6.18629 17.0877C6.56315 17.4118 6.60592 17.9801 6.28182 18.3569C5.95772 18.7338 5.38948 18.7765 5.01262 18.4524C3.94052 17.5304 2.96388 16.3919 2.13041 15.0837C1.5662 14.1994 1.31445 13.0749 1.31445 12.0051C1.31445 10.9352 1.56621 9.81073 2.13045 8.92644Z" fill="currentColor"/>
<path fill-rule="evenodd" clip-rule="evenodd" d="M19.4857 7.22901C19.873 6.91748 20.4395 6.97891 20.7511 7.36622C21.1377 7.84694 21.5183 8.36437 21.8697 8.91806C22.4333 9.80214 22.6848 10.926 22.6848 11.9953C22.6848 13.0652 22.433 14.1897 21.8688 15.0739C19.4577 18.864 15.9113 21.1703 11.9998 21.1703C10.6419 21.1703 9.31356 20.8832 8.07051 20.3598C7.61241 20.1669 7.39741 19.6392 7.59029 19.1811C7.78318 18.723 8.31091 18.5079 8.76902 18.7008C9.80597 19.1374 10.8976 19.3703 11.9998 19.3703C15.148 19.3703 18.1815 17.5169 20.3504 14.1073L20.3511 14.1061C20.6866 13.5805 20.8848 12.8152 20.8848 11.9953C20.8848 11.1754 20.6866 10.4102 20.3511 9.88454L20.3499 9.88255C20.0413 9.39624 19.7018 8.93367 19.3485 8.49439C19.0369 8.10707 19.0984 7.54055 19.4857 7.22901Z" fill="currentColor"/>
<path fill-rule="evenodd" clip-rule="evenodd" d="M15.6734 11.8149C16.1622 11.905 16.4854 12.3744 16.3953 12.8632C16.0676 14.6402 14.6304 16.0774 12.8534 16.405C12.3646 16.4952 11.8953 16.172 11.8051 15.6832C11.715 15.1944 12.0382 14.725 12.527 14.6349C13.57 14.4426 14.4328 13.5797 14.6251 12.5368C14.7153 12.0479 15.1846 11.7247 15.6734 11.8149Z" fill="currentColor"/>
<path fill-rule="evenodd" clip-rule="evenodd" d="M10.106 13.8935C10.4575 14.245 10.4575 14.8148 10.106 15.1663L2.63601 22.6363C2.28453 22.9878 1.71469 22.9878 1.36321 22.6363C1.01174 22.2848 1.01174 21.715 1.36321 21.3635L8.83321 13.8935C9.18469 13.542 9.75453 13.542 10.106 13.8935Z" fill="currentColor"/>
<path fill-rule="evenodd" clip-rule="evenodd" d="M22.6363 1.36321C22.9878 1.71469 22.9878 2.28453 22.6363 2.63601L15.1663 10.106C14.8148 10.4575 14.245 10.4575 13.8935 10.106C13.542 9.75453 13.542 9.18469 13.8935 8.83321L21.3635 1.36321C21.715 1.01174 22.2848 1.01174 22.6363 1.36321Z" fill="currentColor"/>
</svg>
