<svg width="24" height="24" viewBox="0 0 24 24" fill="none" xmlns="http://www.w3.org/2000/svg">
<path fill-rule="evenodd" clip-rule="evenodd" d="M12 9.3C10.506 9.3 9.3 10.506 9.3 12C9.3 13.494 10.506 14.7 12 14.7C13.494 14.7 14.7 13.494 14.7 12C14.7 10.506 13.494 9.3 12 9.3ZM7.5 12C7.5 9.51188 9.51188 7.5 12 7.5C14.4881 7.5 16.5 9.51188 16.5 12C16.5 14.4881 14.4881 16.5 12 16.5C9.51188 16.5 7.5 14.4881 7.5 12Z" fill="currentColor"/>
<path fill-rule="evenodd" clip-rule="evenodd" d="M2.29591 8.89405C4.65701 5.05393 8.14036 2.7002 12 2.7002C15.8598 2.7002 19.3433 5.05417 21.7045 8.89463C22.2548 9.7874 22.5 10.9215 22.5 12.0002C22.5 13.0792 22.2547 14.2135 21.7041 15.1063C19.343 18.9465 15.8596 21.3002 12 21.3002C8.14016 21.3002 4.65665 18.9462 2.29554 15.1058C1.74518 14.213 1.5 13.0789 1.5 12.0002C1.5 10.9212 1.74529 9.7869 2.29591 8.89405ZM12 4.5002C8.93331 4.5002 5.96123 6.36906 3.82893 9.83736L3.82821 9.83853C3.49609 10.3769 3.3 11.1609 3.3 12.0002C3.3 12.8395 3.49609 13.6235 3.82821 14.1619L3.82893 14.163C5.96123 17.6313 8.93332 19.5002 12 19.5002C15.0667 19.5002 18.0388 17.6313 20.1711 14.163L20.1718 14.1619C20.5039 13.6235 20.7 12.8395 20.7 12.0002C20.7 11.1609 20.5039 10.3769 20.1718 9.83853L20.1711 9.83736C18.0388 6.36906 15.0667 4.5002 12 4.5002Z" fill="currentColor"/>
</svg>
