<svg width="24" height="24" viewBox="0 0 24 24" fill="none" xmlns="http://www.w3.org/2000/svg">
<path fill-rule="evenodd" clip-rule="evenodd" d="M2.88294 11.7186C3.59955 10.6813 4.92917 10.2236 7 10.2236H17C19.0708 10.2236 20.4005 10.6813 21.1171 11.7186C21.4601 12.2152 21.6103 12.7762 21.6812 13.3192C21.75 13.8464 21.75 14.4139 21.75 14.9466V15.9736C21.75 17.4203 21.4926 18.883 20.5775 19.9872C19.6386 21.1201 18.1387 21.7236 16 21.7236H8C5.4289 21.7236 3.84938 21.1533 3.00787 19.9348C2.60235 19.3476 2.42097 18.6789 2.33444 18.0164C2.24997 17.3696 2.24998 16.6711 2.25 16.0015L2.25 14.9466C2.24998 14.4139 2.24996 13.8464 2.31882 13.3192C2.38972 12.7762 2.53985 12.2152 2.88294 11.7186ZM3.80619 13.5134C3.75121 13.9344 3.75 14.4092 3.75 14.9736V15.9736C3.75 16.6756 3.75121 17.2816 3.82181 17.8221C3.89153 18.3559 4.02265 18.7646 4.24214 19.0824C4.65062 19.6739 5.57111 20.2236 8 20.2236H16C17.8613 20.2236 18.8614 19.7072 19.4225 19.0301C20.0074 18.3243 20.25 17.287 20.25 15.9736V14.9736C20.25 14.4092 20.2488 13.9344 20.1938 13.5134C20.1397 13.0991 20.0399 12.7983 19.8829 12.5712C19.5995 12.161 18.9292 11.7236 17 11.7236H7C5.07083 11.7236 4.40046 12.161 4.11707 12.5712C3.96015 12.7983 3.86029 13.0991 3.80619 13.5134Z" fill="currentColor"/>
<path fill-rule="evenodd" clip-rule="evenodd" d="M16.3658 2.76129C16.3895 2.76184 16.466 2.76364 16.5206 2.77125C17.3467 2.88641 17.9994 3.22495 18.4905 3.72935C18.9711 4.22306 19.2589 4.83615 19.4358 5.44972C19.7558 6.55978 19.7527 7.83496 19.7504 8.7553C19.7502 8.8303 19.75 8.90294 19.75 8.97295V10.9729C19.75 11.3872 19.4142 11.7229 19 11.7229C18.5858 11.7229 18.25 11.3872 18.25 10.9729V8.97295C18.25 8.91277 18.2501 8.8521 18.2501 8.79099C18.2512 7.82866 18.2524 6.75966 17.9945 5.86529C17.8612 5.40303 17.671 5.03795 17.4157 4.77568C17.1757 4.52914 16.8432 4.33669 16.3444 4.26136C16.3379 4.26114 16.3296 4.26088 16.3192 4.26059C16.2779 4.25945 16.2178 4.25812 16.1395 4.25663C15.9834 4.25368 15.7612 4.25024 15.4869 4.24661C14.9386 4.23937 14.185 4.23143 13.3406 4.22519C11.6505 4.2127 9.60326 4.20702 8.11137 4.22695C7.51603 4.2349 7.11805 4.40679 6.83176 4.64577C6.53394 4.89438 6.30277 5.26169 6.13175 5.73916C5.78139 6.71735 5.75 7.95544 5.75 8.97295V10.9729C5.75 11.3872 5.41421 11.7229 5 11.7229C4.58579 11.7229 4.25 11.3872 4.25 10.9729V8.97295C4.25 7.98045 4.26929 6.49061 4.7196 5.23336C4.94893 4.5931 5.3056 3.96581 5.87053 3.49424C6.447 3.01303 7.18668 2.73917 8.09134 2.72708C9.59945 2.70694 11.6594 2.71272 13.3517 2.72523C14.1986 2.73149 14.9551 2.73945 15.5067 2.74674C15.7824 2.75038 16.0077 2.75387 16.1679 2.7569C16.2477 2.75842 16.3129 2.75985 16.3606 2.76116C16.3618 2.7612 16.3636 2.76124 16.3658 2.76129Z" fill="currentColor"/>
<path fill-rule="evenodd" clip-rule="evenodd" d="M9.25 15.9736C9.25 15.5594 9.58579 15.2236 10 15.2236H14C14.4142 15.2236 14.75 15.5594 14.75 15.9736C14.75 16.3878 14.4142 16.7236 14 16.7236H10C9.58579 16.7236 9.25 16.3878 9.25 15.9736Z" fill="currentColor"/>
<path fill-rule="evenodd" clip-rule="evenodd" d="M12 13.2236C12.4142 13.2236 12.75 13.5594 12.75 13.9736V17.9736C12.75 18.3878 12.4142 18.7236 12 18.7236C11.5858 18.7236 11.25 18.3878 11.25 17.9736V13.9736C11.25 13.5594 11.5858 13.2236 12 13.2236Z" fill="currentColor"/>
</svg>
