<svg width="24" height="24" viewBox="0 0 24 24" fill="none" xmlns="http://www.w3.org/2000/svg">
<path fill-rule="evenodd" clip-rule="evenodd" d="M12 2.75C6.89137 2.75 2.75 6.89137 2.75 12C2.75 17.1086 6.89137 21.25 12 21.25C17.1086 21.25 21.25 17.1086 21.25 12C21.25 6.89137 17.1086 2.75 12 2.75ZM1.25 12C1.25 6.06294 6.06294 1.25 12 1.25C17.9371 1.25 22.75 6.06294 22.75 12C22.75 17.9371 17.9371 22.75 12 22.75C6.06294 22.75 1.25 17.9371 1.25 12Z" fill="currentColor"/>
<path fill-rule="evenodd" clip-rule="evenodd" d="M7.24961 3C7.24961 2.58579 7.5854 2.25 7.99961 2.25H8.99961C9.24076 2.25 9.4672 2.36596 9.60815 2.56162C9.74911 2.75729 9.78738 3.0088 9.711 3.23754C7.81248 8.92336 7.81248 15.0766 9.711 20.7625C9.78738 20.9912 9.74911 21.2427 9.60815 21.4384C9.4672 21.634 9.24076 21.75 8.99961 21.75H7.99961C7.5854 21.75 7.24961 21.4142 7.24961 21C7.24961 20.593 7.57375 20.2618 7.97794 20.2503C6.39017 14.8661 6.39017 9.13389 7.97794 3.74969C7.57375 3.73823 7.24961 3.40697 7.24961 3Z" fill="currentColor"/>
<path fill-rule="evenodd" clip-rule="evenodd" d="M14.7627 2.28881C15.1556 2.15763 15.5804 2.36978 15.7116 2.76267C17.7131 8.75684 17.7131 15.2436 15.7116 21.2377C15.5804 21.6306 15.1556 21.8428 14.7627 21.7116C14.3698 21.5804 14.1576 21.1556 14.2888 20.7627C16.1873 15.0768 16.1873 8.92357 14.2888 3.23774C14.1576 2.84485 14.3698 2.42 14.7627 2.28881Z" fill="currentColor"/>
<path fill-rule="evenodd" clip-rule="evenodd" d="M2.56162 14.3915C2.75729 14.2505 3.0088 14.2122 3.23754 14.2886C8.92336 16.1871 15.0766 16.1871 20.7625 14.2886C20.9912 14.2122 21.2427 14.2505 21.4384 14.3915C21.634 14.5324 21.75 14.7589 21.75 15V16C21.75 16.4142 21.4142 16.75 21 16.75C20.593 16.75 20.2618 16.4259 20.2503 16.0217C14.8661 17.6094 9.13389 17.6094 3.74969 16.0217C3.73823 16.4259 3.40697 16.75 3 16.75C2.58579 16.75 2.25 16.4142 2.25 16V15C2.25 14.7589 2.36596 14.5324 2.56162 14.3915Z" fill="currentColor"/>
<path fill-rule="evenodd" clip-rule="evenodd" d="M20.7627 9.711C15.0768 7.81248 8.92357 7.81248 3.23774 9.711C2.84485 9.84219 2.42 9.63004 2.28881 9.23715C2.15763 8.84426 2.36978 8.41941 2.76267 8.28822C8.75684 6.28674 15.2436 6.28674 21.2377 8.28822C21.6306 8.41941 21.8428 8.84426 21.7116 9.23715C21.5804 9.63004 21.1556 9.84219 20.7627 9.711Z" fill="currentColor"/>
</svg>
