<svg width="24" height="24" viewBox="0 0 24 24" fill="none" xmlns="http://www.w3.org/2000/svg">
<path fill-rule="evenodd" clip-rule="evenodd" d="M3.09467 3.09467C4.42914 1.7602 6.42603 1.25 9 1.25H15C17.574 1.25 19.5709 1.7602 20.9053 3.09467C22.2398 4.42914 22.75 6.42603 22.75 9V15C22.75 17.574 22.2398 19.5709 20.9053 20.9053C19.5709 22.2398 17.574 22.75 15 22.75H9C6.42603 22.75 4.42914 22.2398 3.09467 20.9053C1.7602 19.5709 1.25 17.574 1.25 15V9C1.25 6.42603 1.7602 4.42914 3.09467 3.09467ZM4.15533 4.15533C3.2398 5.07086 2.75 6.57397 2.75 9V15C2.75 17.426 3.2398 18.9291 4.15533 19.8447C5.07086 20.7602 6.57397 21.25 9 21.25H15C17.426 21.25 18.9291 20.7602 19.8447 19.8447C20.7602 18.9291 21.25 17.426 21.25 15V9C21.25 6.57397 20.7602 5.07086 19.8447 4.15533C18.9291 3.2398 17.426 2.75 15 2.75H9C6.57397 2.75 5.07086 3.2398 4.15533 4.15533Z" fill="currentColor"/>
<path fill-rule="evenodd" clip-rule="evenodd" d="M12.75 7.5C12.75 5.98579 13.9858 4.75 15.5 4.75C17.0142 4.75 18.25 5.98579 18.25 7.5V16.5C18.25 18.0142 17.0142 19.25 15.5 19.25C13.9733 19.25 12.75 18.0118 12.75 16.5V7.5ZM15.5 6.25C14.8142 6.25 14.25 6.81421 14.25 7.5V16.5C14.25 17.1882 14.8067 17.75 15.5 17.75C16.1858 17.75 16.75 17.1858 16.75 16.5V7.5C16.75 6.81421 16.1858 6.25 15.5 6.25Z" fill="currentColor"/>
<path fill-rule="evenodd" clip-rule="evenodd" d="M5.75 13C5.75 11.4858 6.98579 10.25 8.5 10.25C10.0142 10.25 11.25 11.4858 11.25 13V16.5C11.25 18.0142 10.0142 19.25 8.5 19.25C6.97335 19.25 5.75 18.0118 5.75 16.5V13ZM8.5 11.75C7.81421 11.75 7.25 12.3142 7.25 13V16.5C7.25 17.1882 7.80665 17.75 8.5 17.75C9.18579 17.75 9.75 17.1858 9.75 16.5V13C9.75 12.3142 9.18579 11.75 8.5 11.75Z" fill="currentColor"/>
</svg>
