<svg width="24" height="24" viewBox="0 0 24 24" fill="none" xmlns="http://www.w3.org/2000/svg">
<path fill-rule="evenodd" clip-rule="evenodd" d="M12 2.75C6.89421 2.75 2.75 6.89421 2.75 12C2.75 17.1058 6.89421 21.25 12 21.25C17.1058 21.25 21.25 17.1058 21.25 12C21.25 6.89421 17.1058 2.75 12 2.75ZM1.25 12C1.25 6.06579 6.06579 1.25 12 1.25C17.9342 1.25 22.75 6.06579 22.75 12C22.75 17.9342 17.9342 22.75 12 22.75C6.06579 22.75 1.25 17.9342 1.25 12Z" fill="currentColor"/>
<path fill-rule="evenodd" clip-rule="evenodd" d="M11.6299 6.75977C12.0441 6.75977 12.3799 7.09555 12.3799 7.50977V11.6098C12.3799 11.7633 12.4385 11.9859 12.5689 12.2145C12.6993 12.4431 12.8609 12.6067 12.9922 12.6845L12.9942 12.6857L12.9942 12.6857L16.0942 14.5357C16.4499 14.748 16.5662 15.2084 16.3539 15.5641C16.1417 15.9198 15.6812 16.0361 15.3255 15.8238L12.2275 13.975C12.2272 13.9748 12.2268 13.9746 12.2265 13.9744C11.8183 13.7322 11.4903 13.3511 11.2659 12.9576C11.0412 12.5637 10.8799 12.0862 10.8799 11.6098V7.50977C10.8799 7.09555 11.2157 6.75977 11.6299 6.75977Z" fill="currentColor"/>
</svg>
