<svg width="24" height="24" viewBox="0 0 24 24" fill="none" xmlns="http://www.w3.org/2000/svg">
<path fill-rule="evenodd" clip-rule="evenodd" d="M10.8703 1.97302C11.5225 1.42176 12.4774 1.42175 13.1296 1.97301L21.1297 8.73462C21.5231 9.06713 21.75 9.55608 21.75 10.0712V20.895C21.75 21.8615 20.9665 22.645 20 22.645H16.0001C15.0336 22.645 14.2501 21.8615 14.2501 20.895V14.703C14.2501 14.5649 14.1382 14.453 14.0001 14.453H10.0001C9.86198 14.453 9.75005 14.5649 9.75005 14.703V20.895C9.75005 21.8615 8.96655 22.645 8.00005 22.645H4C3.0335 22.645 2.25 21.8615 2.25 20.895V10.0712C2.25 9.55608 2.47693 9.06714 2.87034 8.73463L10.8703 1.97302ZM12.1613 3.11863C12.0681 3.03988 11.9317 3.03988 11.8385 3.11863L3.83862 9.88024C3.78242 9.92774 3.75 9.99759 3.75 10.0712V20.895C3.75 21.033 3.86193 21.145 4 21.145H8.00005C8.13812 21.145 8.25005 21.033 8.25005 20.895V14.703C8.25005 13.7365 9.03355 12.953 10.0001 12.953H14.0001C14.9666 12.953 15.7501 13.7365 15.7501 14.703V20.895C15.7501 21.033 15.862 21.145 16.0001 21.145H20C20.1381 21.145 20.25 21.033 20.25 20.895V10.0712C20.25 9.9976 20.2176 9.92775 20.1614 9.88025L12.1613 3.11863Z" fill="currentColor"/>
</svg>
