<svg width="24" height="24" viewBox="0 0 24 24" fill="none" xmlns="http://www.w3.org/2000/svg">
<path fill-rule="evenodd" clip-rule="evenodd" d="M7.5 3.75C4.8851 3.75 2.75 5.89333 2.75 8.5C2.75 9.6462 3.16303 10.6984 3.84666 11.5205C4.1115 11.8389 4.06802 12.3118 3.74954 12.5767C3.43106 12.8415 2.95818 12.798 2.69333 12.4795C1.79696 11.4016 1.25 10.0138 1.25 8.5C1.25 5.06667 4.0549 2.25 7.5 2.25H12.5C15.9342 2.25 18.75 5.06579 18.75 8.5C18.75 11.9333 15.9451 14.75 12.5 14.75H10C9.58579 14.75 9.25 14.4142 9.25 14C9.25 13.5858 9.58579 13.25 10 13.25H12.5C15.1149 13.25 17.25 11.1067 17.25 8.5C17.25 5.89421 15.1058 3.75 12.5 3.75H7.5Z" fill="currentColor"/>
<path fill-rule="evenodd" clip-rule="evenodd" d="M11.5 10.75C8.8851 10.75 6.75 12.8933 6.75 15.5C6.75 18.1058 8.89421 20.25 11.5 20.25H16.5C19.1149 20.25 21.25 18.1067 21.25 15.5C21.25 14.3538 20.837 13.3016 20.1533 12.4795C19.8885 12.1611 19.932 11.6882 20.2505 11.4233C20.5689 11.1585 21.0418 11.202 21.3067 11.5205C22.203 12.5984 22.75 13.9862 22.75 15.5C22.75 18.9333 19.9451 21.75 16.5 21.75H11.5C8.06579 21.75 5.25 18.9342 5.25 15.5C5.25 12.0667 8.0549 9.25 11.5 9.25H14C14.4142 9.25 14.75 9.58579 14.75 10C14.75 10.4142 14.4142 10.75 14 10.75H11.5Z" fill="currentColor"/>
</svg>
