<svg width="24" height="24" viewBox="0 0 24 24" fill="none" xmlns="http://www.w3.org/2000/svg">
<path fill-rule="evenodd" clip-rule="evenodd" d="M15.6932 8.83609C15.7288 8.4234 16.0921 8.11766 16.5048 8.1532C18.4168 8.31784 19.9142 8.90578 20.9079 10.1304C21.8847 11.3343 22.2605 13.0168 22.2605 15.1104V15.2404C22.2605 17.5496 21.8027 19.3614 20.587 20.577C19.3714 21.7926 17.5596 22.2504 15.2505 22.2504H8.74047C6.43129 22.2504 4.61952 21.7926 3.40389 20.577C2.18826 19.3614 1.73047 17.5496 1.73047 15.2404V15.1104C1.73047 13.032 2.10117 11.3596 3.06232 10.1582C4.0408 8.93506 5.5164 8.33934 7.40086 8.16367C7.81328 8.12523 8.17878 8.4284 8.21723 8.84082C8.25568 9.25325 7.95251 9.61875 7.54008 9.6572C5.88454 9.81153 4.86514 10.3058 4.23362 11.0952C3.58476 11.9063 3.23047 13.1689 3.23047 15.1104V15.2404C3.23047 17.4013 3.66768 18.7195 4.46455 19.5164C5.26142 20.3132 6.57964 20.7504 8.74047 20.7504H15.2505C17.4113 20.7504 18.7295 20.3132 19.5264 19.5164C20.3233 18.7195 20.7605 17.4013 20.7605 15.2404V15.1104C20.7605 13.1541 20.4012 11.8866 19.7431 11.0755C19.1017 10.2851 18.0642 9.79303 16.3761 9.64767C15.9634 9.61213 15.6577 9.24878 15.6932 8.83609Z" fill="currentColor"/>
<path fill-rule="evenodd" clip-rule="evenodd" d="M12 1.25C12.4142 1.25 12.75 1.58579 12.75 2V14.88C12.75 15.2942 12.4142 15.63 12 15.63C11.5858 15.63 11.25 15.2942 11.25 14.88V2C11.25 1.58579 11.5858 1.25 12 1.25Z" fill="currentColor"/>
<path fill-rule="evenodd" clip-rule="evenodd" d="M8.12006 12.1201C8.41295 11.8272 8.88783 11.8272 9.18072 12.1201L12.0004 14.9397L14.8201 12.1201C15.113 11.8272 15.5878 11.8272 15.8807 12.1201C16.1736 12.413 16.1736 12.8878 15.8807 13.1807L12.5307 16.5307C12.2378 16.8236 11.763 16.8236 11.4701 16.5307L8.12006 13.1807C7.82717 12.8878 7.82717 12.413 8.12006 12.1201Z" fill="currentColor"/>
</svg>
