<svg width="24" height="24" viewBox="0 0 24 24" fill="none" xmlns="http://www.w3.org/2000/svg">
<path fill-rule="evenodd" clip-rule="evenodd" d="M12.9249 4.25763C13.7153 4.89898 14.2074 5.93654 14.3527 7.62458C14.3883 8.03727 14.7516 8.34301 15.1643 8.30747C15.577 8.27193 15.8827 7.90858 15.8472 7.49589C15.6826 5.58393 15.0946 4.08649 13.87 3.09284C12.6662 2.11599 10.9837 1.74023 8.88998 1.74023H8.75998C6.4508 1.74023 4.63903 2.19802 3.4234 3.41365C2.20776 4.62929 1.74998 6.44106 1.74998 8.75023V15.2702C1.74998 17.5794 2.20776 19.3912 3.4234 20.6068C4.63903 21.8224 6.4508 22.2802 8.75998 22.2802H8.88998C10.9684 22.2802 12.6408 21.9095 13.8422 20.9484C15.0654 19.9699 15.6611 18.4943 15.8367 16.6098C15.8752 16.1974 15.572 15.8319 15.1596 15.7935C14.7472 15.755 14.3817 16.0582 14.3432 16.4706C14.1889 18.1262 13.6946 19.1456 12.9052 19.7771C12.0941 20.4259 10.8315 20.7802 8.88998 20.7802H8.75998C6.59915 20.7802 5.28092 20.343 4.48405 19.5462C3.68719 18.7493 3.24998 17.4311 3.24998 15.2702V8.75023C3.24998 6.58941 3.68719 5.27118 4.48405 4.47431C5.28092 3.67745 6.59915 3.24023 8.75998 3.24023H8.88998C10.8463 3.24023 12.1138 3.59948 12.9249 4.25763ZM17.6197 8.11957C17.3268 8.41247 17.3268 8.88734 17.6197 9.18023L19.6894 11.25H9C8.58579 11.25 8.25 11.5858 8.25 12C8.25 12.4142 8.58579 12.75 9 12.75H19.6892L17.6197 14.8196C17.3268 15.1125 17.3268 15.5873 17.6197 15.8802C17.9126 16.1731 18.3874 16.1731 18.6803 15.8802L22.0303 12.5302C22.3232 12.2373 22.3232 11.7625 22.0303 11.4696L18.6803 8.11957C18.3874 7.82668 17.9126 7.82668 17.6197 8.11957Z" fill="currentColor"/>
</svg>
