<svg width="24" height="24" viewBox="0 0 24 24" fill="none" xmlns="http://www.w3.org/2000/svg">
<path fill-rule="evenodd" clip-rule="evenodd" d="M5.53033 3.53033C5.01884 4.04182 4.75 4.99464 4.75 7V17C4.75 19.0054 5.01884 19.9582 5.53033 20.4697C6.04182 20.9812 6.99464 21.25 9 21.25H15C17.0054 21.25 17.9582 20.9812 18.4697 20.4697C18.9812 19.9582 19.25 19.0054 19.25 17V7C19.25 4.99464 18.9812 4.04182 18.4697 3.53033C17.9582 3.01884 17.0054 2.75 15 2.75H9C6.99464 2.75 6.04182 3.01884 5.53033 3.53033ZM4.46967 2.46967C5.45818 1.48116 7.00536 1.25 9 1.25H15C16.9946 1.25 18.5418 1.48116 19.5303 2.46967C20.5188 3.45818 20.75 5.00536 20.75 7V17C20.75 18.9946 20.5188 20.5418 19.5303 21.5303C18.5418 22.5188 16.9946 22.75 15 22.75H9C7.00536 22.75 5.45818 22.5188 4.46967 21.5303C3.48116 20.5418 3.25 18.9946 3.25 17V7C3.25 5.00536 3.48116 3.45818 4.46967 2.46967Z" fill="currentColor"/>
<path fill-rule="evenodd" clip-rule="evenodd" d="M9.25 5.5C9.25 5.08579 9.58579 4.75 10 4.75H14C14.4142 4.75 14.75 5.08579 14.75 5.5C14.75 5.91421 14.4142 6.25 14 6.25H10C9.58579 6.25 9.25 5.91421 9.25 5.5Z" fill="currentColor"/>
<path fill-rule="evenodd" clip-rule="evenodd" d="M12.0002 16.75C11.5584 16.75 11.2002 17.1082 11.2002 17.55C11.2002 17.9918 11.5584 18.35 12.0002 18.35C12.442 18.35 12.8002 17.9918 12.8002 17.55C12.8002 17.1082 12.442 16.75 12.0002 16.75ZM9.7002 17.55C9.7002 16.2797 10.7299 15.25 12.0002 15.25C13.2704 15.25 14.3002 16.2797 14.3002 17.55C14.3002 18.8203 13.2705 19.85 12.0002 19.85C10.7299 19.85 9.7002 18.8203 9.7002 17.55Z" fill="currentColor"/>
</svg>
