<svg width="24" height="24" viewBox="0 0 24 24" fill="none" xmlns="http://www.w3.org/2000/svg">
<path fill-rule="evenodd" clip-rule="evenodd" d="M12 24C18.6 24 24 18.6 24 12C24 5.4 18.6 0 12 0C5.4 0 0 5.4 0 12C0 18.6 5.4 24 12 24ZM15.643 9.41705C15.9359 9.12416 15.9359 8.64928 15.643 8.35639C15.3502 8.0635 14.8753 8.0635 14.5824 8.35639L11.9997 10.9391L9.41705 8.35639C9.12416 8.0635 8.64928 8.0635 8.35639 8.35639C8.0635 8.64928 8.0635 9.12416 8.35639 9.41705L10.9391 11.9997L8.35639 14.5824C8.0635 14.8753 8.0635 15.3502 8.35639 15.643C8.64928 15.9359 9.12416 15.9359 9.41705 15.643L11.9997 13.0604L14.5824 15.643C14.8753 15.9359 15.3502 15.9359 15.643 15.643C15.9359 15.3502 15.9359 14.8753 15.643 14.5824L13.0604 11.9997L15.643 9.41705Z" fill="currentColor"/>
</svg>
