<svg width="24" height="24" viewBox="0 0 24 24" fill="none" xmlns="http://www.w3.org/2000/svg">
<path fill-rule="evenodd" clip-rule="evenodd" d="M12 22.5C17.7716 22.5 22.5 17.7716 22.5 12C22.5 6.22843 17.7716 1.5 12 1.5C6.22843 1.5 1.5 6.22843 1.5 12C1.5 17.7716 6.22843 22.5 12 22.5ZM24 12C24 18.6 18.6 24 12 24C5.4 24 0 18.6 0 12C0 5.4 5.4 0 12 0C18.6 0 24 5.4 24 12Z" fill="currentColor"/>
<path fill-rule="evenodd" clip-rule="evenodd" d="M12 6.4502C12.4142 6.4502 12.75 6.78598 12.75 7.2002V13.2002C12.75 13.6144 12.4142 13.9502 12 13.9502C11.5858 13.9502 11.25 13.6144 11.25 13.2002V7.2002C11.25 6.78598 11.5858 6.4502 12 6.4502Z" fill="currentColor"/>
<path fill-rule="evenodd" clip-rule="evenodd" d="M10.9932 16.7998C10.9932 16.2475 11.4409 15.7998 11.9932 15.7998H12.0039C12.5562 15.7998 13.0039 16.2475 13.0039 16.7998C13.0039 17.3521 12.5562 17.7998 12.0039 17.7998H11.9932C11.4409 17.7998 10.9932 17.3521 10.9932 16.7998Z" fill="currentColor"/>
</svg>
