<svg width="24" height="24" viewBox="0 0 24 24" fill="none" xmlns="http://www.w3.org/2000/svg">
<path fill-rule="evenodd" clip-rule="evenodd" d="M12 24C18.6 24 24 18.6 24 12C24 5.4 18.6 0 12 0C5.4 0 0 5.4 0 12C0 18.6 5.4 24 12 24ZM12.0106 8.55625C12.6733 8.55625 13.2106 8.01899 13.2106 7.35625C13.2106 6.69351 12.6733 6.15625 12.0106 6.15625H11.9998C11.3371 6.15625 10.7998 6.69351 10.7998 7.35625C10.7998 8.01899 11.3371 8.55625 11.9998 8.55625H12.0106ZM11.104 16.8002C11.104 17.2973 11.5069 17.7002 12.004 17.7002C12.501 17.7002 12.904 17.2973 12.904 16.8002L12.904 11.0042C12.904 10.5072 12.501 10.1042 12.004 10.1042C11.5069 10.1042 11.104 10.5072 11.104 11.0042L11.104 16.8002Z" fill="currentColor"/>
</svg>
