<svg width="25" height="24" viewBox="0 0 25 24" fill="none" xmlns="http://www.w3.org/2000/svg">
<path fill-rule="evenodd" clip-rule="evenodd" d="M19.2805 5.21983C19.5733 5.51281 19.5732 5.98768 19.2802 6.28049L7.27312 18.2805C7.13239 18.4211 6.94156 18.5001 6.74261 18.5C6.54366 18.4999 6.3529 18.4208 6.2123 18.28L0.219358 12.28C-0.0733629 11.987 -0.0730834 11.5121 0.219982 11.2194C0.513048 10.9266 0.987921 10.9269 1.28064 11.22L6.74341 16.6892L18.2198 5.21951C18.5128 4.92671 18.9877 4.92685 19.2805 5.21983Z" fill="currentColor"/>
<path fill-rule="evenodd" clip-rule="evenodd" d="M24.0305 5.21983C24.3233 5.51281 24.3232 5.98768 24.0302 6.28049L12.0231 18.2805C11.8824 18.4211 11.6916 18.5001 11.4926 18.5C11.2937 18.4999 11.1029 18.4208 10.9623 18.28L4.96936 12.28C4.67664 11.987 4.67692 11.5121 4.96998 11.2194C5.26305 10.9266 5.73792 10.9269 6.03064 11.22L11.4934 16.6892L22.9698 5.21951C23.2628 4.92671 23.7377 4.92685 24.0305 5.21983Z" fill="currentColor"/>
</svg>
