<svg width="24" height="24" viewBox="0 0 24 24" fill="none" xmlns="http://www.w3.org/2000/svg">
<path fill-rule="evenodd" clip-rule="evenodd" d="M12 22.5C17.7716 22.5 22.5 17.7716 22.5 12C22.5 6.22843 17.7716 1.5 12 1.5C6.22843 1.5 1.5 6.22843 1.5 12C1.5 17.7716 6.22843 22.5 12 22.5ZM24 12C24 18.6 18.6 24 12 24C5.4 24 0 18.6 0 12C0 5.4 5.4 0 12 0C18.6 0 24 5.4 24 12Z" fill="currentColor"/>
<path fill-rule="evenodd" clip-rule="evenodd" d="M17.5576 8.49845C17.8346 8.80641 17.8095 9.28062 17.5016 9.55762L10.831 15.5576C10.5456 15.8143 10.1125 15.8141 9.82737 15.5572L6.49796 12.5572C6.19024 12.2799 6.16556 11.8057 6.44283 11.498C6.7201 11.1902 7.19434 11.1656 7.50206 11.4428L10.3299 13.9909L16.4984 8.44239C16.8064 8.16539 17.2806 8.19048 17.5576 8.49845Z" fill="currentColor"/>
</svg>
