<svg width="24" height="24" viewBox="0 0 24 24" fill="none" xmlns="http://www.w3.org/2000/svg">
<path fill-rule="evenodd" clip-rule="evenodd" d="M12 24C18.6 24 24 18.6 24 12C24 5.4 18.6 0 12 0C5.4 0 0 5.4 0 12C0 18.6 5.4 24 12 24ZM12.7496 7.2002C12.7496 6.78598 12.4138 6.4502 11.9996 6.4502C11.5853 6.4502 11.2496 6.78598 11.2496 7.2002V13.2002C11.2496 13.6144 11.5853 13.9502 11.9996 13.9502C12.4138 13.9502 12.7496 13.6144 12.7496 13.2002V7.2002ZM11.9932 15.8002C11.4409 15.8002 10.9932 16.248 10.9932 16.8002C10.9932 17.3525 11.4409 17.8002 11.9932 17.8002H12.0039C12.5562 17.8002 13.0039 17.3525 13.0039 16.8002C13.0039 16.248 12.5562 15.8002 12.0039 15.8002H11.9932Z" fill="currentColor"/>
</svg>
