<svg width="24" height="24" viewBox="0 0 24 24" fill="none" xmlns="http://www.w3.org/2000/svg">
<path fill-rule="evenodd" clip-rule="evenodd" d="M12 1.67442C6.29734 1.67442 1.67442 6.29734 1.67442 12C1.67442 17.7027 6.29734 22.3256 12 22.3256C17.7027 22.3256 22.3256 17.7027 22.3256 12C22.3256 6.29734 17.7027 1.67442 12 1.67442ZM0 12C0 5.37258 5.37258 0 12 0C18.6274 0 24 5.37258 24 12C24 18.6274 18.6274 24 12 24C5.37258 24 0 18.6274 0 12Z" fill="currentColor"/>
<path fill-rule="evenodd" clip-rule="evenodd" d="M12.0043 17.7002C11.5072 17.7002 11.1043 17.2973 11.1043 16.8002L11.1043 11.0042C11.1043 10.5071 11.5072 10.1042 12.0043 10.1042C12.5014 10.1042 12.9043 10.5071 12.9043 11.0042L12.9043 16.8002C12.9043 17.2973 12.5014 17.7002 12.0043 17.7002Z" fill="currentColor"/>
<path fill-rule="evenodd" clip-rule="evenodd" d="M13.2109 7.35566C13.2109 8.01841 12.6737 8.55566 12.0109 8.55566L12.0002 8.55566C11.3374 8.55566 10.8002 8.01841 10.8002 7.35566C10.8002 6.69292 11.3374 6.15566 12.0002 6.15566L12.0109 6.15566C12.6737 6.15566 13.2109 6.69292 13.2109 7.35566Z" fill="currentColor"/>
</svg>
