<svg width="24" height="24" viewBox="0 0 24 24" fill="none" xmlns="http://www.w3.org/2000/svg">
<path fill-rule="evenodd" clip-rule="evenodd" d="M5.26972 8.91016C5.26972 5.18594 8.2955 2.16016 12.0197 2.16016C15.7339 2.16016 18.7697 5.19594 18.7697 8.91016V11.8002C18.7697 12.015 18.8184 12.3295 18.9105 12.6655C19.0015 12.9975 19.1191 13.2925 19.2262 13.4799L20.3728 15.3843C21.2784 16.8935 20.5545 18.8596 18.8863 19.4119C14.4223 20.903 9.60593 20.9029 5.14205 19.4115L5.13927 19.4106C4.29686 19.1254 3.6651 18.5359 3.38264 17.7731C3.09984 17.0094 3.19604 16.1497 3.65708 15.3835L4.80551 13.4761C4.80576 13.4757 4.80601 13.4753 4.80627 13.4748C4.91577 13.2907 5.03573 12.9968 5.12829 12.6633C5.22114 12.3288 5.26972 12.0148 5.26972 11.8002V8.91016ZM12.0197 3.66016C9.12393 3.66016 6.76972 6.01437 6.76972 8.91016V11.8002C6.76972 12.1955 6.68829 12.6515 6.57364 13.0645C6.45892 13.4778 6.29422 13.9082 6.09393 14.2442L6.09225 14.247L4.94236 16.1568C4.94232 16.1569 4.94239 16.1568 4.94236 16.1568C4.6935 16.5705 4.67961 16.956 4.7893 17.2522C4.89922 17.5491 5.16206 17.8343 5.61883 17.9893C9.77417 19.3773 14.2568 19.3771 18.4121 17.9888L18.4143 17.9881C19.1651 17.7399 19.5007 16.8469 19.0869 16.1566C19.0868 16.1564 19.087 16.1567 19.0869 16.1566L17.93 14.235C17.7379 13.902 17.577 13.4745 17.4639 13.0623C17.3511 12.6508 17.2697 12.1953 17.2697 11.8002V8.91016C17.2697 6.02437 14.9055 3.66016 12.0197 3.66016Z" fill="currentColor"/>
<path fill-rule="evenodd" clip-rule="evenodd" d="M9.47164 2.92677C9.87109 1.90749 10.8628 1.19043 12.0199 1.19043C13.1771 1.19043 14.1688 1.90749 14.5682 2.92677C14.6725 3.19285 14.6165 3.49506 14.4238 3.70611C14.2311 3.91716 13.9353 4.00037 13.6608 3.92069C13.3834 3.84015 13.1034 3.77937 12.8197 3.74498L12.8169 3.74464C11.9525 3.63659 11.1357 3.70072 10.3793 3.92062C10.1048 4.0004 9.80888 3.91725 9.61614 3.7062C9.42339 3.49515 9.36736 3.19289 9.47164 2.92677Z" fill="currentColor"/>
<path fill-rule="evenodd" clip-rule="evenodd" d="M9.76953 19.0596C9.76953 19.6721 10.0243 20.2437 10.4299 20.6492C10.8354 21.0548 11.407 21.3096 12.0195 21.3096C13.2553 21.3096 14.2695 20.2954 14.2695 19.0596H15.7695C15.7695 21.1238 14.0837 22.8096 12.0195 22.8096C10.992 22.8096 10.0437 22.3844 9.3692 21.7099C8.69473 21.0354 8.26953 20.0871 8.26953 19.0596H9.76953Z" fill="currentColor"/>
</svg>
