<svg width="24" height="24" viewBox="0 0 24 24" fill="none" xmlns="http://www.w3.org/2000/svg">
<path fill-rule="evenodd" clip-rule="evenodd" d="M12 24C18.6 24 24 18.6 24 12C24 5.4 18.6 0 12 0C5.4 0 0 5.4 0 12C0 18.6 5.4 24 12 24ZM17.5016 9.55762C17.8095 9.28062 17.8346 8.80641 17.5576 8.49845C17.2806 8.19048 16.8064 8.16539 16.4984 8.44239L10.3299 13.9909L7.50206 11.4428C7.19434 11.1656 6.7201 11.1902 6.44283 11.498C6.16556 11.8057 6.19024 12.2799 6.49796 12.5572L9.82737 15.5572C10.1125 15.8141 10.5456 15.8143 10.831 15.5576L17.5016 9.55762Z" fill="currentColor"/>
</svg>
