<svg width="24" height="24" viewBox="0 0 24 24" fill="none" xmlns="http://www.w3.org/2000/svg">
<path fill-rule="evenodd" clip-rule="evenodd" d="M12 21.5C17.2216 21.5 21.5 17.2216 21.5 12C21.5 6.77843 17.2216 2.5 12 2.5C6.77843 2.5 2.5 6.77843 2.5 12C2.5 17.2216 6.77843 21.5 12 21.5ZM23 12C23 18.05 18.05 23 12 23C5.95 23 1 18.05 1 12C1 5.95 5.95 1 12 1C18.05 1 23 5.95 23 12Z" fill="currentColor"/>
<path fill-rule="evenodd" clip-rule="evenodd" d="M15.643 8.35639C15.9359 8.64928 15.9359 9.12416 15.643 9.41705L9.41705 15.643C9.12416 15.9359 8.64928 15.9359 8.35639 15.643C8.0635 15.3502 8.0635 14.8753 8.35639 14.5824L14.5824 8.35639C14.8753 8.0635 15.3502 8.0635 15.643 8.35639Z" fill="currentColor"/>
<path fill-rule="evenodd" clip-rule="evenodd" d="M8.35639 8.35639C8.64928 8.0635 9.12416 8.0635 9.41705 8.35639L15.643 14.5824C15.9359 14.8753 15.9359 15.3502 15.643 15.643C15.3502 15.9359 14.8753 15.9359 14.5824 15.643L8.35639 9.41705C8.0635 9.12416 8.0635 8.64928 8.35639 8.35639Z" fill="currentColor"/>
</svg>
