<svg width="24" height="24" viewBox="0 0 24 24" fill="none" xmlns="http://www.w3.org/2000/svg">
<path fill-rule="evenodd" clip-rule="evenodd" d="M3.43029 5.11411C2.85534 5.64799 2.45996 6.52244 2.45996 7.91949V13.0695C2.45996 14.0798 2.66699 14.8136 2.99072 15.3382C3.30881 15.8536 3.77032 16.2178 4.37926 16.4458C4.56718 16.514 4.75881 16.5686 4.94845 16.599C4.96392 16.6014 4.97931 16.6044 4.99459 16.6078C5.32974 16.6832 5.70302 16.7195 6.10995 16.7195H14.9C16.105 16.7195 16.9946 16.4181 17.5796 15.8749C18.1546 15.341 18.55 14.4666 18.55 13.0695V7.91949C18.55 7.50856 18.5069 7.14616 18.4427 6.77723C18.26 5.86392 17.8473 5.26627 17.2924 4.8828C16.7194 4.48692 15.9215 4.26953 14.9 4.26953H6.10995C4.90492 4.26953 4.01531 4.57089 3.43029 5.11411ZM2.40962 4.01492C3.36461 3.12815 4.67499 2.76953 6.10995 2.76953H14.9C16.1184 2.76953 17.2455 3.02714 18.1451 3.64876C19.061 4.28166 19.6675 5.24161 19.9157 6.49374L19.9187 6.51024C19.9937 6.9384 20.05 7.39355 20.05 7.91949V13.0695C20.05 14.7525 19.5653 16.078 18.6003 16.9741C17.6453 17.8609 16.3349 18.2195 14.9 18.2195H6.10995C5.62486 18.2195 5.14592 18.1772 4.68789 18.0763C4.3875 18.0263 4.10839 17.9434 3.86366 17.8544L3.85764 17.8522L3.85765 17.8522C2.96808 17.5201 2.22559 16.9546 1.71421 16.1259C1.20793 15.3055 0.959961 14.2793 0.959961 13.0695V7.91949C0.959961 6.23655 1.44457 4.91102 2.40962 4.01492Z" fill="currentColor"/>
<path fill-rule="evenodd" clip-rule="evenodd" d="M18.6521 6.10796C18.8313 5.92969 19.0882 5.85368 19.3356 5.90575C20.4226 6.1346 21.3744 6.64759 22.0472 7.51874C22.7167 8.38572 23.0511 9.53122 23.0511 10.9196V16.0697C23.0511 17.7526 22.5665 19.0781 21.6014 19.9742C20.6464 20.861 19.336 21.2196 17.9011 21.2196H9.11107C8.30814 21.2196 7.54414 21.1118 6.85801 20.852C5.41264 20.3166 4.4334 19.1873 4.09544 17.4858C4.046 17.2369 4.12578 16.9799 4.30747 16.8027C4.48916 16.6255 4.74812 16.5523 4.9957 16.608C5.33085 16.6834 5.70413 16.7196 6.11107 16.7196H14.9011C16.1061 16.7196 16.9957 16.4183 17.5807 15.875C18.1557 15.3412 18.5511 14.4667 18.5511 13.0697V7.91963C18.5511 7.49263 18.5148 7.12383 18.4464 6.79037C18.3956 6.54276 18.4729 6.28623 18.6521 6.10796ZM20.0493 7.74337C20.0505 7.80158 20.0511 7.86033 20.0511 7.91963V13.0697C20.0511 14.7526 19.5665 16.0781 18.6014 16.9742C17.6464 17.861 16.336 18.2196 14.9011 18.2196H6.11107C6.0485 18.2196 5.98604 18.2189 5.92372 18.2175C6.25404 18.8222 6.75062 19.2131 7.38118 19.4462L7.38708 19.4484L7.38707 19.4484C7.86019 19.6279 8.43514 19.7196 9.11107 19.7196H17.9011C19.1061 19.7196 19.9957 19.4183 20.5807 18.875C21.1557 18.3412 21.5511 17.4667 21.5511 16.0697V10.9196C21.5511 9.76804 21.2754 8.97355 20.86 8.43555C20.644 8.15585 20.3742 7.92469 20.0493 7.74337Z" fill="currentColor"/>
<path fill-rule="evenodd" clip-rule="evenodd" d="M10.4984 8.60938C9.45459 8.60938 8.6084 9.45557 8.6084 10.4994C8.6084 11.5432 9.45459 12.3894 10.4984 12.3894C11.5422 12.3894 12.3884 11.5432 12.3884 10.4994C12.3884 9.45557 11.5422 8.60938 10.4984 8.60938ZM7.1084 10.4994C7.1084 8.62714 8.62617 7.10938 10.4984 7.10938C12.3707 7.10938 13.8884 8.62714 13.8884 10.4994C13.8884 12.3716 12.3707 13.8894 10.4984 13.8894C8.62617 13.8894 7.1084 12.3716 7.1084 10.4994Z" fill="currentColor"/>
<path fill-rule="evenodd" clip-rule="evenodd" d="M4.78027 7.5498C5.19449 7.5498 5.53027 7.88559 5.53027 8.2998V12.6998C5.53027 13.114 5.19449 13.4498 4.78027 13.4498C4.36606 13.4498 4.03027 13.114 4.03027 12.6998V8.2998C4.03027 7.88559 4.36606 7.5498 4.78027 7.5498Z" fill="currentColor"/>
<path fill-rule="evenodd" clip-rule="evenodd" d="M16.2217 7.55078C16.6359 7.55078 16.9717 7.88657 16.9717 8.30078V12.7008C16.9717 13.115 16.6359 13.4508 16.2217 13.4508C15.8075 13.4508 15.4717 13.115 15.4717 12.7008V8.30078C15.4717 7.88657 15.8075 7.55078 16.2217 7.55078Z" fill="currentColor"/>
</svg>
