<svg width="24" height="24" viewBox="0 0 24 24" fill="none" xmlns="http://www.w3.org/2000/svg">
<path fill-rule="evenodd" clip-rule="evenodd" d="M11.9697 2.75C6.86109 2.75 2.71973 6.89137 2.71973 12C2.71973 17.1086 6.86109 21.25 11.9697 21.25C17.0784 21.25 21.2197 17.1086 21.2197 12C21.2197 6.89137 17.0784 2.75 11.9697 2.75ZM1.21973 12C1.21973 6.06294 6.03267 1.25 11.9697 1.25C17.9068 1.25 22.7197 6.06294 22.7197 12C22.7197 17.9371 17.9068 22.75 11.9697 22.75C6.03267 22.75 1.21973 17.9371 1.21973 12Z" fill="currentColor"/>
<path fill-rule="evenodd" clip-rule="evenodd" d="M6.78185 15.3843C7.12192 15.1478 7.58931 15.2318 7.82579 15.5719C8.74077 16.8877 10.2745 17.7501 12 17.7501C13.7236 17.7501 15.2495 16.8892 16.1762 15.5692C16.4142 15.2301 16.8819 15.1482 17.2209 15.3862C17.56 15.6242 17.6419 16.092 17.4039 16.431C16.2106 18.1309 14.2365 19.2501 12 19.2501C9.76554 19.2501 7.77929 18.1324 6.59427 16.4282C6.35779 16.0882 6.44177 15.6208 6.78185 15.3843Z" fill="currentColor"/>
</svg>
