<svg width="24" height="24" viewBox="0 0 24 24" fill="none" xmlns="http://www.w3.org/2000/svg">
<path fill-rule="evenodd" clip-rule="evenodd" d="M19.303 4.70961C15.2769 0.666332 8.73146 0.666332 4.70541 4.70961L4.70391 4.71111C0.595311 8.8164 0.666674 15.5175 4.91141 19.5419C8.83072 23.2504 15.1897 23.2492 19.0966 19.5422M20.4876 3.52444C15.8076 -1.17482 8.20079 -1.17481 3.52074 3.52446C-1.25477 8.29696 -1.16959 16.0858 3.7605 20.76L3.76106 20.7605C8.32482 25.0794 15.6944 25.0805 20.2481 20.7597L20.2486 20.7593C25.1668 16.085 25.2517 8.2967 20.4876 3.52444ZM19.0967 19.5421C23.3308 15.5176 23.402 8.81568 19.3037 4.71037L19.303 4.70961" fill="currentColor"/>
<path d="M9 7.73498C9.17639 7.5805 9.36835 7.43376 9.57588 7.29473C9.78859 7.15571 10.0169 7.0347 10.2607 6.93172C10.5045 6.82874 10.7691 6.74893 11.0545 6.69229C11.3398 6.6305 11.6485 6.59961 11.9805 6.59961C12.4319 6.59961 12.8418 6.6614 13.2101 6.78497C13.5837 6.90855 13.9027 7.08619 14.1673 7.3179C14.4319 7.54446 14.6368 7.81993 14.7821 8.14432C14.9274 8.46872 15 8.83172 15 9.23335C15 9.62468 14.9429 9.96451 14.8288 10.2529C14.7147 10.5361 14.5694 10.7832 14.393 10.9943C14.2218 11.2054 14.035 11.3882 13.8327 11.5427C13.6304 11.6972 13.4384 11.8439 13.2568 11.9829C13.0752 12.1168 12.917 12.2507 12.7821 12.3846C12.6524 12.5133 12.5746 12.66 12.5486 12.8248L12.3696 13.9525H11.0545L10.9222 12.6935C10.917 12.6678 10.9144 12.6472 10.9144 12.6317C10.9144 12.6111 10.9144 12.588 10.9144 12.5622C10.9144 12.3357 10.9715 12.14 11.0856 11.9752C11.1997 11.8053 11.3424 11.6483 11.5136 11.5041C11.6848 11.3548 11.869 11.2106 12.0661 11.0716C12.2633 10.9325 12.4475 10.7832 12.6187 10.6236C12.7899 10.4588 12.9326 10.2735 13.0467 10.0675C13.1608 9.86153 13.2179 9.61953 13.2179 9.34148C13.2179 9.15611 13.1816 8.99134 13.1089 8.84717C13.0415 8.69785 12.9455 8.5717 12.821 8.46872C12.6965 8.36059 12.546 8.2782 12.3696 8.22156C12.1984 8.16492 12.0117 8.1366 11.8093 8.1366C11.5136 8.1366 11.262 8.17007 11.0545 8.23701C10.8521 8.2988 10.6783 8.37088 10.5331 8.45327C10.393 8.5305 10.2737 8.60259 10.1751 8.66953C10.0765 8.73132 9.98833 8.76221 9.91051 8.76221C9.72374 8.76221 9.58885 8.68498 9.50584 8.5305L9 7.73498ZM10.4708 16.8411C10.4708 16.6815 10.4994 16.5296 10.5564 16.3854C10.6187 16.2412 10.7017 16.1176 10.8054 16.0147C10.9144 15.9117 11.0415 15.8293 11.1868 15.7675C11.332 15.7057 11.4877 15.6748 11.6537 15.6748C11.8145 15.6748 11.9676 15.7057 12.1128 15.7675C12.2581 15.8293 12.3826 15.9117 12.4864 16.0147C12.5901 16.1176 12.6732 16.2412 12.7354 16.3854C12.7977 16.5296 12.8288 16.6815 12.8288 16.8411C12.8288 17.0058 12.7977 17.1603 12.7354 17.3045C12.6732 17.4435 12.5901 17.5645 12.4864 17.6675C12.3826 17.7705 12.2581 17.8503 12.1128 17.9069C11.9676 17.9687 11.8145 17.9996 11.6537 17.9996C11.4877 17.9996 11.332 17.9687 11.1868 17.9069C11.0415 17.8503 10.9144 17.7705 10.8054 17.6675C10.7017 17.5645 10.6187 17.4435 10.5564 17.3045C10.4994 17.1603 10.4708 17.0058 10.4708 16.8411Z" fill="currentColor"/>
</svg>
