<svg width="24" height="24" viewBox="0 0 24 24" fill="none" xmlns="http://www.w3.org/2000/svg">
<path fill-rule="evenodd" clip-rule="evenodd" d="M14.25 17.5C14.25 17.0858 14.5858 16.75 15 16.75H22C22.4142 16.75 22.75 17.0858 22.75 17.5C22.75 17.9142 22.4142 18.25 22 18.25H15C14.5858 18.25 14.25 17.9142 14.25 17.5Z" fill="currentColor"/>
<path fill-rule="evenodd" clip-rule="evenodd" d="M1.25 17.5C1.25 17.0858 1.58579 16.75 2 16.75H5C5.41421 16.75 5.75 17.0858 5.75 17.5C5.75 17.9142 5.41421 18.25 5 18.25H2C1.58579 18.25 1.25 17.9142 1.25 17.5Z" fill="currentColor"/>
<path fill-rule="evenodd" clip-rule="evenodd" d="M18.25 6.5C18.25 6.08579 18.5858 5.75 19 5.75H22C22.4142 5.75 22.75 6.08579 22.75 6.5C22.75 6.91421 22.4142 7.25 22 7.25H19C18.5858 7.25 18.25 6.91421 18.25 6.5Z" fill="currentColor"/>
<path fill-rule="evenodd" clip-rule="evenodd" d="M1.25 6.5C1.25 6.08579 1.58579 5.75 2 5.75H9C9.41421 5.75 9.75 6.08579 9.75 6.5C9.75 6.91421 9.41421 7.25 9 7.25H2C1.58579 7.25 1.25 6.91421 1.25 6.5Z" fill="currentColor"/>
<path fill-rule="evenodd" clip-rule="evenodd" d="M6.0772 15.5056C5.92258 15.6389 5.75 15.9048 5.75 16.5V18.5C5.75 19.0952 5.92258 19.3611 6.0772 19.4944C6.25257 19.6456 6.54853 19.75 7 19.75H13C13.4515 19.75 13.7474 19.6456 13.9228 19.4944C14.0774 19.3611 14.25 19.0952 14.25 18.5V16.5C14.25 15.9048 14.0774 15.6389 13.9228 15.5056C13.7474 15.3544 13.4515 15.25 13 15.25H7C6.54853 15.25 6.25257 15.3544 6.0772 15.5056ZM5.0978 14.3694C5.64743 13.8956 6.35147 13.75 7 13.75H13C13.6485 13.75 14.3526 13.8956 14.9022 14.3694C15.4726 14.8611 15.75 15.5952 15.75 16.5V18.5C15.75 19.4048 15.4726 20.1389 14.9022 20.6306C14.3526 21.1044 13.6485 21.25 13 21.25H7C6.35147 21.25 5.64743 21.1044 5.0978 20.6306C4.52742 20.1389 4.25 19.4048 4.25 18.5V16.5C4.25 15.5952 4.52742 14.8611 5.0978 14.3694Z" fill="currentColor"/>
<path fill-rule="evenodd" clip-rule="evenodd" d="M10.0772 4.50556C9.92258 4.63885 9.75 4.90484 9.75 5.5V7.5C9.75 8.09516 9.92258 8.36115 10.0772 8.49444C10.2526 8.64562 10.5485 8.75 11 8.75H17C17.4515 8.75 17.7474 8.64562 17.9228 8.49444C18.0774 8.36115 18.25 8.09516 18.25 7.5V5.5C18.25 4.90484 18.0774 4.63885 17.9228 4.50556C17.7474 4.35438 17.4515 4.25 17 4.25H11C10.5485 4.25 10.2526 4.35438 10.0772 4.50556ZM9.0978 3.36944C9.64743 2.89562 10.3515 2.75 11 2.75H17C17.6485 2.75 18.3526 2.89562 18.9022 3.36944C19.4726 3.86115 19.75 4.59516 19.75 5.5V7.5C19.75 8.40484 19.4726 9.13885 18.9022 9.63056C18.3526 10.1044 17.6485 10.25 17 10.25H11C10.3515 10.25 9.64743 10.1044 9.0978 9.63056C8.52742 9.13885 8.25 8.40484 8.25 7.5V5.5C8.25 4.59516 8.52742 3.86115 9.0978 3.36944Z" fill="currentColor"/>
</svg>
