<svg width="24" height="24" viewBox="0 0 24 24" fill="none" xmlns="http://www.w3.org/2000/svg">
<path fill-rule="evenodd" clip-rule="evenodd" d="M11.8203 4.52986C11.8202 4.52994 11.8204 4.52978 11.8203 4.52986L8.2437 8.11649C7.5652 8.80889 6.44754 8.79773 5.76967 8.11986L3.17967 5.52986C3.01863 5.36882 2.89231 5.28334 2.80883 5.24173C2.77904 5.33049 2.75 5.48085 2.75 5.70953V15.2895C2.75 17.6344 4.6536 19.5403 7.00145 19.5495H17C18.3296 19.5495 19.3793 19.1096 20.0947 18.3942C20.8101 17.6788 21.25 16.6291 21.25 15.2995V5.70953C21.25 5.48085 21.221 5.3305 21.1912 5.24173C21.1077 5.28335 20.9814 5.36882 20.8203 5.52986L18.2333 8.11693C17.5547 8.80889 16.4374 8.79759 15.7597 8.11986L12.1628 4.52297C12.081 4.43904 11.9213 4.42915 11.8203 4.52986ZM21.2765 5.20961C21.2765 5.20963 21.276 5.20972 21.275 5.20979L21.2765 5.20961ZM21.1544 5.15986C21.1537 5.15911 21.1534 5.1587 21.1535 5.15868L21.1544 5.15986ZM2.84655 5.15868C2.84656 5.1587 2.84627 5.15909 2.84567 5.1598L2.84655 5.15868ZM2.72483 5.20977C2.72395 5.2097 2.72349 5.20962 2.72349 5.20961L2.72483 5.20977ZM13.2333 3.47219C12.5548 2.78018 11.4374 2.79146 10.7597 3.4692L7.17893 7.05994L7.17283 7.06613C7.09098 7.15014 6.9313 7.16017 6.83033 7.0592L4.24033 4.4692C3.73189 3.96076 2.97981 3.49293 2.21483 3.81064C1.45061 4.12804 1.25 4.99036 1.25 5.70953V15.2895C1.25 18.4643 3.82572 21.038 6.99728 21.0495L7 21.0495H17C18.6704 21.0495 20.1207 20.4894 21.1553 19.4549C22.1899 18.4203 22.75 16.97 22.75 15.2995V5.70953C22.75 4.99037 22.5494 4.12804 21.7852 3.81064C21.0202 3.49293 20.2681 3.96076 19.7597 4.4692L17.1697 7.0592L17.1628 7.06613C17.081 7.15014 16.9213 7.16017 16.8203 7.0592L13.2333 3.47219Z" fill="currentColor"/>
</svg>
