<svg width="24" height="24" viewBox="0 0 24 24" fill="none" xmlns="http://www.w3.org/2000/svg">
<path fill-rule="evenodd" clip-rule="evenodd" d="M4.40039 4C4.40039 3.58579 4.73618 3.25 5.15039 3.25H16.3504C17.0862 3.25 17.7373 3.35099 18.2654 3.57239C18.799 3.79612 19.2492 4.16378 19.4698 4.70408C19.6899 5.24342 19.6265 5.82085 19.4059 6.35395C19.1873 6.88236 18.7986 7.41246 18.2807 7.93033L17.0807 9.13033C16.5525 9.65853 16.6069 10.4528 17.0443 10.8356C17.0568 10.8465 17.069 10.8579 17.0807 10.8697L18.2807 12.0697C19.2683 13.0573 19.8863 14.2369 19.4272 15.3079C18.973 16.3678 17.7039 16.75 16.3504 16.75H5.15039C4.73618 16.75 4.40039 16.4142 4.40039 16C4.40039 15.5858 4.73618 15.25 5.15039 15.25H16.3504C17.5969 15.25 17.9777 14.8822 18.0485 14.7171C18.1145 14.5631 18.1325 14.0427 17.2201 13.1303L16.0362 11.9465C14.8946 10.926 14.9545 9.13519 16.0201 8.06967L17.2201 6.86967C17.6522 6.43754 17.901 6.06764 18.0199 5.78042C18.1368 5.4979 18.1109 5.34408 18.081 5.27092C18.0515 5.19872 17.9642 5.07263 17.6854 4.95574C17.401 4.83651 16.9646 4.75 16.3504 4.75H5.15039C4.73618 4.75 4.40039 4.41421 4.40039 4Z" fill="currentColor"/>
<path fill-rule="evenodd" clip-rule="evenodd" d="M5.15039 1.25C5.5646 1.25 5.90039 1.58579 5.90039 2V22C5.90039 22.4142 5.5646 22.75 5.15039 22.75C4.73618 22.75 4.40039 22.4142 4.40039 22V2C4.40039 1.58579 4.73618 1.25 5.15039 1.25Z" fill="currentColor"/>
</svg>
