<svg width="24" height="24" viewBox="0 0 24 24" fill="none" xmlns="http://www.w3.org/2000/svg">
<path fill-rule="evenodd" clip-rule="evenodd" d="M12.0027 1.24707C12.6109 1.24707 13.2561 1.33129 13.7871 1.52497L13.7934 1.52724L18.7828 3.39707C18.7829 3.39709 18.7828 3.39706 18.7828 3.39707C19.5298 3.67641 20.1665 4.23717 20.6132 4.88288C21.06 5.52873 21.3602 6.32224 21.3602 7.11957V14.5496C21.3602 15.2885 21.1213 16.0873 20.7714 16.7828C20.4214 17.4786 19.9221 18.1471 19.3291 18.5903L15.0308 21.7991C15.0304 21.7994 15.03 21.7997 15.0296 21.8C14.1719 22.4443 13.0734 22.7446 12.0102 22.7446C10.9469 22.7446 9.84852 22.4443 8.99083 21.8001C8.99038 21.7997 8.98993 21.7994 8.98948 21.7991L4.6915 18.5906C4.09851 18.1474 3.59887 17.4786 3.24889 16.7828C2.89905 16.0873 2.66016 15.2885 2.66016 14.5496V7.11957C2.66016 6.32612 2.9611 5.53488 3.40757 4.89097C3.85394 4.24719 4.49005 3.68682 5.23654 3.40743C5.23685 3.40731 5.23717 3.40719 5.23748 3.40707L10.2257 1.52773L10.2277 1.52698C10.7524 1.33104 11.3953 1.24707 12.0027 1.24707ZM10.7535 2.93181C10.7532 2.93193 10.7529 2.93204 10.7526 2.93216L5.76283 4.81207C5.35973 4.9628 4.95118 5.29722 4.64025 5.74567C4.32921 6.19426 4.16016 6.69302 4.16016 7.11957V14.5496C4.16016 14.9906 4.31126 15.5568 4.58892 16.1088C4.86636 16.6604 5.23191 17.1217 5.58881 17.3886M5.58881 17.3886L9.89084 20.6001C10.4429 21.0151 11.209 21.2446 12.0102 21.2446C12.8113 21.2446 13.5774 21.0151 14.1295 20.6001L14.1315 20.5986L18.4312 17.3888C18.7882 17.122 19.1539 16.6605 19.4314 16.1088C19.7091 15.5568 19.8602 14.9906 19.8602 14.5496V7.11957C19.8602 6.6869 19.6903 6.18541 19.3796 5.73626C19.0688 5.28701 18.6605 4.95275 18.2575 4.80207L13.2703 2.93313C12.9515 2.81743 12.4929 2.74707 12.0027 2.74707C11.5105 2.74707 11.0589 2.81795 10.7535 2.93181" fill="currentColor"/>
<path fill-rule="evenodd" clip-rule="evenodd" d="M15.4901 8.64936C15.783 8.94225 15.783 9.41712 15.4901 9.71002L11.1901 14.01C10.8972 14.3029 10.4224 14.3029 10.1295 14.01L8.51947 12.4C8.22658 12.1071 8.22658 11.6323 8.51947 11.3394C8.81237 11.0465 9.28724 11.0465 9.58013 11.3394L10.6598 12.419L14.4295 8.64936C14.7224 8.35646 15.1972 8.35646 15.4901 8.64936Z" fill="currentColor"/>
</svg>
