<svg width="24" height="24" viewBox="0 0 24 24" fill="none" xmlns="http://www.w3.org/2000/svg">
<path fill-rule="evenodd" clip-rule="evenodd" d="M4.15533 4.15533C3.2398 5.07086 2.75 6.57397 2.75 9V15C2.75 17.426 3.2398 18.9291 4.15533 19.8447C5.07086 20.7602 6.57397 21.25 9 21.25H15C17.426 21.25 18.9291 20.7602 19.8447 19.8447C20.7602 18.9291 21.25 17.426 21.25 15V10C21.25 9.58579 21.5858 9.25 22 9.25C22.4142 9.25 22.75 9.58579 22.75 10V15C22.75 17.574 22.2398 19.5709 20.9053 20.9053C19.5709 22.2398 17.574 22.75 15 22.75H9C6.42603 22.75 4.42914 22.2398 3.09467 20.9053C1.7602 19.5709 1.25 17.574 1.25 15V9C1.25 6.42603 1.7602 4.42914 3.09467 3.09467C4.42914 1.7602 6.42603 1.25 9 1.25H14C14.4142 1.25 14.75 1.58579 14.75 2C14.75 2.41421 14.4142 2.75 14 2.75H9C6.57397 2.75 5.07086 3.2398 4.15533 4.15533Z" fill="currentColor"/>
<path fill-rule="evenodd" clip-rule="evenodd" d="M13.713 1.30711C13.9932 1.19103 14.3158 1.25519 14.5303 1.46969L22.5303 9.46969C22.7448 9.68419 22.809 10.0068 22.6929 10.287C22.5768 10.5673 22.3033 10.75 22 10.75H18C16.4585 10.75 15.1921 10.5028 14.3447 9.65535C13.4972 8.80793 13.25 7.54157 13.25 6.00002V2.00002C13.25 1.69668 13.4327 1.4232 13.713 1.30711ZM14.75 3.81068V6.00002C14.75 7.45847 15.0028 8.19211 15.4053 8.59469C15.8079 8.99727 16.5415 9.25002 18 9.25002H20.1893L14.75 3.81068Z" fill="currentColor"/>
<path fill-rule="evenodd" clip-rule="evenodd" d="M8.55957 12.25C8.97378 12.25 9.30957 12.5858 9.30957 13V18C9.30957 18.4142 8.97378 18.75 8.55957 18.75C8.14536 18.75 7.80957 18.4142 7.80957 18V13C7.80957 12.5858 8.14536 12.25 8.55957 12.25Z" fill="currentColor"/>
<path fill-rule="evenodd" clip-rule="evenodd" d="M5.25 15.5C5.25 15.0858 5.58579 14.75 6 14.75H11C11.4142 14.75 11.75 15.0858 11.75 15.5C11.75 15.9142 11.4142 16.25 11 16.25H6C5.58579 16.25 5.25 15.9142 5.25 15.5Z" fill="currentColor"/>
</svg>
