<svg width="24" height="24" viewBox="0 0 24 24" fill="none" xmlns="http://www.w3.org/2000/svg">
<path fill-rule="evenodd" clip-rule="evenodd" d="M3.09467 3.09467C4.42914 1.7602 6.42603 1.25 9 1.25H11C11.4142 1.25 11.75 1.58579 11.75 2C11.75 2.41421 11.4142 2.75 11 2.75H9C6.57397 2.75 5.07086 3.2398 4.15533 4.15533C3.2398 5.07086 2.75 6.57397 2.75 9V15C2.75 17.426 3.2398 18.9291 4.15533 19.8447C5.07086 20.7602 6.57397 21.25 9 21.25H15C17.426 21.25 18.9291 20.7602 19.8447 19.8447C20.7602 18.9291 21.25 17.426 21.25 15V13C21.25 12.5858 21.5858 12.25 22 12.25C22.4142 12.25 22.75 12.5858 22.75 13V15C22.75 17.574 22.2398 19.5709 20.9053 20.9053C19.5709 22.2398 17.574 22.75 15 22.75H9C6.42603 22.75 4.42914 22.2398 3.09467 20.9053C1.7602 19.5709 1.25 17.574 1.25 15V9C1.25 6.42603 1.7602 4.42914 3.09467 3.09467Z" fill="currentColor"/>
<path fill-rule="evenodd" clip-rule="evenodd" d="M18.1964 1.01399C19.3098 0.904704 20.4136 1.39364 21.51 2.49007C22.6065 3.5865 23.0954 4.69032 22.9861 5.80367C22.8807 6.87768 22.233 7.7678 21.51 8.49073L13.6213 16.3794C13.3961 16.5974 13.1018 16.7878 12.8178 16.9305C12.5354 17.0724 12.2028 17.1976 11.8858 17.2429L8.87196 17.6734C8.12987 17.7755 7.41984 17.5729 6.9217 17.0768C6.42249 16.5796 6.2183 15.8693 6.32744 15.123C6.32751 15.1225 6.32759 15.122 6.32766 15.1215L6.7569 12.1168C6.75696 12.1163 6.75703 12.1159 6.75709 12.1154C6.80213 11.7942 6.92665 11.4592 7.06959 11.1748C7.21283 10.8898 7.40569 10.5938 7.62938 10.3701L15.5094 2.49007C16.2323 1.76714 17.1224 1.11941 18.1964 1.01399ZM18.343 2.50682C17.787 2.56139 17.2071 2.91366 16.57 3.55073L8.69004 11.4307C8.61372 11.507 8.50658 11.656 8.40982 11.8485C8.31296 12.0412 8.25763 12.2157 8.24251 12.324L8.24217 12.3265L7.81217 15.3365L7.81176 15.3393C7.76139 15.6824 7.86226 15.8965 7.98021 16.014C8.09937 16.1327 8.31879 16.2349 8.66568 16.1876C8.66627 16.1876 8.66686 16.1875 8.66746 16.1874L11.6736 15.7579C11.7766 15.7432 11.949 15.6884 12.1441 15.5903C12.3349 15.4944 12.4889 15.3866 12.5745 15.3049L20.4494 7.43007C21.0864 6.793 21.4387 6.21313 21.4933 5.65714C21.544 5.14049 21.3529 4.4543 20.4494 3.55073C19.5458 2.64716 18.8596 2.4561 18.343 2.50682Z" fill="currentColor"/>
<path fill-rule="evenodd" clip-rule="evenodd" d="M14.7079 3.42745C15.1067 3.31564 15.5207 3.54832 15.6325 3.94716C16.2316 6.08427 17.9044 7.75874 20.0548 8.36801C20.4533 8.48093 20.6849 8.89553 20.5719 9.29406C20.459 9.69258 20.0444 9.92412 19.6459 9.8112C16.9963 9.06047 14.9291 6.99494 14.1882 4.35205C14.0764 3.95321 14.3091 3.53925 14.7079 3.42745Z" fill="currentColor"/>
</svg>
