<svg width="24" height="24" viewBox="0 0 24 24" fill="none" xmlns="http://www.w3.org/2000/svg">
<path fill-rule="evenodd" clip-rule="evenodd" d="M3.82025 5.74124C3.90213 6.59992 4.2534 7.73249 4.95063 9.12453L5.82086 10.865C5.99742 11.2181 6.06504 11.6339 6.06504 12.0054C6.06504 12.3769 5.99742 12.7927 5.82086 13.1458L5.82009 13.1474L4.95063 14.8763C4.95052 14.8765 4.95074 14.8761 4.95063 14.8763C4.25354 16.2682 3.90135 17.4014 3.81879 18.2601C3.73589 19.1223 3.92957 19.6052 4.18572 19.8617C4.44179 20.1181 4.9242 20.3124 5.7867 20.2302C6.64599 20.1483 7.77992 19.7969 9.17463 19.0996L17.7346 14.8196C19.5459 13.914 20.2 12.8489 20.2 12.0004C20.2 11.1519 19.5459 10.0868 17.7346 9.18122L9.17463 4.90122C7.7826 4.204 6.64956 3.85249 5.79088 3.77061C4.92907 3.68844 4.44598 3.88262 4.18912 4.13948C3.93226 4.39635 3.73807 4.87943 3.82025 5.74124ZM9.84571 3.55971C8.36283 2.817 7.04422 2.38331 5.93326 2.27738C4.82539 2.17175 3.82035 2.38694 3.12846 3.07882C2.43657 3.77071 2.22138 4.77575 2.32702 5.88362C2.43295 6.99452 2.86659 8.31304 3.60922 9.79581L4.47922 11.5358C4.52266 11.6227 4.56504 11.7919 4.56504 12.0054C4.56504 12.2184 4.52286 12.3873 4.47952 12.4744C4.47963 12.4742 4.47942 12.4746 4.47952 12.4744L3.60945 14.2045C2.86676 15.6873 2.43247 17.0058 2.32567 18.1166C2.21919 19.2241 2.43301 20.2294 3.12436 20.9216C3.81579 21.614 4.82089 21.829 5.92901 21.7234C7.04035 21.6175 8.36016 21.1839 9.84545 20.4412L18.4055 16.1612C20.4342 15.1468 21.7 13.6819 21.7 12.0004C21.7 10.3189 20.4342 8.85396 18.4055 7.83958L9.84571 3.55971C9.84578 3.55975 9.84564 3.55968 9.84571 3.55971Z" fill="currentColor"/>
<path fill-rule="evenodd" clip-rule="evenodd" d="M4.69043 12C4.69043 11.5858 5.02622 11.25 5.44043 11.25H10.8404C11.2546 11.25 11.5904 11.5858 11.5904 12C11.5904 12.4142 11.2546 12.75 10.8404 12.75H5.44043C5.02622 12.75 4.69043 12.4142 4.69043 12Z" fill="currentColor"/>
</svg>
