<svg width="24" height="24" viewBox="0 0 24 24" fill="none" xmlns="http://www.w3.org/2000/svg">
<path fill-rule="evenodd" clip-rule="evenodd" d="M12.7791 3.0138C12.356 2.65965 11.639 2.66491 11.2324 3.01253L9.65397 4.3612C9.41543 4.56726 9.11135 4.72349 8.82999 4.82803C8.54785 4.93287 8.21655 5.0125 7.905 5.0125H6.175C5.52922 5.0125 4.995 5.54671 4.995 6.1925V7.9125C4.995 8.22454 4.91512 8.55333 4.81211 8.83161C4.70872 9.11092 4.5565 9.40824 4.36117 9.64264L4.35675 9.64794L3.00912 11.2351C3.00877 11.2355 3.00842 11.2359 3.00807 11.2363C2.66398 11.6471 2.66398 12.3579 3.00807 12.7687C3.00842 12.7691 3.00877 12.7695 3.00912 12.7699L4.36119 14.3623C4.55653 14.5967 4.70872 14.8941 4.81211 15.1734C4.91512 15.4517 4.995 15.7805 4.995 16.0925V17.8025C4.995 18.4483 5.52922 18.9825 6.175 18.9825H7.905C8.22054 18.9825 8.55182 19.0616 8.835 19.1674C9.11763 19.273 9.41814 19.4298 9.65492 19.6346C9.65535 19.635 9.65578 19.6354 9.6562 19.6357L11.231 20.9912C11.6537 21.345 12.3698 21.3401 12.7765 20.9934C12.7769 20.9931 12.7772 20.9928 12.7776 20.9925L14.3538 19.6357C14.3543 19.6353 14.3547 19.6349 14.3552 19.6345C14.5939 19.4281 14.8983 19.2716 15.18 19.167C15.4622 19.0621 15.7935 18.9825 16.105 18.9825H17.805C18.4508 18.9825 18.985 18.4483 18.985 17.8025V16.1025C18.985 15.787 19.0641 15.4557 19.1699 15.1725C19.2755 14.8899 19.4322 14.5894 19.637 14.3527C19.6374 14.3522 19.6378 14.3518 19.6382 14.3513L20.9937 12.7765C21.3475 12.3538 21.3426 11.6377 20.9959 11.231C20.9956 11.2306 20.9953 11.2303 20.995 11.2299L19.6382 9.6537C19.6379 9.65327 19.6375 9.65284 19.6371 9.65242C19.4307 9.41374 19.2742 9.10922 19.1695 8.82749C19.0646 8.54535 18.985 8.21404 18.985 7.9025V6.2025C18.985 5.55672 18.4508 5.0225 17.805 5.0225H16.105C15.7895 5.0225 15.4582 4.94337 15.175 4.83756C14.8924 4.73196 14.5918 4.57518 14.355 4.37031C14.3546 4.36996 14.3542 4.36962 14.3538 4.36927L12.7791 3.0138ZM10.2578 1.87229C11.2305 1.0408 12.7712 1.04543 13.7484 1.86903L13.7543 1.87404L15.3362 3.23573C15.3992 3.29035 15.5281 3.36822 15.7 3.43244C15.8718 3.49663 16.0205 3.5225 16.105 3.5225H17.805C19.2792 3.5225 20.485 4.72829 20.485 6.2025V7.9025C20.485 7.98096 20.5104 8.12965 20.5755 8.30501C20.6407 8.48028 20.7188 8.61017 20.7718 8.6713L20.7734 8.67322L22.135 10.2551C22.9667 11.2277 22.9621 12.7686 22.1385 13.7459L22.1335 13.7518L20.7734 15.3318L20.7718 15.3337C20.7172 15.3967 20.6393 15.5256 20.5751 15.6975C20.5109 15.8693 20.485 16.018 20.485 16.1025V17.8025C20.485 19.2767 19.2792 20.4825 17.805 20.4825H16.105C16.0265 20.4825 15.8779 20.5079 15.7025 20.573C15.5272 20.6382 15.3973 20.7163 15.3362 20.7693L15.3343 20.7709L13.7543 22.1309L13.7524 22.1325C12.7798 22.9642 11.2389 22.9596 10.2617 22.136L10.2557 22.131L8.67573 20.7709L8.67381 20.7693C8.61079 20.7147 8.48187 20.6368 8.31001 20.5726C8.13819 20.5084 7.98947 20.4825 7.905 20.4825H6.175C4.70079 20.4825 3.495 19.2767 3.495 17.8025V16.0925C3.495 16.0145 3.46989 15.8683 3.4054 15.6941C3.34194 15.5227 3.26509 15.3909 3.21052 15.3247L1.86088 13.7351C1.04637 12.7661 1.04638 11.2389 1.86089 10.2699L1.86328 10.2671L3.21051 8.68034C3.26508 8.61407 3.34194 8.48232 3.4054 8.31089C3.46989 8.13667 3.495 7.99046 3.495 7.9125V6.1925C3.495 4.71829 4.70079 3.5125 6.175 3.5125H7.905C7.98346 3.5125 8.13215 3.48713 8.30752 3.42197C8.48278 3.35684 8.61268 3.27871 8.67381 3.22573L8.67779 3.22228L10.2578 1.87229C10.2579 1.87223 10.2577 1.87235 10.2578 1.87229Z" fill="currentColor"/>
<path fill-rule="evenodd" clip-rule="evenodd" d="M11.9951 8.74219C10.2002 8.74219 8.74512 10.1973 8.74512 11.9922C8.74512 13.7871 10.2002 15.2422 11.9951 15.2422C13.79 15.2422 15.2451 13.7871 15.2451 11.9922C15.2451 10.1973 13.79 8.74219 11.9951 8.74219ZM7.24512 11.9922C7.24512 9.36884 9.37177 7.24219 11.9951 7.24219C14.6185 7.24219 16.7451 9.36884 16.7451 11.9922C16.7451 14.6155 14.6185 16.7422 11.9951 16.7422C9.37177 16.7422 7.24512 14.6155 7.24512 11.9922Z" fill="currentColor"/>
</svg>
