<svg width="24" height="24" viewBox="0 0 24 24" fill="none" xmlns="http://www.w3.org/2000/svg">
<path fill-rule="evenodd" clip-rule="evenodd" d="M15.7119 5.62511C15.919 5.98382 15.7961 6.44252 15.4374 6.64962L9.37522 10.1496C9.0165 10.3567 8.5578 10.2338 8.3507 9.8751C8.14359 9.51639 8.2665 9.05769 8.62522 8.85059L14.6874 5.35059C15.0461 5.14348 15.5048 5.26639 15.7119 5.62511Z" fill="currentColor"/>
<path fill-rule="evenodd" clip-rule="evenodd" d="M15.7119 17.8751C15.5048 18.2338 15.0461 18.3567 14.6874 18.1496L8.62522 14.6496C8.2665 14.4425 8.14359 13.9838 8.3507 13.6251C8.55781 13.2664 9.0165 13.1435 9.37522 13.3506L15.4374 16.8506C15.7961 17.0577 15.919 17.5164 15.7119 17.8751Z" fill="currentColor"/>
<path fill-rule="evenodd" clip-rule="evenodd" d="M18.25 2.75C16.8693 2.75 15.75 3.86929 15.75 5.25C15.75 6.63071 16.8693 7.75 18.25 7.75C19.6307 7.75 20.75 6.63071 20.75 5.25C20.75 3.86929 19.6307 2.75 18.25 2.75ZM14.25 5.25C14.25 3.04086 16.0409 1.25 18.25 1.25C20.4591 1.25 22.25 3.04086 22.25 5.25C22.25 7.45914 20.4591 9.25 18.25 9.25C16.0409 9.25 14.25 7.45914 14.25 5.25Z" fill="currentColor"/>
<path fill-rule="evenodd" clip-rule="evenodd" d="M6 9.75C4.75736 9.75 3.75 10.7574 3.75 12C3.75 13.2426 4.75736 14.25 6 14.25C7.24264 14.25 8.25 13.2426 8.25 12C8.25 10.7574 7.24264 9.75 6 9.75ZM2.25 12C2.25 9.92893 3.92893 8.25 6 8.25C8.07107 8.25 9.75 9.92893 9.75 12C9.75 14.0711 8.07107 15.75 6 15.75C3.92893 15.75 2.25 14.0711 2.25 12Z" fill="currentColor"/>
<path fill-rule="evenodd" clip-rule="evenodd" d="M18 16.75C16.7574 16.75 15.75 17.7574 15.75 19C15.75 20.2426 16.7574 21.25 18 21.25C19.2426 21.25 20.25 20.2426 20.25 19C20.25 17.7574 19.2426 16.75 18 16.75ZM14.25 19C14.25 16.9289 15.9289 15.25 18 15.25C20.0711 15.25 21.75 16.9289 21.75 19C21.75 21.0711 20.0711 22.75 18 22.75C15.9289 22.75 14.25 21.0711 14.25 19Z" fill="currentColor"/>
</svg>
