<svg width="24" height="24" viewBox="0 0 24 24" fill="none" xmlns="http://www.w3.org/2000/svg">
<path fill-rule="evenodd" clip-rule="evenodd" d="M12 2.24707C6.475 2.24707 2 6.72207 2 12.2471C2 16.6721 4.8625 20.4096 8.8375 21.7346C9.3375 21.8221 9.525 21.5221 9.525 21.2596C9.525 21.0221 9.5125 20.2346 9.5125 19.3971C7 19.8596 6.35 18.7846 6.15 18.2221C6.0375 17.9346 5.55 17.0471 5.125 16.8096C4.775 16.6221 4.275 16.1596 5.1125 16.1471C5.9 16.1346 6.4625 16.8721 6.65 17.1721C7.55 18.6846 8.9875 18.2596 9.5625 17.9971C9.65 17.3471 9.9125 16.9096 10.2 16.6596C7.975 16.4096 5.65 15.5471 5.65 11.7221C5.65 10.6346 6.0375 9.73457 6.675 9.03457C6.575 8.78457 6.225 7.75957 6.775 6.38457C6.775 6.38457 7.6125 6.12207 9.525 7.40957C10.325 7.18457 11.175 7.07207 12.025 7.07207C12.875 7.07207 13.725 7.18457 14.525 7.40957C16.4375 6.10957 17.275 6.38457 17.275 6.38457C17.825 7.75957 17.475 8.78457 17.375 9.03457C18.0125 9.73457 18.4 10.6221 18.4 11.7221C18.4 15.5596 16.0625 16.4096 13.8375 16.6596C14.2 16.9721 14.5125 17.5721 14.5125 18.5096C14.5125 19.8471 14.5 20.9221 14.5 21.2596C14.5 21.5221 14.6875 21.8346 15.1875 21.7346C17.1727 21.0644 18.8977 19.7885 20.1198 18.0866C21.3419 16.3847 21.9995 14.3423 22 12.2471C22 6.72207 17.525 2.24707 12 2.24707Z" fill="currentColor"/>
</svg>
