<svg width="24" height="24" viewBox="0 0 24 24" fill="none" xmlns="http://www.w3.org/2000/svg">
<path fill-rule="evenodd" clip-rule="evenodd" d="M17.086 20.8123C17.3677 21.0061 17.7308 21.0545 18.0546 20.9355C18.3783 20.8157 18.6163 20.5471 18.6881 20.2215C19.4484 16.7501 21.2929 7.96368 21.985 4.80593C22.0375 4.56793 21.95 4.32058 21.7575 4.16163C21.565 4.00268 21.2981 3.95678 21.0601 4.04263C17.3914 5.36183 6.09273 9.48008 1.47459 11.1401C1.18147 11.2455 0.990723 11.5192 1.00035 11.8193C1.01085 12.1202 1.21909 12.3811 1.51921 12.4687C3.59029 13.0705 6.30885 13.9077 6.30885 13.9077C6.30885 13.9077 7.57932 17.635 8.24168 19.5305C8.32481 19.7685 8.51643 19.9555 8.7693 20.0201C9.02129 20.0838 9.29078 20.0167 9.4789 19.8441C10.5429 18.8683 12.1878 17.3596 12.1878 17.3596C12.1878 17.3596 15.3133 19.5857 17.086 20.8123ZM7.45245 13.4368L8.92154 18.1441L9.24791 15.1632C9.24791 15.1632 14.9239 10.1898 18.1596 7.35508C18.2541 7.27178 18.2672 7.13238 18.1885 7.03463C18.1106 6.93688 17.9671 6.91393 17.8595 6.98023C14.1093 9.30668 7.45245 13.4368 7.45245 13.4368Z" fill="currentColor"/>
</svg>
