<svg width="24" height="24" viewBox="0 0 24 24" fill="none" xmlns="http://www.w3.org/2000/svg">
<path fill-rule="evenodd" clip-rule="evenodd" d="M12.75 12.0001C12.75 15.728 9.89578 18.75 6.37511 18.75C2.85444 18.75 0 15.728 0 12.0001C0 8.27225 2.85422 5.25 6.37511 5.25C9.89599 5.25 12.75 8.27225 12.75 12.0001ZM20.25 11.625C20.25 15.1452 18.739 18 16.875 18C15.011 18 13.5 15.1452 13.5 11.625C13.5 8.10481 15.0108 5.25 16.8748 5.25C18.7387 5.25 20.2498 8.1039 20.2498 11.625H20.25ZM22.1249 17.25C22.7464 17.25 23.25 14.7307 23.25 11.625C23.25 8.51835 22.7461 6 22.1249 6C21.5036 6 21 8.51858 21 11.625C21 14.7314 21.5034 17.25 22.1249 17.25Z" fill="currentColor"/>
</svg>
