<svg width="24" height="24" viewBox="0 0 24 24" fill="none" xmlns="http://www.w3.org/2000/svg">
<path d="M21.6678 9.99461L21.6397 9.92275L18.9175 2.81821C18.8621 2.67897 18.764 2.56084 18.6373 2.48079C18.5106 2.4021 18.3627 2.3642 18.2137 2.37221C18.0647 2.38022 17.9218 2.43375 17.8042 2.52557C17.6879 2.62004 17.6035 2.74803 17.5626 2.89215L15.7245 8.5158H8.28148L6.44339 2.89215C6.40352 2.74725 6.31898 2.61861 6.20178 2.52453C6.08418 2.43271 5.94124 2.37918 5.79225 2.37117C5.64326 2.36316 5.49541 2.40106 5.36864 2.47975C5.24224 2.56013 5.14426 2.67814 5.0885 2.81717L2.36103 9.91859L2.33396 9.99045C1.94208 11.0144 1.8937 12.1379 2.19614 13.1918C2.49857 14.2456 3.13541 15.1725 4.01064 15.8328L4.02001 15.8401L4.045 15.8578L8.19192 18.9633L10.2435 20.516L11.4932 21.4596C11.6394 21.5705 11.8179 21.6306 12.0014 21.6306C12.185 21.6306 12.3635 21.5705 12.5096 21.4596L13.7593 20.516L15.8109 18.9633L19.9828 15.839L19.9933 15.8307C20.8665 15.1703 21.5019 14.2443 21.8038 13.1919C22.1058 12.1395 22.0581 11.0176 21.6678 9.99461Z" fill="currentColor"/>
</svg>
