<svg width="24" height="24" viewBox="0 0 24 24" fill="none" xmlns="http://www.w3.org/2000/svg">
<path d="M19.2 5H4.8C3.81 5 3 5.7875 3 6.75V17.25C3 18.2125 3.81 19 4.8 19H19.2C20.19 19 21 18.2125 21 17.25V6.75C21 5.7875 20.19 5 19.2 5ZM18.84 8.71875L12.954 12.2975C12.369 12.6562 11.631 12.6562 11.046 12.2975L5.16 8.71875C4.935 8.57875 4.8 8.3425 4.8 8.08875C4.8 7.5025 5.457 7.1525 5.97 7.45875L12 11.125L18.03 7.45875C18.543 7.1525 19.2 7.5025 19.2 8.08875C19.2 8.3425 19.065 8.57875 18.84 8.71875Z" fill="currentColor"/>
</svg>
