<svg width="24" height="24" viewBox="0 0 24 24" fill="none" xmlns="http://www.w3.org/2000/svg">
<path d="M21.9724 18.7033C21.6062 19.5418 21.1727 20.3136 20.6704 21.0232C19.9857 21.9906 19.4251 22.6602 18.993 23.032C18.3233 23.6424 17.6057 23.955 16.8373 23.9728C16.2857 23.9728 15.6204 23.8172 14.8461 23.5017C14.0691 23.1876 13.3551 23.032 12.7023 23.032C12.0176 23.032 11.2833 23.1876 10.4979 23.5017C9.71122 23.8172 9.07751 23.9816 8.593 23.9979C7.85614 24.0291 7.12168 23.7076 6.38856 23.032C5.92064 22.6276 5.33537 21.9343 4.63424 20.9521C3.88198 19.9033 3.26353 18.687 2.77902 17.3004C2.26012 15.8026 2 14.3523 2 12.9482C2 11.3398 2.35071 9.95259 3.05319 8.79011C3.60527 7.85636 4.33974 7.11979 5.25898 6.57906C6.17822 6.03834 7.17146 5.76279 8.24109 5.74516C8.82636 5.74516 9.59387 5.92456 10.5476 6.27715C11.4987 6.63091 12.1094 6.81032 12.3772 6.81032C12.5773 6.81032 13.2557 6.60054 14.4058 6.18233C15.4934 5.79449 16.4113 5.63391 17.1632 5.69716C19.2008 5.86012 20.7316 6.6561 21.7497 8.09013C19.9274 9.18432 19.0259 10.7169 19.0439 12.6829C19.0603 14.2142 19.6209 15.4886 20.7227 16.5004C21.222 16.97 21.7796 17.333 22.4 17.5907C22.2655 17.9774 22.1234 18.3477 21.9724 18.7033ZM17.2993 0.480137C17.2993 1.68041 16.8567 2.8011 15.9747 3.8384C14.9103 5.07155 13.6229 5.78412 12.2268 5.67168C12.209 5.52769 12.1987 5.37614 12.1987 5.21688C12.1987 4.06462 12.7048 2.83147 13.6038 1.82321C14.0525 1.3127 14.6233 0.888228 15.3155 0.549615C16.0061 0.216055 16.6594 0.031589 17.2738 0C17.2918 0.160458 17.2993 0.320926 17.2993 0.480121V0.480137Z" fill="currentColor"/>
</svg>
