<svg width="24" height="24" viewBox="0 0 24 24" fill="none" xmlns="http://www.w3.org/2000/svg">
<path d="M18.9308 5.64161C17.6561 5.05671 16.2892 4.62578 14.8599 4.37897C14.8339 4.3742 14.8079 4.38611 14.7945 4.40991C14.6187 4.72259 14.4239 5.13051 14.2876 5.45113C12.7503 5.22099 11.221 5.22099 9.71527 5.45113C9.57887 5.12338 9.37707 4.72259 9.20048 4.40991C9.18707 4.3869 9.16107 4.375 9.13504 4.37897C7.70659 4.62499 6.33963 5.05592 5.06411 5.64161C5.05307 5.64637 5.04361 5.65431 5.03732 5.66462C2.44449 9.53826 1.73421 13.3167 2.08265 17.0483C2.08423 17.0665 2.09447 17.084 2.10867 17.0951C3.81934 18.3514 5.47642 19.114 7.10273 19.6196C7.12876 19.6275 7.15634 19.618 7.1729 19.5965C7.55761 19.0712 7.90054 18.5172 8.19456 17.9347C8.21192 17.9006 8.19535 17.8601 8.15989 17.8466C7.61594 17.6403 7.098 17.3887 6.59977 17.103C6.56037 17.08 6.55721 17.0236 6.59347 16.9966C6.69831 16.9181 6.80318 16.8363 6.9033 16.7538C6.92141 16.7387 6.94665 16.7356 6.96794 16.7451C10.2411 18.2395 13.7846 18.2395 17.0191 16.7451C17.0404 16.7348 17.0657 16.7379 17.0846 16.753C17.1847 16.8356 17.2895 16.9181 17.3952 16.9966C17.4314 17.0236 17.4291 17.08 17.3897 17.103C16.8914 17.3943 16.3735 17.6403 15.8288 17.8458C15.7933 17.8593 15.7775 17.9006 15.7949 17.9347C16.0952 18.5164 16.4381 19.0704 16.8157 19.5957C16.8315 19.618 16.8599 19.6275 16.8859 19.6196C18.5201 19.114 20.1772 18.3514 21.8879 17.0951C21.9028 17.084 21.9123 17.0673 21.9139 17.049C22.3309 12.7349 21.2154 8.98749 18.9568 5.66541C18.9513 5.65431 18.9419 5.64637 18.9308 5.64161ZM8.68335 14.7761C7.69792 14.7761 6.88594 13.8714 6.88594 12.7603C6.88594 11.6493 7.68217 10.7446 8.68335 10.7446C9.69239 10.7446 10.4965 11.6572 10.4807 12.7603C10.4807 13.8714 9.68451 14.7761 8.68335 14.7761ZM15.329 14.7761C14.3435 14.7761 13.5316 13.8714 13.5316 12.7603C13.5316 11.6493 14.3278 10.7446 15.329 10.7446C16.338 10.7446 17.1421 11.6572 17.1264 12.7603C17.1264 13.8714 16.338 14.7761 15.329 14.7761Z" fill="currentColor"/>
</svg>
