<svg width="24" height="24" viewBox="0 0 24 24" fill="none" xmlns="http://www.w3.org/2000/svg">
<path d="M19.9525 7.91974C19.9647 8.09605 19.9647 8.27237 19.9647 8.45031C19.9647 13.8722 15.8371 20.1253 8.28966 20.1253V20.1221C6.06013 20.1253 3.8769 19.4867 2 18.2825C2.32419 18.3215 2.65001 18.341 2.97664 18.3418C4.82429 18.3435 6.61913 17.7235 8.07272 16.5819C6.31688 16.5486 4.77717 15.4038 4.23928 13.7325C4.85436 13.8511 5.48812 13.8267 6.09181 13.6618C4.17753 13.275 2.80033 11.5931 2.80033 9.63983C2.80033 9.62195 2.80033 9.60489 2.80033 9.58783C3.37071 9.90552 4.00934 10.0818 4.6626 10.1013C2.85964 8.89638 2.30388 6.49784 3.39265 4.62256C5.47593 7.18604 8.54967 8.74444 11.8493 8.90938C11.5186 7.48423 11.9703 5.99083 13.0364 4.989C14.689 3.43548 17.2882 3.51511 18.8418 5.16694C19.7607 4.98575 20.6415 4.64856 21.4475 4.1708C21.1412 5.12063 20.5001 5.92746 19.6437 6.44015C20.457 6.34428 21.2517 6.12652 22 5.7942C21.4491 6.61972 20.7552 7.33879 19.9525 7.91974Z" fill="currentColor"/>
</svg>
