<svg width="24" height="24" viewBox="0 0 24 24" fill="none" xmlns="http://www.w3.org/2000/svg">
<g clip-path="url(#clip0_109_22011)">
<path fill-rule="evenodd" clip-rule="evenodd" d="M23.52 12.2729C23.52 11.422 23.4436 10.6038 23.3018 9.81836H12V14.4602H18.4582C18.18 15.9602 17.3345 17.2311 16.0636 18.082V21.0929H19.9418C22.2109 19.0038 23.52 15.9274 23.52 12.2729Z" fill="currentColor"/>
<path fill-rule="evenodd" clip-rule="evenodd" d="M12 24.0003C15.24 24.0003 17.9564 22.9257 19.9418 21.093L16.0636 18.0821C14.9891 18.8021 13.6145 19.2275 12 19.2275C8.87455 19.2275 6.22909 17.1166 5.28546 14.2803H1.27637V17.3894C3.25091 21.3112 7.30909 24.0003 12 24.0003Z" fill="currentColor"/>
<path fill-rule="evenodd" clip-rule="evenodd" d="M5.28545 14.2804C5.04545 13.5604 4.90909 12.7913 4.90909 12.0004C4.90909 11.2095 5.04545 10.4404 5.28545 9.72042V6.61133H1.27636C0.463636 8.23133 0 10.0641 0 12.0004C0 13.9368 0.463636 15.7695 1.27636 17.3895L5.28545 14.2804Z" fill="currentColor"/>
<path fill-rule="evenodd" clip-rule="evenodd" d="M12 4.77273C13.7618 4.77273 15.3436 5.37818 16.5873 6.56727L20.0291 3.12545C17.9509 1.18909 15.2345 0 12 0C7.30909 0 3.25091 2.68909 1.27637 6.61091L5.28546 9.72C6.22909 6.88364 8.87455 4.77273 12 4.77273Z" fill="currentColor"/>
</g>
<defs>
<clipPath id="clip0_109_22011">
<rect width="24" height="24" rx="6" fill="white"/>
</clipPath>
</defs>
</svg>
