<svg width="24" height="24" viewBox="0 0 24 24" fill="none" xmlns="http://www.w3.org/2000/svg">
<path fill-rule="evenodd" clip-rule="evenodd" d="M11.6201 8.87988C11.6201 8.46567 11.9559 8.12988 12.3701 8.12988H17.6201C18.0343 8.12988 18.3701 8.46567 18.3701 8.87988C18.3701 9.2941 18.0343 9.62988 17.6201 9.62988H12.3701C11.9559 9.62988 11.6201 9.2941 11.6201 8.87988Z" fill="currentColor"/>
<path fill-rule="evenodd" clip-rule="evenodd" d="M9.91021 6.84955C10.2031 7.14245 10.2031 7.61732 9.91021 7.91021L7.66021 10.1602C7.36732 10.4531 6.89245 10.4531 6.59955 10.1602L5.84955 9.41021C5.55666 9.11732 5.55666 8.64245 5.84955 8.34955C6.14245 8.05666 6.61732 8.05666 6.91021 8.34955L7.12988 8.56922L8.84955 6.84955C9.14245 6.55666 9.61732 6.55666 9.91021 6.84955Z" fill="currentColor"/>
<path fill-rule="evenodd" clip-rule="evenodd" d="M11.6201 15.8799C11.6201 15.4657 11.9559 15.1299 12.3701 15.1299H17.6201C18.0343 15.1299 18.3701 15.4657 18.3701 15.8799C18.3701 16.2941 18.0343 16.6299 17.6201 16.6299H12.3701C11.9559 16.6299 11.6201 16.2941 11.6201 15.8799Z" fill="currentColor"/>
<path fill-rule="evenodd" clip-rule="evenodd" d="M9.91021 13.8496C10.2031 14.1424 10.2031 14.6173 9.91021 14.9102L7.66021 17.1602C7.36732 17.4531 6.89245 17.4531 6.59955 17.1602L5.84955 16.4102C5.55666 16.1173 5.55666 15.6424 5.84955 15.3496C6.14245 15.0567 6.61732 15.0567 6.91021 15.3496L7.12988 15.5692L8.84955 13.8496C9.14245 13.5567 9.61732 13.5567 9.91021 13.8496Z" fill="currentColor"/>
<path fill-rule="evenodd" clip-rule="evenodd" d="M3.09467 3.09467C4.42914 1.7602 6.42603 1.25 9 1.25H15C17.574 1.25 19.5709 1.7602 20.9053 3.09467C22.2398 4.42914 22.75 6.42603 22.75 9V15C22.75 17.574 22.2398 19.5709 20.9053 20.9053C19.5709 22.2398 17.574 22.75 15 22.75H9C6.42603 22.75 4.42914 22.2398 3.09467 20.9053C1.7602 19.5709 1.25 17.574 1.25 15V9C1.25 6.42603 1.7602 4.42914 3.09467 3.09467ZM4.15533 4.15533C3.2398 5.07086 2.75 6.57397 2.75 9V15C2.75 17.426 3.2398 18.9291 4.15533 19.8447C5.07086 20.7602 6.57397 21.25 9 21.25H15C17.426 21.25 18.9291 20.7602 19.8447 19.8447C20.7602 18.9291 21.25 17.426 21.25 15V9C21.25 6.57397 20.7602 5.07086 19.8447 4.15533C18.9291 3.2398 17.426 2.75 15 2.75H9C6.57397 2.75 5.07086 3.2398 4.15533 4.15533Z" fill="currentColor"/>
</svg>
