<svg width="24" height="24" viewBox="0 0 24 24" fill="none" xmlns="http://www.w3.org/2000/svg">
<path fill-rule="evenodd" clip-rule="evenodd" d="M9.55957 12.25C9.97378 12.25 10.3096 12.5858 10.3096 13V18C10.3096 18.4142 9.97378 18.75 9.55957 18.75C9.14536 18.75 8.80957 18.4142 8.80957 18V13C8.80957 12.5858 9.14536 12.25 9.55957 12.25Z" fill="currentColor"/>
<path fill-rule="evenodd" clip-rule="evenodd" d="M6.25 15.5C6.25 15.0858 6.58579 14.75 7 14.75H12C12.4142 14.75 12.75 15.0858 12.75 15.5C12.75 15.9142 12.4142 16.25 12 16.25H7C6.58579 16.25 6.25 15.9142 6.25 15.5Z" fill="currentColor"/>
<path fill-rule="evenodd" clip-rule="evenodd" d="M8 1.25C8.41421 1.25 8.75 1.58579 8.75 2V5C8.75 5.41421 8.41421 5.75 8 5.75C7.58579 5.75 7.25 5.41421 7.25 5V2C7.25 1.58579 7.58579 1.25 8 1.25Z" fill="currentColor"/>
<path fill-rule="evenodd" clip-rule="evenodd" d="M16 1.25C16.4142 1.25 16.75 1.58579 16.75 2V5C16.75 5.41421 16.4142 5.75 16 5.75C15.5858 5.75 15.25 5.41421 15.25 5V2C15.25 1.58579 15.5858 1.25 16 1.25Z" fill="currentColor"/>
<path fill-rule="evenodd" clip-rule="evenodd" d="M15.7948 2.67007C15.8088 2.66979 15.8228 2.6699 15.8368 2.67041C17.5684 2.73262 19.0782 3.08428 20.1372 4.21467C21.1828 5.33082 21.6385 7.04792 21.6897 9.45397L21.8197 15.6241L21.8197 15.6254C21.8599 17.6952 21.6593 19.4935 20.6213 20.7674C19.5569 22.0736 17.7854 22.6332 15.2163 22.6897L9.21484 22.8098C6.64486 22.8612 4.85049 22.3731 3.73321 21.1107C2.64361 19.8796 2.3703 18.0912 2.33001 16.0257C2.33 16.0253 2.32999 16.0249 2.32998 16.0245L2.19001 9.84588C2.1388 7.43879 2.52485 5.70378 3.52471 4.54598C4.53711 3.37363 6.03119 2.96173 7.75352 2.83204C7.76728 2.831 7.78106 2.83035 7.79484 2.83007L15.7948 2.67007ZM7.84581 4.32935C6.26007 4.45121 5.27494 4.81425 4.65998 5.52637C4.02987 6.25601 3.64094 7.52088 3.68966 9.81349C3.68966 9.81365 3.68966 9.81333 3.68966 9.81349L3.8297 15.9953C3.86949 18.0394 4.15628 19.3255 4.85647 20.1166C5.5292 20.8767 6.75482 21.3587 9.18484 21.3101L15.1833 21.1901C15.1834 21.1901 15.1833 21.1901 15.1833 21.1901C17.6141 21.1366 18.8178 20.6062 19.4584 19.8199C20.1253 19.0014 20.3597 17.705 20.32 15.6553C20.32 15.655 20.32 15.6555 20.32 15.6553L20.19 9.48588C20.19 9.48582 20.19 9.48593 20.19 9.48588C20.1412 7.19203 19.7019 5.94401 19.0425 5.24018C18.3992 4.55352 17.3999 4.23001 15.8036 4.1702L7.84581 4.32935Z" fill="currentColor"/>
</svg>
