<svg width="24" height="24" viewBox="0 0 24 24" fill="none" xmlns="http://www.w3.org/2000/svg">
<path fill-rule="evenodd" clip-rule="evenodd" d="M15.6406 8.20014C15.9335 8.49303 15.9335 8.96791 15.6406 9.2608L9.10064 15.8008C8.80775 16.0937 8.33288 16.0937 8.03998 15.8008C7.74709 15.5079 7.74709 15.033 8.03998 14.7401L14.58 8.20014C14.8729 7.90725 15.3477 7.90725 15.6406 8.20014Z" fill="currentColor"/>
<path fill-rule="evenodd" clip-rule="evenodd" d="M8.98001 8.66016C8.71491 8.66016 8.5 8.87507 8.5 9.14017C8.5 9.40524 8.71489 9.62015 8.98001 9.62015C9.24511 9.62015 9.45999 9.40526 9.45999 9.14017C9.45999 8.87505 9.24508 8.66016 8.98001 8.66016ZM7 9.14017C7 8.04664 7.88649 7.16016 8.98001 7.16016C10.0736 7.16016 10.96 8.04667 10.96 9.14017C10.96 10.2337 10.0735 11.1201 8.98001 11.1201C7.88651 11.1201 7 10.2337 7 9.14017Z" fill="currentColor"/>
<path fill-rule="evenodd" clip-rule="evenodd" d="M15.52 14.3799C15.2549 14.3799 15.04 14.5948 15.04 14.8599C15.04 15.125 15.2549 15.3399 15.52 15.3399C15.7851 15.3399 16 15.125 16 14.8599C16 14.5948 15.7851 14.3799 15.52 14.3799ZM13.54 14.8599C13.54 13.7663 14.4265 12.8799 15.52 12.8799C16.6135 12.8799 17.5 13.7663 17.5 14.8599C17.5 15.9534 16.6135 16.8399 15.52 16.8399C14.4265 16.8399 13.54 15.9534 13.54 14.8599Z" fill="currentColor"/>
<path fill-rule="evenodd" clip-rule="evenodd" d="M12 2.75C6.89137 2.75 2.75 6.89137 2.75 12C2.75 17.1086 6.89137 21.25 12 21.25C17.1086 21.25 21.25 17.1086 21.25 12C21.25 6.89137 17.1086 2.75 12 2.75ZM1.25 12C1.25 6.06294 6.06294 1.25 12 1.25C17.9371 1.25 22.75 6.06294 22.75 12C22.75 17.9371 17.9371 22.75 12 22.75C6.06294 22.75 1.25 17.9371 1.25 12Z" fill="currentColor"/>
</svg>
