<svg width="24" height="24" viewBox="0 0 24 24" fill="none" xmlns="http://www.w3.org/2000/svg">
<path fill-rule="evenodd" clip-rule="evenodd" d="M2.05047 13.2848C2.45633 13.202 2.85244 13.4639 2.93522 13.8698C3.79517 18.0864 7.52268 21.2497 12.0003 21.2497C16.4575 21.2497 20.1773 18.0963 21.0562 13.8961C21.1411 13.4906 21.5385 13.2307 21.944 13.3156C22.3494 13.4004 22.6093 13.7979 22.5244 14.2033C21.5033 19.083 17.1832 22.7497 12.0003 22.7497C6.79801 22.7497 2.46552 19.073 1.46547 14.1696C1.3827 13.7637 1.64461 13.3676 2.05047 13.2848Z" fill="currentColor"/>
<path fill-rule="evenodd" clip-rule="evenodd" d="M1.46586 9.82827C2.47618 4.93786 6.80656 1.25 12.0003 1.25C17.2251 1.25 21.5787 4.96992 22.5464 9.91599C22.6259 10.3225 22.3609 10.7165 21.9544 10.796C21.5478 10.8756 21.1538 10.6105 21.0743 10.204C20.242 5.95007 16.4956 2.75 12.0003 2.75C7.53414 2.75 3.80451 5.92216 2.93483 10.1318C2.85103 10.5374 2.45425 10.7983 2.0486 10.7145C1.64296 10.6307 1.38205 10.2339 1.46586 9.82827Z" fill="currentColor"/>
<path fill-rule="evenodd" clip-rule="evenodd" d="M12 11.25C11.5858 11.25 11.25 11.5858 11.25 12C11.25 12.4142 11.5858 12.75 12 12.75C12.4142 12.75 12.75 12.4142 12.75 12C12.75 11.5858 12.4142 11.25 12 11.25ZM9.75 12C9.75 10.7574 10.7574 9.75 12 9.75C13.2426 9.75 14.25 10.7574 14.25 12C14.25 13.2426 13.2426 14.25 12 14.25C10.7574 14.25 9.75 13.2426 9.75 12Z" fill="currentColor"/>
</svg>
