<svg width="24" height="24" viewBox="0 0 24 24" fill="none" xmlns="http://www.w3.org/2000/svg">
<path fill-rule="evenodd" clip-rule="evenodd" d="M15.2128 9.33511C15.2483 8.92243 15.6117 8.61669 16.0243 8.65222C17.9363 8.81686 19.4337 9.40481 20.4274 10.6294C21.4042 11.8333 21.78 13.5158 21.78 15.6095V15.7395C21.78 18.0486 21.3222 19.8604 20.1066 21.076C18.8909 22.2917 17.0792 22.7495 14.77 22.7495H8.26C5.95082 22.7495 4.13905 22.2917 2.92342 21.076C1.70779 19.8604 1.25 18.0486 1.25 15.7395V15.6095C1.25 13.531 1.62071 11.8586 2.58185 10.6572C3.56033 9.43408 5.03593 8.83837 6.92039 8.6627C7.33281 8.62425 7.69832 8.92742 7.73676 9.33984C7.77521 9.75227 7.47204 10.1178 7.05961 10.1562C5.40407 10.3106 4.38467 10.8048 3.75315 11.5942C3.10429 12.4053 2.75 13.6679 2.75 15.6095V15.7395C2.75 17.9003 3.18721 19.2185 3.98408 20.0154C4.78095 20.8122 6.09918 21.2495 8.26 21.2495H14.77C16.9308 21.2495 18.2491 20.8122 19.0459 20.0154C19.8428 19.2185 20.28 17.9003 20.28 15.7395V15.6095C20.28 13.6531 19.9208 12.3856 19.2626 11.5745C18.6213 10.7841 17.5837 10.2921 15.8957 10.1467C15.483 10.1112 15.1772 9.7478 15.2128 9.33511Z" fill="currentColor"/>
<path fill-rule="evenodd" clip-rule="evenodd" d="M11.5195 3.37012C11.9337 3.37012 12.2695 3.7059 12.2695 4.12012V15.5001C12.2695 15.9143 11.9337 16.2501 11.5195 16.2501C11.1053 16.2501 10.7695 15.9143 10.7695 15.5001V4.12012C10.7695 3.7059 11.1053 3.37012 11.5195 3.37012Z" fill="currentColor"/>
<path fill-rule="evenodd" clip-rule="evenodd" d="M10.9896 2.46967C11.2825 2.17678 11.7574 2.17678 12.0503 2.46967L15.4003 5.81967C15.6931 6.11256 15.6931 6.58744 15.4003 6.88033C15.1074 7.17322 14.6325 7.17322 14.3396 6.88033L11.5199 4.06066L8.70025 6.88033C8.40736 7.17322 7.93248 7.17322 7.63959 6.88033C7.3467 6.58744 7.3467 6.11256 7.63959 5.81967L10.9896 2.46967Z" fill="currentColor"/>
</svg>
