<svg width="24" height="24" viewBox="0 0 24 24" fill="none" xmlns="http://www.w3.org/2000/svg">
<path fill-rule="evenodd" clip-rule="evenodd" d="M17.4258 20.9412C20.2243 20.9412 22.4929 18.6725 22.4929 15.874C22.4929 13.0755 20.2243 10.8068 17.4258 10.8068C14.6272 10.8068 12.3586 13.0755 12.3586 15.874C12.3586 18.6725 14.6272 20.9412 17.4258 20.9412ZM17.4258 22.2412C20.9422 22.2412 23.7929 19.3905 23.7929 15.874C23.7929 12.3575 20.9422 9.50684 17.4258 9.50684C13.9093 9.50684 11.0586 12.3575 11.0586 15.874C11.0586 19.3905 13.9093 22.2412 17.4258 22.2412Z" fill="currentColor"/>
<path fill-rule="evenodd" clip-rule="evenodd" d="M17.7888 6.24354C17.7888 7.0333 17.2266 7.99258 15.7882 8.82669C14.383 9.64151 12.3558 10.1871 10.0463 10.1871C7.73684 10.1871 5.70965 9.64151 4.30451 8.82669C2.86609 7.99258 2.30391 7.0333 2.30391 6.24354C2.30391 5.45378 2.86609 4.49451 4.30451 3.6604C5.70965 2.84558 7.73684 2.3 10.0463 2.3C12.3558 2.3 14.383 2.84558 15.7882 3.6604C17.2266 4.49451 17.7888 5.45378 17.7888 6.24354ZM19.0888 6.24354C19.0888 7.17234 18.6723 8.04474 17.9418 8.80138C18.272 9.14412 18.5379 9.51057 18.7297 9.89521C18.3085 9.80746 17.8719 9.76133 17.4246 9.76133C17.3059 9.76133 17.188 9.76458 17.0709 9.77099C17.0297 9.72598 16.9866 9.68099 16.9414 9.63608C16.8579 9.69306 16.7724 9.74899 16.6849 9.80384C15.5107 9.93968 14.4339 10.395 13.5435 11.0805C12.4677 11.3424 11.2862 11.4871 10.0463 11.4871C7.28085 11.4871 4.80533 10.7672 3.14666 9.63292C2.55099 10.2241 2.3 10.8275 2.3 11.3552C2.3 12.1449 2.86218 13.1042 4.3006 13.9383C5.70575 14.7531 7.73293 15.2987 10.0424 15.2987C10.4079 15.2987 10.7664 15.285 11.1164 15.2588C11.0775 15.5431 11.0575 15.8335 11.0575 16.1285C11.0575 16.2752 11.0624 16.4208 11.0722 16.5651C10.7342 16.5873 10.3906 16.5987 10.0424 16.5987C7.17911 16.5987 4.62662 15.827 2.96981 14.6226C2.5009 15.1529 2.3 15.6856 2.3 16.1577C2.3 16.9475 2.86218 17.9068 4.3006 18.7409C5.70575 19.5557 7.73293 20.1013 10.0424 20.1013C10.8357 20.1013 11.5956 20.0369 12.3085 19.9194C12.6153 20.3328 12.971 20.7077 13.3671 21.0355C12.338 21.2716 11.2163 21.4013 10.0424 21.4013C5.04844 21.4013 1 19.0537 1 16.1577C1 15.2923 1.36153 14.4759 2.0018 13.7564C1.36153 13.037 1 12.2206 1 11.3552C1 10.4264 1.41644 9.55396 2.14696 8.79732C1.41887 8.04163 1.00391 7.17069 1.00391 6.24354C1.00391 3.34761 5.05234 1 10.0463 1C15.0403 1 19.0888 3.34761 19.0888 6.24354Z" fill="currentColor"/>
</svg>
