<svg width="24" height="24" viewBox="0 0 24 24" fill="none" xmlns="http://www.w3.org/2000/svg">
<path fill-rule="evenodd" clip-rule="evenodd" d="M6 2.75977C4.74764 2.75977 3.75 3.76049 3.75 4.97974V15.8898C3.75 17.109 4.74764 18.1097 6 18.1097H6.75C7.73267 18.1097 8.69438 18.4943 9.39874 19.1978C9.39927 19.1983 9.3998 19.1989 9.40033 19.1994L11.1069 20.886C11.5948 21.3673 12.3949 21.3676 12.8828 20.8863L14.5897 19.1994C14.5902 19.1988 14.5908 19.1983 14.5913 19.1977C15.2948 18.4952 16.246 18.1097 17.24 18.1097H18C19.2507 18.1097 20.25 17.1007 20.25 15.8898V4.97974C20.25 3.76049 19.2524 2.75977 18 2.75977H6ZM2.25 4.97974C2.25 2.91898 3.93236 1.25977 6 1.25977H18C20.0676 1.25977 21.75 2.91898 21.75 4.97974V15.8898C21.75 17.9389 20.0693 19.6097 18 19.6097H17.24C16.6347 19.6097 16.0667 19.8436 15.6503 20.2601L15.6472 20.2632L13.9372 21.9532C12.8651 23.0115 11.1252 23.0118 10.0531 21.9535L8.3428 20.2632L8.33966 20.2601C7.92416 19.8446 7.34659 19.6097 6.75 19.6097H6C3.93236 19.6097 2.25 17.9505 2.25 15.8898V4.97974Z" fill="currentColor"/>
<path fill-rule="evenodd" clip-rule="evenodd" d="M11.9999 6.08984C11.1273 6.08984 10.4199 6.79722 10.4199 7.6698C10.4199 8.54241 11.1273 9.24982 11.9999 9.24982C12.8725 9.24982 13.58 8.54241 13.58 7.6698C13.58 6.79722 12.8726 6.08984 11.9999 6.08984ZM8.91992 7.6698C8.91992 5.96874 10.2989 4.58984 11.9999 4.58984C13.701 4.58984 15.08 5.96874 15.08 7.6698C15.08 9.37084 13.701 10.7498 11.9999 10.7498C10.2989 10.7498 8.91992 9.37084 8.91992 7.6698Z" fill="currentColor"/>
<path fill-rule="evenodd" clip-rule="evenodd" d="M7.25 15.6603C7.25 13.3101 9.52631 11.6504 12 11.6504C14.4737 11.6504 16.75 13.3101 16.75 15.6603C16.75 16.0746 16.4142 16.4103 16 16.4103C15.5858 16.4103 15.25 16.0746 15.25 15.6603C15.25 14.4105 13.9463 13.1504 12 13.1504C10.0537 13.1504 8.75 14.4105 8.75 15.6603C8.75 16.0746 8.41421 16.4103 8 16.4103C7.58579 16.4103 7.25 16.0746 7.25 15.6603Z" fill="currentColor"/>
</svg>
