<svg width="24" height="24" viewBox="0 0 24 24" fill="none" xmlns="http://www.w3.org/2000/svg">
<path fill-rule="evenodd" clip-rule="evenodd" d="M13.75 19.5C13.75 19.0858 14.0858 18.75 14.5 18.75H18.5C18.9142 18.75 19.25 19.0858 19.25 19.5C19.25 19.9142 18.9142 20.25 18.5 20.25H14.5C14.0858 20.25 13.75 19.9142 13.75 19.5Z" fill="currentColor"/>
<path fill-rule="evenodd" clip-rule="evenodd" d="M16.5 16.75C16.9142 16.75 17.25 17.0858 17.25 17.5V21.5C17.25 21.9142 16.9142 22.25 16.5 22.25C16.0858 22.25 15.75 21.9142 15.75 21.5V17.5C15.75 17.0858 16.0858 16.75 16.5 16.75Z" fill="currentColor"/>
<path fill-rule="evenodd" clip-rule="evenodd" d="M11.9896 2.75C9.95323 2.75 8.3013 4.40413 8.3096 6.43694L8.30961 6.44C8.30961 8.42302 9.85868 10.032 11.8145 10.1189C11.9331 10.1106 12.0583 10.1102 12.1765 10.1188C14.1229 10.0308 15.6796 8.42113 15.6796 6.44C15.6796 4.40421 14.0254 2.75 11.9896 2.75ZM6.80961 6.44153C6.79874 3.57504 9.1265 1.25 11.9896 1.25C14.8538 1.25 17.1796 3.57579 17.1796 6.44C17.1796 9.24456 14.9588 11.5259 12.1849 11.6196C12.1516 11.6207 12.1182 11.6196 12.085 11.6163C12.0368 11.6115 11.9647 11.6108 11.8975 11.6169C11.8666 11.6197 11.8355 11.6206 11.8044 11.6196C9.01971 11.526 6.81041 9.2442 6.80961 6.44153Z" fill="currentColor"/>
<path fill-rule="evenodd" clip-rule="evenodd" d="M11.985 13.9297C10.2841 13.9297 8.62289 14.3629 7.39711 15.183L7.39547 15.1841L7.39547 15.1841C6.34204 15.885 5.91504 16.7352 5.91504 17.4909C5.91504 18.247 6.34244 19.1001 7.39668 19.8061C8.62825 20.6269 10.2849 21.0597 11.99 21.0597C12.4043 21.0597 12.74 21.3955 12.74 21.8097C12.74 22.2239 12.4043 22.5597 11.99 22.5597C10.0554 22.5597 8.09238 22.0726 6.56401 21.0537L6.56283 21.0529C5.19748 20.1389 4.41504 18.8623 4.41504 17.4909C4.41504 16.1194 5.19772 14.8449 6.56379 13.9358C8.08789 12.9163 10.0563 12.4297 11.985 12.4297C13.9141 12.4297 15.8829 12.9165 17.4071 13.9363C17.7514 14.1667 17.8437 14.6325 17.6134 14.9768C17.383 15.321 16.9172 15.4134 16.573 15.183C15.3472 14.3629 13.686 13.9297 11.985 13.9297Z" fill="currentColor"/>
</svg>
