<svg width="24" height="24" viewBox="0 0 24 24" fill="none" xmlns="http://www.w3.org/2000/svg">
<path fill-rule="evenodd" clip-rule="evenodd" d="M8.99957 2.75C6.95488 2.75 5.30957 4.40311 5.30957 6.44C5.30957 8.42302 6.85865 10.032 8.81446 10.1189C8.93306 10.1106 9.05836 10.1102 9.17657 10.1188C11.1305 10.031 12.6805 8.42308 12.6896 6.43847C12.6887 4.40339 11.0348 2.75 8.99957 2.75ZM3.80957 6.44C3.80957 3.57689 6.12426 1.25 8.99957 1.25C11.8638 1.25 14.1896 3.57579 14.1896 6.44L14.1896 6.44313C14.1779 9.24352 11.9705 11.5259 9.18477 11.6196C9.15146 11.6207 9.11811 11.6196 9.08494 11.6163C9.03672 11.6115 8.96466 11.6108 8.89747 11.6169C8.86652 11.6197 8.83543 11.6206 8.80437 11.6196C6.01917 11.526 3.80957 9.24337 3.80957 6.44Z" fill="currentColor"/>
<path fill-rule="evenodd" clip-rule="evenodd" d="M15.6603 4C15.6603 3.58579 15.9961 3.25 16.4103 3.25C18.7659 3.25 20.6603 5.15718 20.6603 7.5C20.6603 9.79545 18.8393 11.6645 16.5684 11.7495C16.528 11.751 16.4875 11.7492 16.4473 11.7442C16.4323 11.7423 16.4018 11.7411 16.3632 11.7454C15.9515 11.7912 15.5807 11.4945 15.5349 11.0828C15.4892 10.6711 15.7858 10.3003 16.1975 10.2546C16.3153 10.2415 16.4387 10.2385 16.5604 10.2483C18.0071 10.169 19.1603 8.9683 19.1603 7.5C19.1603 5.98282 17.9347 4.75 16.4103 4.75C15.9961 4.75 15.6603 4.41421 15.6603 4Z" fill="currentColor"/>
<path fill-rule="evenodd" clip-rule="evenodd" d="M9.17223 12.4375C11.1004 12.4375 13.0667 12.9214 14.5863 13.9363C15.9522 14.8454 16.7347 16.1198 16.7347 17.4913C16.7347 18.8626 15.9523 20.1393 14.5869 21.0532L14.5868 21.0533C13.0626 22.0732 11.0938 22.56 9.16473 22.56C7.23602 22.56 5.26764 22.0734 3.74355 21.0539C2.37744 20.1448 1.59473 18.8703 1.59473 17.4987C1.59473 16.1274 2.37717 14.8507 3.74251 13.9368L3.74527 13.9349L3.74527 13.9349C5.2737 12.9215 7.24379 12.4375 9.17223 12.4375ZM4.57556 15.1842C3.52191 15.89 3.09473 16.7429 3.09473 17.4987C3.09473 18.2544 3.52173 19.1047 4.57516 19.8056L4.5768 19.8067C5.80258 20.6268 7.46381 21.06 9.16473 21.06C10.8656 21.06 12.5267 20.6269 13.7525 19.8068C14.8072 19.1007 15.2347 18.2474 15.2347 17.4913C15.2347 16.7355 14.8077 15.8853 13.7543 15.1844L13.7532 15.1837C12.5327 14.3686 10.874 13.9375 9.17223 13.9375C7.4713 13.9375 5.80699 14.3682 4.57556 15.1842Z" fill="currentColor"/>
<path fill-rule="evenodd" clip-rule="evenodd" d="M17.6383 13.8353C17.7294 13.4312 18.1308 13.1775 18.5349 13.2685C19.3243 13.4464 20.099 13.7638 20.7526 14.2621C21.6937 14.969 22.22 15.9542 22.22 16.9952C22.22 18.0359 21.694 19.0208 20.7534 19.7276C20.092 20.2346 19.3053 20.5652 18.493 20.7344C18.0875 20.8189 17.6902 20.5586 17.6058 20.1531C17.5213 19.7476 17.7815 19.3504 18.187 19.2659C18.8133 19.1355 19.3854 18.8869 19.8432 18.5353L19.85 18.5301L19.85 18.5302C20.4673 18.0672 20.72 17.5032 20.72 16.9952C20.72 16.4871 20.4673 15.9231 19.85 15.4602L19.8448 15.4563L19.8448 15.4562C19.3989 15.1157 18.8347 14.8737 18.2051 14.7318C17.801 14.6408 17.5473 14.2394 17.6383 13.8353Z" fill="currentColor"/>
</svg>
