<svg width="24" height="24" viewBox="0 0 24 24" fill="none" xmlns="http://www.w3.org/2000/svg">
<path fill-rule="evenodd" clip-rule="evenodd" d="M1.94124 13.5048C2.48664 12.9251 3.26514 12.75 4.1 12.75H19.9C20.7349 12.75 21.5134 12.9251 22.0588 13.5048C22.5933 14.0731 22.75 14.8697 22.75 15.73V19.77C22.75 20.6303 22.5933 21.4269 22.0588 21.9952C21.5134 22.5749 20.7349 22.75 19.9 22.75H4.1C3.26514 22.75 2.48664 22.5749 1.94124 21.9952C1.40666 21.4269 1.25 20.6303 1.25 19.77V15.73C1.25 14.8697 1.40666 14.0731 1.94124 13.5048ZM3.03376 14.5327C2.89334 14.6819 2.75 15.0003 2.75 15.73V19.77C2.75 20.4997 2.89334 20.8181 3.03376 20.9673C3.16336 21.1051 3.43486 21.25 4.1 21.25H19.9C20.5651 21.25 20.8366 21.1051 20.9662 20.9673C21.1067 20.8181 21.25 20.4997 21.25 19.77V15.73C21.25 15.0003 21.1067 14.6819 20.9662 14.5327C20.8366 14.3949 20.5651 14.25 19.9 14.25H4.1C3.43486 14.25 3.16336 14.3949 3.03376 14.5327Z" fill="currentColor"/>
<path fill-rule="evenodd" clip-rule="evenodd" d="M1.94124 2.00485C2.48664 1.4251 3.26514 1.25 4.1 1.25H19.9C20.7349 1.25 21.5134 1.4251 22.0588 2.00485C22.5933 2.57309 22.75 3.36968 22.75 4.23V8.27C22.75 9.13032 22.5933 9.92691 22.0588 10.4952C21.5134 11.0749 20.7349 11.25 19.9 11.25H4.1C3.26514 11.25 2.48664 11.0749 1.94124 10.4952C1.40666 9.92691 1.25 9.13032 1.25 8.27V4.23C1.25 3.36968 1.40666 2.57309 1.94124 2.00485ZM3.03376 3.03265C2.89334 3.18191 2.75 3.50032 2.75 4.23V8.27C2.75 8.99969 2.89334 9.31809 3.03376 9.46735C3.16336 9.6051 3.43486 9.75 4.1 9.75H19.9C20.5651 9.75 20.8366 9.6051 20.9662 9.46735C21.1067 9.31809 21.25 8.99969 21.25 8.27V4.23C21.25 3.50032 21.1067 3.18191 20.9662 3.03265C20.8366 2.8949 20.5651 2.75 19.9 2.75H4.1C3.43486 2.75 3.16336 2.8949 3.03376 3.03265Z" fill="currentColor"/>
</svg>
