<svg width="24" height="24" viewBox="0 0 24 24" fill="none" xmlns="http://www.w3.org/2000/svg">
<path fill-rule="evenodd" clip-rule="evenodd" d="M13.5206 1.90059C14.0878 1.39665 14.8765 1.25 15.73 1.25H19.77C20.6235 1.25 21.4122 1.39665 21.9794 1.90059C22.5692 2.42461 22.75 3.17847 22.75 3.98V8.52C22.75 9.32097 22.5694 10.076 21.9783 10.5991C21.4101 11.102 20.6208 11.2451 19.7678 11.24H15.73C14.8791 11.24 14.0897 11.0968 13.5217 10.5941C12.9301 10.0706 12.75 9.31497 12.75 8.51V3.98C12.75 3.17847 12.9308 2.42461 13.5206 1.90059ZM14.5169 3.02191C14.3892 3.13539 14.25 3.37153 14.25 3.98V8.51C14.25 9.12503 14.3899 9.35945 14.5158 9.47087C14.6653 9.60316 14.9909 9.74 15.73 9.74H19.7747C20.5108 9.74463 20.8355 9.60746 20.9842 9.47586C21.1106 9.36402 21.25 9.12903 21.25 8.52V3.98C21.25 3.37153 21.1108 3.13539 20.9831 3.02191C20.8328 2.88835 20.5065 2.75 19.77 2.75H15.73C14.9935 2.75 14.6672 2.88835 14.5169 3.02191Z" fill="currentColor"/>
<path fill-rule="evenodd" clip-rule="evenodd" d="M13.4884 13.4884C14.0562 12.9207 14.8599 12.75 15.73 12.75H19.77C20.6401 12.75 21.4438 12.9207 22.0116 13.4884C22.5793 14.0562 22.75 14.8599 22.75 15.73V19.77C22.75 20.6401 22.5793 21.4438 22.0116 22.0116C21.4438 22.5793 20.6401 22.75 19.77 22.75H15.73C14.8599 22.75 14.0562 22.5793 13.4884 22.0116C12.9207 21.4438 12.75 20.6401 12.75 19.77V15.73C12.75 14.8599 12.9207 14.0562 13.4884 13.4884ZM14.5491 14.5491C14.3993 14.6988 14.25 15.0101 14.25 15.73V19.77C14.25 20.4899 14.3993 20.8012 14.5491 20.9509C14.6988 21.1007 15.0101 21.25 15.73 21.25H19.77C20.4899 21.25 20.8012 21.1007 20.9509 20.9509C21.1007 20.8012 21.25 20.4899 21.25 19.77V15.73C21.25 15.0101 21.1007 14.6988 20.9509 14.5491C20.8012 14.3993 20.4899 14.25 19.77 14.25H15.73C15.0101 14.25 14.6988 14.3993 14.5491 14.5491Z" fill="currentColor"/>
<path fill-rule="evenodd" clip-rule="evenodd" d="M2.0206 1.90059C2.58777 1.39665 3.37645 1.25 4.23 1.25H8.27C9.12355 1.25 9.91223 1.39665 10.4794 1.90059C11.0692 2.42461 11.25 3.17847 11.25 3.98V8.52C11.25 9.32097 11.0694 10.076 10.4783 10.5991C9.91006 11.102 9.12079 11.2451 8.26778 11.24H4.23C3.37912 11.24 2.58971 11.0968 2.02169 10.5941C1.43009 10.0706 1.25 9.31497 1.25 8.51V3.98C1.25 3.17847 1.43081 2.42461 2.0206 1.90059ZM3.0169 3.02191C2.88919 3.13539 2.75 3.37153 2.75 3.98V8.51C2.75 9.12503 2.88991 9.35945 3.01581 9.47087C3.16529 9.60316 3.49088 9.74 4.23 9.74H8.27472C9.01075 9.74463 9.3355 9.60746 9.48419 9.47586C9.61057 9.36402 9.75 9.12903 9.75 8.52V3.98C9.75 3.37153 9.61081 3.13539 9.4831 3.02191C9.33277 2.88835 9.00645 2.75 8.27 2.75H4.23C3.49355 2.75 3.16723 2.88835 3.0169 3.02191Z" fill="currentColor"/>
<path fill-rule="evenodd" clip-rule="evenodd" d="M1.98842 13.4884C2.55615 12.9207 3.35988 12.75 4.23 12.75H8.27C9.14012 12.75 9.94385 12.9207 10.5116 13.4884C11.0793 14.0562 11.25 14.8599 11.25 15.73V19.77C11.25 20.6401 11.0793 21.4438 10.5116 22.0116C9.94385 22.5793 9.14012 22.75 8.27 22.75H4.23C3.35988 22.75 2.55615 22.5793 1.98842 22.0116C1.42069 21.4438 1.25 20.6401 1.25 19.77V15.73C1.25 14.8599 1.42069 14.0562 1.98842 13.4884ZM3.04908 14.5491C2.89931 14.6988 2.75 15.0101 2.75 15.73V19.77C2.75 20.4899 2.89931 20.8012 3.04908 20.9509C3.19885 21.1007 3.51012 21.25 4.23 21.25H8.27C8.98988 21.25 9.30115 21.1007 9.45092 20.9509C9.60069 20.8012 9.75 20.4899 9.75 19.77V15.73C9.75 15.0101 9.60069 14.6988 9.45092 14.5491C9.30115 14.3993 8.98988 14.25 8.27 14.25H4.23C3.51012 14.25 3.19885 14.3993 3.04908 14.5491Z" fill="currentColor"/>
</svg>
