<svg width="24" height="24" viewBox="0 0 24 24" fill="none" xmlns="http://www.w3.org/2000/svg">
<path fill-rule="evenodd" clip-rule="evenodd" d="M5.53916 2.64512C6.16257 2.18896 6.93978 1.90039 7.71954 1.90039H11.5195C11.892 1.90039 12.3363 1.96087 12.7506 2.07925C13.1314 2.18804 13.5806 2.37193 13.9109 2.68233L16.9787 5.05735L16.0604 6.24343L12.9228 3.81433L12.8892 3.78072C12.8226 3.71407 12.6426 3.6084 12.3385 3.52153C12.0528 3.43991 11.7471 3.40039 11.5195 3.40039H7.71954C7.29931 3.40039 6.82652 3.56182 6.42493 3.85566C6.02387 4.14912 5.74641 4.53525 5.64715 4.93229L5.64054 4.95874L3.22905 12.2937L3.22585 12.3026C3.04987 12.7954 3.13799 13.1789 3.32334 13.4305C3.51222 13.6868 3.87246 13.9004 4.41954 13.9004H8.41954C9.46289 13.9004 10.3284 14.7918 10.162 15.9565L10.1606 15.9662L9.65687 19.1898L9.65168 19.2131C9.54101 19.7111 9.89468 20.3515 10.4567 20.5389L10.4699 20.5433L10.4829 20.5481C10.6859 20.6243 10.9526 20.6225 11.2257 20.5286C11.5039 20.433 11.7046 20.2707 11.7955 20.1344L11.7971 20.132L15.8971 14.032L17.142 14.8688L13.0436 20.9664C13.0433 20.9668 13.043 20.9673 13.0427 20.9677C12.7336 21.4307 12.2347 21.7679 11.7134 21.9472C11.1903 22.1269 10.5625 22.1758 9.9693 21.9575C8.74653 21.5424 7.91013 20.2028 8.18187 18.9132L8.67762 15.7404C8.69651 15.6016 8.65573 15.525 8.61967 15.4841C8.57784 15.4367 8.50939 15.4004 8.41954 15.4004H4.41954C3.46663 15.4004 2.62687 15.014 2.11575 14.3203C1.6029 13.6243 1.49001 12.7118 1.80985 11.8077L4.19917 4.54016C4.40501 3.74991 4.92257 3.09628 5.53916 2.64512Z" fill="currentColor"/>
<path fill-rule="evenodd" clip-rule="evenodd" d="M17.6038 4.7261C17.5051 4.81722 17.3701 5.03451 17.3701 5.65V15.45C17.3701 16.0655 17.5051 16.2828 17.6038 16.3739C17.7173 16.4786 17.9776 16.6 18.6201 16.6H19.6201C20.2626 16.6 20.523 16.4786 20.6364 16.3739C20.7351 16.2828 20.8701 16.0655 20.8701 15.45V5.65C20.8701 5.03451 20.7351 4.81722 20.6364 4.7261C20.523 4.62138 20.2626 4.5 19.6201 4.5H18.6201C17.9776 4.5 17.7173 4.62138 17.6038 4.7261ZM16.5864 3.6239C17.123 3.12862 17.8626 3 18.6201 3H19.6201C20.3776 3 21.1173 3.12862 21.6538 3.6239C22.2051 4.13278 22.3701 4.86549 22.3701 5.65V15.45C22.3701 16.2345 22.2051 16.9672 21.6538 17.4761C21.1173 17.9714 20.3776 18.1 19.6201 18.1H18.6201C17.8626 18.1 17.123 17.9714 16.5864 17.4761C16.0351 16.9672 15.8701 16.2345 15.8701 15.45V5.65C15.8701 4.86549 16.0351 4.13278 16.5864 3.6239Z" fill="currentColor"/>
</svg>
