<svg width="24" height="24" viewBox="0 0 24 24" fill="none" xmlns="http://www.w3.org/2000/svg">
<path fill-rule="evenodd" clip-rule="evenodd" d="M14.0301 2.04335C15.2529 2.45842 16.0893 3.79803 15.8176 5.08763L15.3218 8.26043C15.3029 8.39931 15.3437 8.47589 15.3798 8.51677C15.4216 8.56417 15.49 8.60048 15.5799 8.60048H19.5799C20.5328 8.60048 21.3726 8.98692 21.8837 9.68058C22.3965 10.3766 22.5094 11.2891 22.1896 12.1932L19.8003 19.4607C19.5944 20.251 19.0769 20.9046 18.4603 21.3558C17.8369 21.8119 17.0597 22.1005 16.2799 22.1005H12.4799C12.1075 22.1005 11.6632 22.04 11.2488 21.9216C10.8681 21.8128 10.4188 21.6289 10.0885 21.3185L7.02076 18.9435L7.93902 17.7574L11.0766 20.1865L11.1102 20.2201C11.1769 20.2868 11.3569 20.3925 11.6609 20.4793C11.9466 20.561 12.2523 20.6005 12.4799 20.6005H16.2799C16.7001 20.6005 17.1729 20.4391 17.5745 20.1452C17.9756 19.8518 18.253 19.4656 18.3523 19.0686L18.3589 19.0421L20.7704 11.7072L20.7736 11.6982C20.9496 11.2055 20.8614 10.8219 20.6761 10.5704C20.4872 10.314 20.127 10.1005 19.5799 10.1005H15.5799C14.5365 10.1005 13.671 9.20908 13.8374 8.04441L13.8388 8.03469L14.3426 4.8111L14.3477 4.78778C14.4584 4.28976 14.1047 3.64934 13.5427 3.46199L13.5295 3.4576L13.5165 3.45273C13.3136 3.37661 13.0468 3.37836 12.7737 3.47225C12.4955 3.56787 12.2948 3.73018 12.2039 3.86651L12.2024 3.86886L8.10235 9.96886L6.85742 9.1321L10.9558 3.03446C10.9561 3.03401 10.9564 3.03357 10.9567 3.03313C11.2659 2.57014 11.7647 2.23292 12.2861 2.05372C12.8091 1.87393 13.4369 1.82507 14.0301 2.04335Z" fill="currentColor"/>
<path fill-rule="evenodd" clip-rule="evenodd" d="M3.36359 7.62649C3.26488 7.71762 3.12988 7.9349 3.12988 8.55039V18.3504C3.12988 18.9659 3.26488 19.1832 3.36359 19.2743C3.47705 19.379 3.73737 19.5004 4.37988 19.5004H5.37988C6.0224 19.5004 6.28272 19.379 6.39617 19.2743C6.49489 19.1832 6.62988 18.9659 6.62988 18.3504V8.55039C6.62988 7.9349 6.49489 7.71762 6.39617 7.62649C6.28272 7.52177 6.0224 7.40039 5.37988 7.40039H4.37988C3.73737 7.40039 3.47705 7.52177 3.36359 7.62649ZM2.34617 6.52429C2.88272 6.02902 3.6224 5.90039 4.37988 5.90039H5.37988C6.13737 5.90039 6.87705 6.02902 7.41359 6.52429C7.96488 7.03317 8.12988 7.76588 8.12988 8.55039V18.3504C8.12988 19.1349 7.96488 19.8676 7.41359 20.3765C6.87705 20.8718 6.13737 21.0004 5.37988 21.0004H4.37988C3.6224 21.0004 2.88272 20.8718 2.34617 20.3765C1.79489 19.8676 1.62988 19.1349 1.62988 18.3504V8.55039C1.62988 7.76588 1.79489 7.03317 2.34617 6.52429Z" fill="currentColor"/>
</svg>
