<svg width="24" height="24" viewBox="0 0 24 24" fill="none" xmlns="http://www.w3.org/2000/svg">
<path fill-rule="evenodd" clip-rule="evenodd" d="M12.8319 16.5488C13.1248 16.8417 13.1248 17.3165 12.8319 17.6094L11.6319 18.8094C11.339 19.1023 10.8641 19.1023 10.5712 18.8094C10.2783 18.5165 10.2783 18.0417 10.5712 17.7488L11.7712 16.5488C12.0641 16.2559 12.539 16.2559 12.8319 16.5488Z" fill="currentColor"/>
<path fill-rule="evenodd" clip-rule="evenodd" d="M12.8935 2.751C12.4357 2.75389 11.8358 3.06463 10.7716 4.12884L4.1316 10.7688C3.06155 11.8389 2.75217 12.438 2.75001 12.8933C2.74787 13.345 3.04756 13.9341 4.1016 14.9882L9.0116 19.8982C10.0639 20.9505 10.6558 21.2489 11.109 21.246C11.5668 21.2431 12.1667 20.9324 13.2309 19.8682L19.8709 13.2282C20.9351 12.164 21.2459 11.5641 21.2488 11.1063C21.2516 10.653 20.9533 10.0612 19.9009 9.00884L14.9909 4.09884C13.9386 3.04652 13.3468 2.74814 12.8935 2.751ZM12.884 1.25103C14.0158 1.24389 15.0039 1.99051 16.0516 3.03818L20.9616 7.94818C22.0093 8.99586 22.7559 9.98402 22.7488 11.1157C22.7416 12.2429 21.9874 13.2331 20.9316 14.2888L14.2916 20.9288C13.2358 21.9846 12.2457 22.7389 11.1185 22.746C9.98678 22.7531 8.99861 22.0065 7.95094 20.9588L3.04094 16.0488C1.99498 15.0029 1.24467 14.0171 1.25003 12.8862C1.25537 11.759 2.01099 10.7681 3.07094 9.70818L9.71094 3.06818C10.7667 2.01239 11.7568 1.25814 12.884 1.25103Z" fill="currentColor"/>
<path fill-rule="evenodd" clip-rule="evenodd" d="M1.25 21.998C1.25 21.5838 1.58579 21.248 2 21.248H22C22.4142 21.248 22.75 21.5838 22.75 21.998C22.75 22.4123 22.4142 22.748 22 22.748H2C1.58579 22.748 1.25 22.4123 1.25 21.998Z" fill="currentColor"/>
</svg>
