<svg width="24" height="24" viewBox="0 0 24 24" fill="none" xmlns="http://www.w3.org/2000/svg">
<path fill-rule="evenodd" clip-rule="evenodd" d="M8.76834 10.6427C9.6116 10.9303 10.1764 11.8561 9.9978 12.7452L9.73867 14.3804H11.8298C12.4631 14.3804 13.0473 14.6395 13.4094 15.1298C13.7732 15.6224 13.8451 16.2578 13.6292 16.8642L12.2702 21.0005C11.9948 22.0489 10.9318 22.7404 9.94981 22.7404H7.77981C7.53594 22.7404 7.25263 22.7034 6.98678 22.6286C6.7525 22.5627 6.44418 22.4435 6.20093 22.2204L4.46075 20.8735L5.37887 19.6873L7.1865 21.0864L7.21271 21.1126C7.21678 21.1153 7.22613 21.1211 7.24235 21.1292C7.2771 21.1465 7.32761 21.1663 7.39285 21.1846C7.52699 21.2224 7.67369 21.2404 7.77981 21.2404H9.94981C10.3383 21.2404 10.7441 20.9254 10.8216 20.611L10.8284 20.5834L12.2108 16.3755L12.2147 16.3648C12.2836 16.1747 12.2391 16.0701 12.2028 16.0209C12.1624 15.9662 12.0566 15.8804 11.8298 15.8804H9.53981C8.75553 15.8804 8.098 15.1965 8.22811 14.3291L8.22903 14.3229L8.5223 12.4725L8.52667 12.4522C8.55251 12.3324 8.44572 12.1162 8.28264 12.0619L8.27117 12.058L8.25982 12.0538C8.22587 12.0413 8.15033 12.0329 8.04772 12.0683C8 12.0847 7.95822 12.107 7.92633 12.1298C7.91077 12.141 7.8993 12.1511 7.89146 12.1589C7.88475 12.1656 7.88167 12.1697 7.8811 12.1705C7.88105 12.1706 7.88111 12.1705 7.8811 12.1705L5.54275 15.658L4.29688 14.8227L6.6386 11.3301C6.86229 10.9995 7.20967 10.7704 7.55941 10.65C7.91111 10.5289 8.34588 10.4901 8.76834 10.6427Z" fill="currentColor"/>
<path fill-rule="evenodd" clip-rule="evenodd" d="M2.7862 14.3834C2.7739 14.413 2.75 14.4956 2.75 14.6799V20.2799C2.75 20.4626 2.77275 20.5466 2.78511 20.5781C2.81671 20.5908 2.91317 20.6199 3.14 20.6199H3.71C3.93918 20.6199 4.03422 20.589 4.06383 20.5763C4.07612 20.5467 4.1 20.4641 4.1 20.2799V14.6799C4.1 14.4956 4.07609 14.413 4.0638 14.3834C4.03422 14.3707 3.9392 14.3398 3.71 14.3398H3.14C2.9108 14.3398 2.81578 14.3707 2.7862 14.3834ZM2.79331 14.3696C2.79339 14.3697 2.79267 14.371 2.79095 14.3732C2.79238 14.3706 2.79324 14.3695 2.79331 14.3696ZM4.05668 14.3696C4.05676 14.3695 4.05762 14.3706 4.05905 14.3732C4.05733 14.371 4.05661 14.3697 4.05668 14.3696ZM4.05671 20.5902C4.05663 20.5901 4.05735 20.5888 4.05907 20.5865C4.05764 20.5891 4.05678 20.5903 4.05671 20.5902ZM2.79286 20.5939C2.79279 20.594 2.79194 20.5929 2.79053 20.5902C2.79222 20.5925 2.79293 20.5938 2.79286 20.5939ZM1.75849 13.2864C2.15484 12.9168 2.68044 12.8398 3.14 12.8398H3.71C4.16956 12.8398 4.69516 12.9168 5.09151 13.2864C5.50064 13.6679 5.6 14.1968 5.6 14.6799V20.2799C5.6 20.7631 5.50064 21.2919 5.09146 21.6734C4.69509 22.043 4.1695 22.1199 3.71 22.1199H3.14C2.68583 22.1199 2.15863 22.0475 1.76053 21.679C1.34811 21.2973 1.25 20.7652 1.25 20.2799V14.6799C1.25 14.1968 1.34936 13.6679 1.75849 13.2864Z" fill="currentColor"/>
<path fill-rule="evenodd" clip-rule="evenodd" d="M11.7292 2.99963C12.0046 1.9512 13.0676 1.25977 14.0496 1.25977H16.2196C16.4635 1.25977 16.7468 1.29674 17.0127 1.3715C17.247 1.43739 17.5553 1.5566 17.7985 1.77973L19.5387 3.12663L18.6206 4.31282L16.813 2.91371L16.7867 2.88749C16.7827 2.88481 16.7733 2.87898 16.7571 2.8709C16.7224 2.85359 16.6718 2.83384 16.6066 2.81549C16.4725 2.77777 16.3258 2.75977 16.2196 2.75977H14.0496C13.6612 2.75977 13.2553 3.07473 13.1779 3.38913L13.1711 3.41677L11.7886 7.62466L11.7847 7.63536C11.7158 7.82545 11.7604 7.93002 11.7967 7.97919C11.8371 8.03389 11.9429 8.11975 12.1696 8.11975H14.4596C15.2439 8.11975 15.9015 8.80365 15.7713 9.67107L15.7704 9.67721L15.4772 11.5276L15.4728 11.5479C15.4469 11.6677 15.5537 11.8839 15.7168 11.9383L15.7283 11.9421L15.7396 11.9463C15.7736 11.9588 15.8491 11.9672 15.9517 11.9319C15.9995 11.9154 16.0412 11.8932 16.0731 11.8703C16.0887 11.8591 16.1002 11.8491 16.108 11.8412C16.1147 11.8345 16.1178 11.8304 16.1184 11.8296C16.1185 11.8295 16.1184 11.8295 16.1184 11.8296L18.4567 8.34209L19.7026 9.17744L17.3626 12.6674L17.3609 12.67C17.1372 13.0007 16.7898 13.2298 16.44 13.3502C16.0883 13.4713 15.6536 13.51 15.2311 13.3575C14.3879 13.0698 13.823 12.1441 14.0017 11.2549L14.2608 9.61975H12.1696C11.5364 9.61975 10.9522 9.36062 10.5901 8.87032C10.2263 8.3777 10.1544 7.74233 10.3703 7.13597L11.7292 2.99963Z" fill="currentColor"/>
<path fill-rule="evenodd" clip-rule="evenodd" d="M19.9366 3.42342C19.9243 3.45309 19.9004 3.53565 19.9004 3.71985V9.31982C19.9004 9.50413 19.9243 9.58671 19.9366 9.61635C19.9662 9.62903 20.0612 9.65991 20.2904 9.65991H20.8604C21.0896 9.65991 21.1846 9.62903 21.2142 9.61635C21.2265 9.58671 21.2504 9.50413 21.2504 9.31982V3.71985C21.2504 3.53719 21.2276 3.4532 21.2153 3.42167C21.1837 3.40898 21.0872 3.37988 20.8604 3.37988H20.2904C20.0612 3.37988 19.9662 3.41074 19.9366 3.42342ZM19.9437 3.40959C19.9438 3.40969 19.943 3.411 19.9413 3.41324C19.9427 3.41061 19.9436 3.40949 19.9437 3.40959ZM21.2075 3.40586C21.2076 3.40576 21.2084 3.40689 21.2099 3.40955C21.2082 3.40729 21.2075 3.40596 21.2075 3.40586ZM21.2071 9.63016C21.207 9.63006 21.2077 9.62875 21.2094 9.62651C21.208 9.62914 21.2071 9.63026 21.2071 9.63016ZM19.9437 9.63016C19.9436 9.63026 19.9428 9.62914 19.9413 9.62651C19.9431 9.62875 19.9438 9.63006 19.9437 9.63016ZM18.9089 2.32632C19.3053 1.95675 19.8309 1.87988 20.2904 1.87988H20.8604C21.3146 1.87988 21.8418 1.95222 22.2399 2.32071C22.6523 2.70246 22.7504 3.23451 22.7504 3.71985V9.31982C22.7504 9.80299 22.651 10.3318 22.2419 10.7134C21.8455 11.083 21.3199 11.1599 20.8604 11.1599H20.2904C19.8308 11.1599 19.3052 11.083 18.9089 10.7134C18.4998 10.3318 18.4004 9.80299 18.4004 9.31982V3.71985C18.4004 3.23669 18.4997 2.70783 18.9089 2.32632Z" fill="currentColor"/>
</svg>
