<svg width="24" height="24" viewBox="0 0 24 24" fill="none" xmlns="http://www.w3.org/2000/svg">
<path fill-rule="evenodd" clip-rule="evenodd" d="M6.26 8.5C4.60422 8.5 3.25 9.85422 3.25 11.51V18.24C3.25 19.8958 4.60422 21.25 6.26 21.25H17.74C19.3958 21.25 20.75 19.8958 20.75 18.24V17.8H19.6C18.1905 17.8 16.8223 16.7693 16.693 15.2467C16.6122 14.3845 16.9405 13.579 17.5093 13.02C18.0209 12.4981 18.7224 12.2 19.48 12.2H20.75V11.51C20.75 9.85422 19.3958 8.5 17.74 8.5H6.26ZM1.75 11.51C1.75 9.0258 3.77578 7 6.26 7H17.74C20.2242 7 22.25 9.0258 22.25 11.51V12.95C22.25 13.3642 21.9142 13.7 21.5 13.7H19.48C19.1209 13.7 18.8052 13.8392 18.5774 14.0732L18.5639 14.0867C18.2978 14.3464 18.1492 14.7162 18.1866 15.1089L18.1875 15.1177L18.1874 15.1177C18.2403 15.7527 18.8509 16.3 19.6 16.3H21.5C21.9142 16.3 22.25 16.6358 22.25 17.05V18.24C22.25 20.7242 20.2242 22.75 17.74 22.75H6.26C3.77578 22.75 1.75 20.7242 1.75 18.24V11.51Z" fill="currentColor"/>
<path fill-rule="evenodd" clip-rule="evenodd" d="M14.1 3.95001C14.1 3.14248 13.293 2.5881 12.5458 2.87129L4.60542 5.87144C3.78865 6.18065 3.25 6.96046 3.25 7.84002V12.41C3.25 12.8242 2.91421 13.16 2.5 13.16C2.08579 13.16 1.75 12.8242 1.75 12.41V7.84002C1.75 6.3397 2.67154 4.99939 4.07458 4.46851L12.0142 1.46866C12.0143 1.46861 12.014 1.46872 12.0142 1.46866C13.7469 0.812233 15.6 2.09768 15.6 3.95001V7.74999C15.6 8.16421 15.2642 8.49999 14.85 8.49999C14.4358 8.49999 14.1 8.16421 14.1 7.74999V3.95001Z" fill="currentColor"/>
<path fill-rule="evenodd" clip-rule="evenodd" d="M19.4788 13.7002C19.1198 13.7002 18.804 13.8394 18.5762 14.0734L18.5627 14.0869C18.2967 14.3466 18.1481 14.7164 18.1855 15.1091L18.1863 15.1179L18.1863 15.1179C18.2392 15.7529 18.8497 16.3002 19.5988 16.3002H21.5416C21.7033 16.2897 21.8088 16.1633 21.8088 16.0302V13.9702C21.8088 13.837 21.7033 13.7106 21.5416 13.7002H19.4788ZM17.5082 13.0201C18.0198 12.4983 18.7212 12.2002 19.4788 12.2002H21.5588C21.5678 12.2002 21.5767 12.2004 21.5856 12.2007C22.5386 12.2347 23.3088 13.0059 23.3088 13.9702V16.0302C23.3088 16.9945 22.5386 17.7657 21.5856 17.7997C21.5767 17.8 21.5678 17.8002 21.5588 17.8002H19.5988C18.1893 17.8002 16.8212 16.7695 16.6918 15.2469C16.6111 14.3847 16.9394 13.5792 17.5082 13.0201Z" fill="currentColor"/>
<path fill-rule="evenodd" clip-rule="evenodd" d="M6.25 12C6.25 11.5858 6.58579 11.25 7 11.25H14C14.4142 11.25 14.75 11.5858 14.75 12C14.75 12.4142 14.4142 12.75 14 12.75H7C6.58579 12.75 6.25 12.4142 6.25 12Z" fill="currentColor"/>
</svg>
