<svg width="24" height="24" viewBox="0 0 24 24" fill="none" xmlns="http://www.w3.org/2000/svg">
<path fill-rule="evenodd" clip-rule="evenodd" d="M12 14.25C12.4142 14.25 12.75 14.5858 12.75 15V18C12.75 18.4142 12.4142 18.75 12 18.75C11.5858 18.75 11.25 18.4142 11.25 18V15C11.25 14.5858 11.5858 14.25 12 14.25Z" fill="currentColor"/>
<path fill-rule="evenodd" clip-rule="evenodd" d="M14.3993 2.24443C14.3996 2.24466 14.3999 2.24489 14.4002 2.24512L21.3307 7.78553C21.8443 8.19911 22.2292 8.80481 22.4648 9.42236C22.7005 10.0401 22.8169 10.7487 22.7105 11.4006L22.71 11.4033L21.38 19.3633L21.3797 19.3656C21.0785 21.1348 19.3972 22.5597 17.6003 22.5597H6.4003C4.5941 22.5597 2.92174 21.1453 2.62079 19.3647L1.29134 11.4079C1.29119 11.4071 1.29105 11.4062 1.2909 11.4054C1.17808 10.7515 1.29221 10.0412 1.52832 9.42236C1.76457 8.8031 2.15288 8.19697 2.67239 7.78356C2.6728 7.78324 2.67321 7.78291 2.67362 7.78259L9.60111 2.23459C10.9365 1.16408 13.0564 1.16585 14.3993 2.24443ZM13.4604 3.41429C12.6634 2.77366 11.3239 2.77585 10.5395 3.40482L3.60699 8.95682C3.34711 9.16339 3.09584 9.52179 2.92978 9.95704C2.76369 10.3924 2.71281 10.8261 2.76926 11.1515L2.77006 11.1561L4.09981 19.1147C4.09984 19.1149 4.09978 19.1145 4.09981 19.1147C4.27913 20.1738 5.32669 21.0597 6.4003 21.0597H17.6003C18.663 21.0597 19.7213 20.1653 19.9007 19.115C19.9008 19.1146 19.9009 19.1142 19.9009 19.1139L21.2301 11.1589C21.2302 11.1584 21.2302 11.1579 21.2303 11.1575C21.2835 10.8295 21.2299 10.3937 21.0633 9.95704C20.8966 9.52011 20.6469 9.16112 20.3908 8.95459C20.3905 8.95435 20.3902 8.95411 20.3899 8.95387L13.462 3.41552L13.4604 3.41429Z" fill="currentColor"/>
</svg>
