<svg width="24" height="24" viewBox="0 0 24 24" fill="none" xmlns="http://www.w3.org/2000/svg">
<path fill-rule="evenodd" clip-rule="evenodd" d="M15.8897 8.48045C13.7426 6.33334 10.2574 6.33334 8.11033 8.48045C5.96322 10.6276 5.96322 14.1126 8.11033 16.2598C10.2574 18.4069 13.7426 18.4069 15.8897 16.2598C18.0368 14.1126 18.0368 10.6276 15.8897 8.48045ZM7.04967 7.41979C9.78256 4.68689 14.2175 4.68689 16.9504 7.41979C19.6833 10.1527 19.6833 14.5875 16.9504 17.3204C14.2175 20.0533 9.78256 20.0533 7.04967 17.3204C4.31678 14.5875 4.31678 10.1527 7.04967 7.41979Z" fill="currentColor"/>
<path fill-rule="evenodd" clip-rule="evenodd" d="M2.18607 10.3861C2.59687 10.4392 2.88686 10.8153 2.83379 11.2261C2.5839 13.1604 2.93544 15.1835 3.98912 17.0043L3.98956 17.0051C5.06272 18.8646 6.67963 20.2041 8.52852 20.9436C8.91311 21.0975 9.10017 21.5339 8.94634 21.9185C8.7925 22.3031 8.35602 22.4902 7.97143 22.3363C5.82033 21.4759 3.93723 19.9153 2.69039 17.7549C1.46441 15.6359 1.05608 13.2793 1.34616 11.0339C1.39922 10.6231 1.77527 10.3331 2.18607 10.3861Z" fill="currentColor"/>
<path fill-rule="evenodd" clip-rule="evenodd" d="M11.9996 3.11035C9.85346 3.11035 7.88491 3.84031 6.31178 5.07105C5.98554 5.32628 5.51417 5.26872 5.25894 4.94248C5.00371 4.61625 5.06127 4.14488 5.3875 3.88964C7.21438 2.46038 9.50581 1.61035 11.9996 1.61035C14.4425 1.61035 16.6906 2.43964 18.4942 3.81377C18.8237 4.0648 18.8872 4.53539 18.6362 4.86487C18.3852 5.19435 17.9146 5.25794 17.5851 5.00691C16.0287 3.82104 14.0967 3.11035 11.9996 3.11035Z" fill="currentColor"/>
<path fill-rule="evenodd" clip-rule="evenodd" d="M21.8141 10.3861C22.2249 10.3331 22.601 10.6231 22.654 11.0339C22.9441 13.2794 22.5357 15.6362 21.3096 17.7552C20.0627 19.9155 18.1797 21.4759 16.0287 22.3363C15.6442 22.4902 15.2077 22.3031 15.0538 21.9185C14.9 21.5339 15.0871 21.0975 15.4717 20.9436C17.3206 20.2041 18.9375 18.8646 20.0106 17.0051L20.0111 17.0043C21.0647 15.1835 21.4163 13.1604 21.1664 11.2261C21.1133 10.8153 21.4033 10.4392 21.8141 10.3861Z" fill="currentColor"/>
</svg>
